<svg width="77" height="77" viewBox="0 0 77 77" fill="none" xmlns="http://www.w3.org/2000/svg">
<path d="M38.3251 76.577C59.4627 76.577 76.598 59.5483 76.598 38.5423C76.598 17.5363 59.4627 0.507568 38.3251 0.507568C17.1876 0.507568 0.0521851 17.5363 0.0521851 38.5423C0.0521851 59.5483 17.1876 76.577 38.3251 76.577Z" fill="#009980"/>
<path d="M20.2001 27.3142L25.9278 31.5398V41.2435H34.6741V31.5398L40.4018 27.3142V51.7317L34.6741 56.715V46.2045H25.9278V52.5607L20.2001 56.7106V27.3142Z" fill="white"/>
<path d="M49.5024 27.3142H60.1056V32.0881H49.8433V37.9272H58.6076L55.284 42.701H49.8433V51.8387H44.1156V32.6675C44.1201 29.7078 46.5287 27.3142 49.5024 27.3142Z" fill="white"/>
</svg>
