<svg width="20" height="20" viewBox="0 0 20 20" fill="none" xmlns="http://www.w3.org/2000/svg">
<path d="M13.6129 12.6667V14.0729L14.4839 14.9167M17.4839 7.5V5.83333C17.4839 4.91286 16.6173 4.16667 15.5484 4.16667H12.6452M6.83871 17.5H3.93548C2.86655 17.5 2 16.7538 2 15.8333V9.16667M12.6452 2.5V4.16667M12.6452 5.83333V4.16667M6.83871 2.5V4.16667M6.83871 5.83333V4.16667M12.6452 4.16667H6.83871M6.83871 4.16667H3.93548C2.86655 4.16667 2 4.91286 2 5.83333V9.16667M6.83871 9.16667H2M17.9677 14.1667C17.9677 16.2377 16.018 17.9167 13.6129 17.9167C11.2078 17.9167 9.25806 16.2377 9.25806 14.1667C9.25806 12.0956 11.2078 10.4167 13.6129 10.4167C16.018 10.4167 17.9677 12.0956 17.9677 14.1667Z" stroke="#727272" stroke-width="1.7" stroke-linecap="round" stroke-linejoin="round"/>
</svg>
