<svg width="50" height="50" viewBox="0 0 50 50" fill="none" xmlns="http://www.w3.org/2000/svg">
<g filter="url(#filter0_i_2532_5965)">
<path d="M4.70213 28.0303C-0.881967 28.0303 -2.21733 40.9091 4.70213 40.9091H16.5992L21.2121 28.0303H4.70213Z" fill="#AE5A2B"/>
</g>
<g filter="url(#filter1_i_2532_5965)">
<path d="M5.26279 43.3977L26.5374 12.8789L40.0425 20.9113C40.109 20.9509 40.1464 21.0254 40.1383 21.1023L39.9617 22.7875C39.9507 22.8922 39.8598 22.9701 39.7546 22.9648L38.0557 22.8795C37.9425 22.8738 37.8476 22.9641 37.8476 23.0774V24.7633C37.8476 24.8768 37.7524 24.9672 37.639 24.9612L36.0559 24.8775C35.9465 24.8717 35.8532 24.9557 35.8475 25.0651L35.7635 26.6671C35.7578 26.7764 35.6645 26.8604 35.5551 26.8546L33.972 26.771C33.8586 26.765 33.7634 26.8553 33.7634 26.9689V28.6542C33.7634 28.7677 33.6681 28.8581 33.5547 28.8521L31.9711 28.7684C31.8619 28.7626 31.7687 28.8462 31.7627 28.9553L31.6793 30.4636C31.6735 30.5686 31.5866 30.6508 31.4814 30.6508H29.9729C29.8671 30.6508 29.7799 30.7339 29.7749 30.8396L29.6831 32.7752C29.6806 32.8288 29.6564 32.8792 29.616 32.9147L23.8707 37.9627C23.8346 37.9944 23.7881 38.012 23.7399 38.012H21.7089C21.5994 38.012 21.5107 38.1007 21.5107 38.2101V40.1176C21.5107 40.2308 21.4161 40.3209 21.3031 40.3155L19.5086 40.2297C19.3996 40.2245 19.3069 40.3084 19.3012 40.4173L19.2172 42.0198C19.2115 42.1293 19.1178 42.2134 19.0082 42.2073L17.531 42.1248C17.4174 42.1185 17.3218 42.2089 17.3218 42.3227V43.9028C17.3218 44.0162 17.2269 44.1064 17.1136 44.1007L15.4354 44.0165C15.3222 44.0108 15.2273 44.1011 15.2273 44.2144V45.7957C15.2273 45.909 15.1324 45.9993 15.0192 45.9936L13.3203 45.9083C13.2151 45.903 13.1242 45.9809 13.1132 46.0856L12.943 47.7092C12.932 47.8143 12.8404 47.8923 12.7349 47.8864L11.2476 47.8034C11.1339 47.7971 11.0383 47.8875 11.0383 48.0013V49.5688C11.0383 49.7382 10.8396 49.8295 10.7111 49.7192L5.49725 45.2437C4.95681 44.7798 4.85548 43.982 5.26279 43.3977Z" fill="#C4C4C4"/>
</g>
<g filter="url(#filter2_i_2532_5965)">
<path d="M33.6099 0.685055L25.5291 12.9168C25.2342 13.3631 25.3469 13.963 25.7837 14.272L36.3118 21.7187C36.538 21.8787 36.8208 21.9367 37.0917 21.8786L42.7014 20.6762C43.6386 20.4753 44.4555 19.9058 44.9681 19.0959L49.6137 11.7559C49.8326 11.4101 49.7522 10.9544 49.4282 10.7044L48.0411 9.63407C47.5175 9.23007 46.7634 9.34044 46.3775 9.87752C45.7882 10.6978 44.6473 10.8885 43.8233 10.3045L36.5176 5.1266C36.1709 4.88086 36.0195 4.44138 36.1412 4.03421L36.5676 2.6086C36.6891 2.20225 36.5386 1.76361 36.1931 1.51755L34.7313 0.476331C34.3658 0.216008 33.8573 0.310661 33.6099 0.685055Z" fill="#333333"/>
</g>
<path d="M35.0987 7.92008L42.8045 13.0957C43.9656 13.9407 42.2766 17.7432 40.0599 16.3701L32.3542 11.0888C30.8764 10.1382 32.6709 6.44132 35.0987 7.92008Z" fill="white"/>
<g filter="url(#filter3_i_2532_5965)">
<path d="M21.3689 28.0303C15.7848 28.0303 14.4494 40.9091 21.3689 40.9091H37.8789V28.0303H21.3689Z" fill="#AE5A2B"/>
</g>
<g filter="url(#filter4_i_2532_5965)">
<ellipse cx="29.1666" cy="12.8787" rx="0.378788" ry="0.757576" fill="#DFDFDF"/>
</g>
<g filter="url(#filter5_i_2532_5965)">
<circle cx="37.5001" cy="18.5604" r="0.378788" fill="#DFDFDF"/>
</g>
<ellipse cx="9.09083" cy="43.5604" rx="0.757576" ry="0.378788" fill="#1D202A"/>
<ellipse cx="37.5" cy="34.4697" rx="5.68182" ry="6.43939" fill="#F9BF6B"/>
<path d="M6.06049 30.3035V30.3035C6.62535 29.9328 7.28624 29.7353 7.96187 29.7353H8.00854L8.40627 29.6889C9.19173 29.5973 9.98173 29.818 10.6059 30.3035V30.3035" stroke="#7E2A13" stroke-width="0.396369" stroke-linecap="round"/>
<path d="M33.3334 29.7353C33.2984 29.6992 33.2501 29.67 33.1948 29.6464C32.8298 29.4903 32.4208 29.6588 32.0857 29.8715V29.8715C31.6476 30.1495 31.1219 30.2548 30.6105 30.1669L30.3031 30.1141" stroke="#7E2A13" stroke-width="0.396369" stroke-linecap="round"/>
<path d="M20.4545 34.0916H21.4423C21.8189 34.0916 22.1928 34.0284 22.5485 33.9048L23.1326 33.7017C23.8194 33.463 24.565 33.4528 25.2581 33.6728L26.08 33.9337C26.4096 34.0383 26.7534 34.0916 27.0992 34.0916H28.0303" stroke="#7E2A13" stroke-width="0.396369" stroke-linecap="round"/>
<path d="M25 37.3736L25.8261 37.499C26.3808 37.5832 26.9455 37.5762 27.4979 37.4784L27.8591 37.4145C28.9356 37.2238 30.0448 37.3805 31.0263 37.8619L31.0606 37.8787" stroke="#7E2A13" stroke-width="0.396369" stroke-linecap="round"/>
<path d="M0.839018 32.5839L0.65829 32.5025L0.495634 32.864L0.676362 32.9453L0.839018 32.5839ZM8.33345 32.9628C8.4429 32.9628 8.53163 32.874 8.53163 32.7646C8.53163 32.6551 8.4429 32.5664 8.33345 32.5664V32.9628ZM0.676362 32.9453C1.01123 33.096 1.28597 33.1432 1.54222 33.1226L1.51044 32.7275C1.33273 32.7418 1.12488 32.7125 0.839018 32.5839L0.676362 32.9453ZM3.72668 33.1046L4.21005 33.2496L4.32394 32.87L3.84058 32.725L3.72668 33.1046ZM7.07594 32.9628H8.33345V32.5664H7.07594V32.9628ZM6.13018 33.1514C6.42994 33.0269 6.75134 32.9628 7.07594 32.9628V32.5664C6.69916 32.5664 6.32609 32.6408 5.97813 32.7853L6.13018 33.1514ZM1.54222 33.1226C1.73842 33.1068 1.93323 33.0841 2.12167 33.0631C2.31155 33.0419 2.49585 33.0223 2.67813 33.0113C3.04227 32.9895 3.38821 33.0031 3.72668 33.1046L3.84058 32.725C3.43959 32.6047 3.04165 32.5924 2.65438 32.6157C2.46096 32.6273 2.26768 32.648 2.07771 32.6692C1.88631 32.6905 1.699 32.7123 1.51044 32.7275L1.54222 33.1226ZM4.21005 33.2496C4.84227 33.4393 5.52062 33.4046 6.13018 33.1514L5.97813 32.7853C5.453 33.0035 4.8686 33.0334 4.32394 32.87L4.21005 33.2496Z" fill="#7E2A13"/>
<path d="M1.51508 39.3943L1.62821 39.3157C2.22019 38.9046 3.00141 38.8902 3.60818 39.2792L3.7878 39.3943" stroke="#7E2A13" stroke-width="0.396369" stroke-linecap="round"/>
<ellipse cx="37.8788" cy="34.8482" rx="3.78788" ry="4.54545" fill="#F29B4C"/>
<ellipse cx="37.8788" cy="34.4691" rx="1.51515" ry="1.89394" fill="#EC7C32"/>
<defs>
<filter id="filter0_i_2532_5965" x="0" y="28.0303" width="21.2121" height="12.8789" filterUnits="userSpaceOnUse" color-interpolation-filters="sRGB">
<feFlood flood-opacity="0" result="BackgroundImageFix"/>
<feBlend mode="normal" in="SourceGraphic" in2="BackgroundImageFix" result="shape"/>
<feColorMatrix in="SourceAlpha" type="matrix" values="0 0 0 0 0 0 0 0 0 0 0 0 0 0 0 0 0 0 127 0" result="hardAlpha"/>
<feOffset dx="-0.594554" dy="-0.990923"/>
<feComposite in2="hardAlpha" operator="arithmetic" k2="-1" k3="1"/>
<feColorMatrix type="matrix" values="0 0 0 0 0 0 0 0 0 0 0 0 0 0 0 0 0 0 0.25 0"/>
<feBlend mode="normal" in2="shape" result="effect1_innerShadow_2532_5965"/>
</filter>
<filter id="filter1_i_2532_5965" x="5.01349" y="12.8789" width="35.1259" height="36.8887" filterUnits="userSpaceOnUse" color-interpolation-filters="sRGB">
<feFlood flood-opacity="0" result="BackgroundImageFix"/>
<feBlend mode="normal" in="SourceGraphic" in2="BackgroundImageFix" result="shape"/>
<feColorMatrix in="SourceAlpha" type="matrix" values="0 0 0 0 0 0 0 0 0 0 0 0 0 0 0 0 0 0 127 0" result="hardAlpha"/>
<feOffset dx="-0.594554" dy="-0.792738"/>
<feComposite in2="hardAlpha" operator="arithmetic" k2="-1" k3="1"/>
<feColorMatrix type="matrix" values="0 0 0 0 0 0 0 0 0 0 0 0 0 0 0 0 0 0 0.6 0"/>
<feBlend mode="overlay" in2="shape" result="effect1_innerShadow_2532_5965"/>
</filter>
<filter id="filter2_i_2532_5965" x="25.3649" y="0.329102" width="24.3718" height="21.5713" filterUnits="userSpaceOnUse" color-interpolation-filters="sRGB">
<feFlood flood-opacity="0" result="BackgroundImageFix"/>
<feBlend mode="normal" in="SourceGraphic" in2="BackgroundImageFix" result="shape"/>
<feColorMatrix in="SourceAlpha" type="matrix" values="0 0 0 0 0 0 0 0 0 0 0 0 0 0 0 0 0 0 127 0" result="hardAlpha"/>
<feOffset dx="0.198185" dy="-0.792738"/>
<feComposite in2="hardAlpha" operator="arithmetic" k2="-1" k3="1"/>
<feColorMatrix type="matrix" values="0 0 0 0 0.333333 0 0 0 0 0.333333 0 0 0 0 0.333333 0 0 0 1 0"/>
<feBlend mode="normal" in2="shape" result="effect1_innerShadow_2532_5965"/>
</filter>
<filter id="filter3_i_2532_5965" x="16.6667" y="28.0303" width="21.2121" height="12.8789" filterUnits="userSpaceOnUse" color-interpolation-filters="sRGB">
<feFlood flood-opacity="0" result="BackgroundImageFix"/>
<feBlend mode="normal" in="SourceGraphic" in2="BackgroundImageFix" result="shape"/>
<feColorMatrix in="SourceAlpha" type="matrix" values="0 0 0 0 0 0 0 0 0 0 0 0 0 0 0 0 0 0 127 0" result="hardAlpha"/>
<feOffset dx="-0.594554" dy="-0.990923"/>
<feComposite in2="hardAlpha" operator="arithmetic" k2="-1" k3="1"/>
<feColorMatrix type="matrix" values="0 0 0 0 0 0 0 0 0 0 0 0 0 0 0 0 0 0 0.25 0"/>
<feBlend mode="normal" in2="shape" result="effect1_innerShadow_2532_5965"/>
</filter>
<filter id="filter4_i_2532_5965" x="28.7878" y="12.022" width="0.856661" height="1.61472" filterUnits="userSpaceOnUse" color-interpolation-filters="sRGB">
<feFlood flood-opacity="0" result="BackgroundImageFix"/>
<feBlend mode="normal" in="SourceGraphic" in2="BackgroundImageFix" result="shape"/>
<feColorMatrix in="SourceAlpha" type="matrix" values="0 0 0 0 0 0 0 0 0 0 0 0 0 0 0 0 0 0 127 0" result="hardAlpha"/>
<feOffset dx="0.0990923" dy="-0.0990923"/>
<feGaussianBlur stdDeviation="0.0990923"/>
<feComposite in2="hardAlpha" operator="arithmetic" k2="-1" k3="1"/>
<feColorMatrix type="matrix" values="0 0 0 0 0 0 0 0 0 0 0 0 0 0 0 0 0 0 0.25 0"/>
<feBlend mode="plus-darker" in2="shape" result="effect1_innerShadow_2532_5965"/>
</filter>
<filter id="filter5_i_2532_5965" x="37.1213" y="18.0825" width="0.856661" height="0.856905" filterUnits="userSpaceOnUse" color-interpolation-filters="sRGB">
<feFlood flood-opacity="0" result="BackgroundImageFix"/>
<feBlend mode="normal" in="SourceGraphic" in2="BackgroundImageFix" result="shape"/>
<feColorMatrix in="SourceAlpha" type="matrix" values="0 0 0 0 0 0 0 0 0 0 0 0 0 0 0 0 0 0 127 0" result="hardAlpha"/>
<feOffset dx="0.0990923" dy="-0.0990923"/>
<feGaussianBlur stdDeviation="0.0990923"/>
<feComposite in2="hardAlpha" operator="arithmetic" k2="-1" k3="1"/>
<feColorMatrix type="matrix" values="0 0 0 0 0 0 0 0 0 0 0 0 0 0 0 0 0 0 0.25 0"/>
<feBlend mode="plus-darker" in2="shape" result="effect1_innerShadow_2532_5965"/>
</filter>
</defs>
</svg>
