<svg width="20" height="20" viewBox="0 0 20 20" fill="none" xmlns="http://www.w3.org/2000/svg">
<path d="M13.0583 18.6837L15.05 16.667C15.2049 16.5122 15.3279 16.3284 15.4117 16.1261C15.4956 15.9238 15.5388 15.7069 15.5388 15.4879C15.5388 15.2688 15.4956 15.052 15.4117 14.8496C15.3279 14.6473 15.2049 14.4635 15.05 14.3087L13.9166 13.2004C13.7619 13.0454 13.578 12.9225 13.3757 12.8386C13.1734 12.7547 12.9565 12.7116 12.7375 12.7116C12.5185 12.7116 12.3016 12.7547 12.0992 12.8386C11.8969 12.9225 11.7131 13.0454 11.5583 13.2004L10.8083 13.9504C8.8776 12.793 7.26078 11.179 6.09998 9.25037L6.84998 8.50037C7.00494 8.34558 7.12787 8.16176 7.21175 7.95943C7.29562 7.7571 7.33879 7.54022 7.33879 7.3212C7.33879 7.10217 7.29562 6.88529 7.21175 6.68296C7.12787 6.48063 7.00494 6.29682 6.84998 6.14203L5.72498 5.00036C5.56963 4.84035 5.38375 4.71313 5.17834 4.62626C4.97293 4.53939 4.75217 4.49463 4.52915 4.49463C4.30612 4.49463 4.08537 4.53939 3.87996 4.62626C3.67455 4.71313 3.48866 4.84035 3.33332 5.00036L1.37498 7.00036C1.23848 7.13597 1.15312 7.31463 1.13337 7.50603C1.11362 7.69742 1.16071 7.88975 1.26665 8.05037C3.33332 13.9504 5.17834 16.1261 12.0083 18.792C12.1689 18.898 12.3613 18.9451 12.5527 18.9253C12.744 18.9056 12.9227 18.8202 13.0583 18.6837Z" stroke="#727272" stroke-width="1.7" stroke-linecap="round" stroke-linejoin="round"/>
<path d="M6.71667 2.58351C8.20427 1.78623 9.90774 1.48524 11.5785 1.72447C13.2492 1.9637 14.7998 2.73062 16.0039 3.91331C17.208 5.096 18.0026 6.63256 18.2717 8.29874C18.5409 9.96492 18.2705 11.6735 17.5 13.1752" stroke="#727272" stroke-width="1.7" stroke-linecap="round" stroke-linejoin="round"/>
<path d="M10.8333 4.7334V9.40006H14.1666" stroke="#727272" stroke-width="1.7" stroke-linecap="round" stroke-linejoin="round"/>
</svg>