<svg width="20" height="20" viewBox="0 0 20 20" fill="none" xmlns="http://www.w3.org/2000/svg">
<path d="M15.8334 3.3335C17.1648 3.3335 18.2531 4.37427 18.3291 5.6866L18.3334 5.8335V7.34776C18.3334 7.85307 18.0397 8.24631 17.6867 8.45569L17.5974 8.50416C17.0443 8.77708 16.6667 9.34533 16.6667 10.0002C16.6667 10.6082 16.9923 11.1416 17.4816 11.4332L17.5974 11.4962C17.9587 11.6744 18.2801 12.0425 18.3274 12.5286L18.3334 12.6526V14.1668C18.3334 15.4983 17.2926 16.5865 15.9803 16.6626L15.8334 16.6668H4.16669C2.83529 16.6668 1.74697 15.6261 1.67093 14.3137L1.66669 14.1668V12.6526C1.66669 12.1473 1.9603 11.754 2.31331 11.5446L2.40267 11.4962C2.95578 11.2232 3.33335 10.655 3.33335 10.0002C3.33335 9.3921 3.00779 8.8587 2.51843 8.56709L2.40267 8.50416C2.04138 8.32592 1.71998 7.95784 1.67267 7.47171L1.66669 7.34776V5.8335C1.66669 4.5021 2.70746 3.41378 4.01979 3.33774L4.16669 3.3335H15.8334ZM15.8334 5.00016H4.16669C3.73933 5.00016 3.3871 5.32187 3.33896 5.73631L3.33335 5.8335V7.11295C4.32827 7.68839 5.00002 8.76516 5.00002 10.0002C5.00002 11.1702 4.39712 12.1981 3.48771 12.7924L3.33335 12.8874V14.1668C3.33335 14.5942 3.65506 14.9464 4.0695 14.9946L4.16669 15.0002H15.8334C16.2607 15.0002 16.6129 14.6785 16.6611 14.264L16.6667 14.1668V12.8874C15.6718 12.3119 15 11.2352 15 10.0002C15 8.83016 15.6029 7.80217 16.5123 7.20793L16.6667 7.11295V5.8335C16.6667 5.40614 16.345 5.05391 15.9305 5.00577L15.8334 5.00016ZM8.33335 7.50016C8.76073 7.50016 9.11294 7.82187 9.16108 8.23631L9.16669 8.3335V11.6668C9.16669 12.1271 8.7936 12.5002 8.33335 12.5002C7.90599 12.5002 7.55377 12.1785 7.50563 11.764L7.50002 11.6668V8.3335C7.50002 7.87326 7.87312 7.50016 8.33335 7.50016Z" fill="#727272"/>
</svg>