<svg width="18" height="18" viewBox="0 0 18 18" fill="none" xmlns="http://www.w3.org/2000/svg">
<path fill-rule="evenodd" clip-rule="evenodd" d="M15.841 2.0301C14.9623 1.15143 13.5377 1.15142 12.659 2.0301L11.3992 3.28995L5.46967 9.21942C5.37355 9.31557 5.30536 9.43602 5.27239 9.56787L4.52239 12.5679C4.45849 12.8235 4.53338 13.0938 4.71967 13.2801C4.90595 13.4664 5.17632 13.5413 5.4319 13.4774L8.43187 12.7274C8.5638 12.6944 8.68417 12.6262 8.78032 12.5301L14.6667 6.64374L15.9697 5.34076C16.8484 4.46208 16.8484 3.03746 15.9697 2.15878L15.841 2.0301ZM13.7197 3.09076C14.0125 2.79787 14.4874 2.79787 14.7803 3.09076L14.909 3.21944C15.2019 3.51234 15.2019 3.98721 14.909 4.2801L14.1466 5.04249L12.9801 3.83035L13.7197 3.09076ZM11.9192 4.8912L13.0858 6.10335L7.8666 11.3226L6.28078 11.719L6.67722 10.1332L11.9192 4.8912ZM3 5.99977C3 5.58556 3.33579 5.24977 3.75 5.24977H7.5C7.91422 5.24977 8.25 4.91399 8.25 4.49977C8.25 4.08556 7.91422 3.74977 7.5 3.74977H3.75C2.50736 3.74977 1.5 4.75713 1.5 5.99977V14.2497C1.5 15.4924 2.50736 16.4997 3.75 16.4997H12C13.2427 16.4997 14.25 15.4924 14.25 14.2497V10.4997C14.25 10.0856 13.9142 9.74974 13.5 9.74974C13.0858 9.74974 12.75 10.0856 12.75 10.4997V14.2497C12.75 14.664 12.4142 14.9997 12 14.9997H3.75C3.33579 14.9997 3 14.664 3 14.2497V5.99977Z" fill="#636363"/>
</svg>
