<svg width="52" height="52" viewBox="0 0 52 52" fill="none" xmlns="http://www.w3.org/2000/svg">
<g id="giftbox-gift-svgrepo-com 1">
<path id="Vector" d="M31.1023 6.19621L32.7204 6.215L33.6224 7.55858C34.07 8.22533 35.1193 8.08579 35.3767 7.32427L35.8947 5.79118L37.4517 5.34837C37.8157 5.24457 38.0842 4.94882 38.152 4.57659C38.2202 4.20437 38.0737 3.83305 37.7705 3.60779L36.4725 2.64152L36.5326 1.02383C36.5464 0.645811 36.3483 0.299279 36.0153 0.119615C35.6827 -0.0600496 35.2844 -0.0359792 34.9755 0.182787L33.6555 1.11879L32.136 0.56192C31.7808 0.431717 31.3901 0.512764 31.116 0.773679C30.8417 1.03469 30.7415 1.42145 30.8543 1.7825L31.3364 3.32717L30.3376 4.60015C30.1039 4.89763 30.0601 5.29454 30.2236 5.63569C30.3869 5.97674 30.7236 6.19164 31.1023 6.19621ZM32.9141 4.08412C33.1151 3.82858 33.1773 3.49068 33.0804 3.18021L32.9208 2.66874L33.4222 2.85246C33.7278 2.9652 34.0688 2.9199 34.3341 2.7315L34.7712 2.42153L34.7514 2.95596C34.739 3.28126 34.8875 3.59143 35.1482 3.78501L35.5779 4.10504L35.0635 4.25129C34.75 4.34005 34.5009 4.57741 34.3974 4.88494L34.2259 5.39265L33.9271 4.9475C33.7457 4.67744 33.4434 4.51423 33.1193 4.51108L32.5835 4.50479L32.9141 4.08412Z" fill="black"/>
<path id="Vector_2" d="M36.7115 30.0176H46.799V49.4035C46.799 50.3602 46.0232 51.3064 45.0664 51.3064L23.3283 51.1358C22.3716 51.1358 21.5959 50.3603 21.5959 49.4035V30.0176H31.6422" fill="#F09EA0"/>
<g id="Group">
<path id="Vector_3" d="M13.1733 37.1822L11.7175 40.6675C10.9115 42.5973 8.70944 43.5015 6.79936 42.6872L4.85333 41.8575L6.30914 38.3723C7.1152 36.4425 9.31723 35.5382 11.2273 36.3526L13.1733 37.1822Z" fill="#F9DE8F"/>
<path id="Vector_4" d="M14.9449 33.3629L13.4292 36.7467L11.4032 35.9412C9.41451 35.1506 8.48266 32.9907 9.32185 31.1172L10.7467 27.3867L13.1734 28.4267C15.1622 29.2172 15.7841 31.4893 14.9449 33.3629Z" fill="#F9DE8F"/>
<path id="Vector_5" d="M46.8001 29.1733H22.6505L23.7111 26.6598C23.7992 26.4511 23.8007 26.216 23.7155 26.0061C23.6302 25.7962 23.4649 25.6288 23.2563 25.5408L19.2266 23.8403C18.7921 23.6571 18.2909 23.8604 18.1076 24.2952L15.7557 29.8686C15.2547 28.9123 14.4452 28.1657 13.4378 27.7405L11.4591 26.9055C11.0245 26.7223 10.5235 26.9256 10.3401 27.3604L8.8598 30.8682C8.37463 32.0178 8.36621 33.2875 8.83614 34.4435C8.93811 34.694 9.06079 34.9319 9.20064 35.157C7.76831 35.4716 6.50395 36.4512 5.89173 37.9019L4.41135 41.4097C4.3233 41.6185 4.32178 41.8536 4.40699 42.0634C4.4923 42.2733 4.65744 42.4407 4.86615 42.5288L6.8449 43.3638C7.42939 43.6105 8.04476 43.7338 8.66064 43.7338C9.10629 43.7338 9.55215 43.6691 9.98654 43.5397L7.63465 49.1131C7.45133 49.5477 7.65496 50.0488 8.08955 50.2321L12.1193 51.9327C12.5483 52.1135 13.0572 51.9068 13.2383 51.4778L20.7427 33.6941V49.4132C20.7427 50.8392 21.903 51.9997 23.3293 51.9997H45.0677C46.4938 51.9997 47.6541 50.8394 47.6541 49.4132V30.0274C47.6542 29.5555 47.2718 29.1733 46.8001 29.1733ZM10.0533 31.1999L11.3472 28.4265L13.2033 29.1733C14.2133 29.8132 14.0687 30.1953 14.3666 30.9285C14.6645 31.6617 14.6592 32.467 14.3515 33.1962L13.1733 36.3999L11.7867 35.7065C11.0933 35.157 10.3513 34.7066 10.0533 33.9732C9.75536 33.24 9.74551 31.929 10.0533 31.1999ZM9.98654 42.2932C9.25336 42.5913 8.3558 42.6011 7.62668 42.2932L5.89334 41.5999L7.28001 38.4799C7.91518 36.9745 9.58808 36.1112 11.0933 36.7465L12.539 37.4909L11.7532 39.3531L11.3907 40.2121C11.0832 40.9413 10.7197 41.9952 9.98654 42.2932ZM11.9966 50.0264L9.54088 48.9901L12.9648 40.8764L13.442 39.7451L19.3493 25.7462L21.805 26.7825L11.9966 50.0264ZM32.5385 50.2913V34.8809C32.5385 34.409 32.1563 34.0267 31.6844 34.0267C31.2125 34.0267 30.8302 34.409 30.8302 34.8809L30.8303 51.1451H23.3293C22.8451 51.1451 21.84 50.7508 21.84 50.2665L21.805 30.0274H31.6638H35.8583L35.8583 50.2914L32.5385 50.2913ZM45.9459 49.4132C45.9459 49.8974 46.1067 50.9599 45.76 50.9599C45.76 50.9599 43.0133 51.1633 41.2533 51.1633C39.8136 51.1633 37.5667 51.1633 37.5667 51.1633L37.5667 30.0274H45.9459V49.4132Z" fill="black"/>
</g>
<path id="Vector_6" d="M36.6885 30.0176H31.6604V51.1353H36.6885V30.0176Z" fill="#F9DE8F"/>
<path id="Vector_7" d="M16.6679 41.0818L12.425 51.1365L9.91073 50.0756C9.07375 49.7225 8.68172 48.7576 9.03485 47.9207L18.2287 26.1336C18.5818 25.2967 19.5467 24.9046 20.3837 25.2578L22.898 26.3187L18.639 36.4113L16.6679 41.0818Z" fill="#88E2E2"/>
<path id="Vector_8" d="M20.3849 25.2576C19.8131 25.0163 19.1818 25.1234 18.7264 25.4821C19.809 26.0516 20.2942 27.3639 19.8099 28.5115L16.4764 36.4111L14.5055 41.0817L10.5896 50.3613L12.0503 50.9778L12.4264 51.1364L16.6692 41.0817L17.2388 39.7319L18.6401 36.4113L22.899 26.3187L20.3849 25.2576Z" fill="#67D1D3"/>
<path id="Vector_9" d="M43.7602 30.0176V49.4035C43.7602 50.3602 42.9847 51.1358 42.0279 51.1358H45.0419C45.9986 51.1358 46.7742 50.3603 46.7742 49.4035V30.0176H43.7602Z" fill="#EF8990"/>
<path id="Vector_10" d="M31.8499 1.37285L33.7255 2.06022C33.7665 2.07525 33.8122 2.06906 33.8478 2.04387L35.4774 0.888495C35.5672 0.824815 35.6908 0.891846 35.6867 1.00174L35.6126 2.99795C35.611 3.04152 35.631 3.08326 35.666 3.10937L37.2684 4.30212C37.3566 4.36783 37.3312 4.50606 37.2254 4.53622L35.304 5.08253C35.262 5.09451 35.2286 5.1264 35.2147 5.16774L34.5754 7.06026C34.5403 7.16446 34.4008 7.18305 34.3396 7.09184L33.2263 5.43332C33.2019 5.39707 33.1613 5.37513 33.1176 5.37452L31.1202 5.35136C31.0102 5.35014 30.9494 5.22329 31.0173 5.13666L32.2507 3.56528C32.2777 3.53085 32.286 3.48545 32.273 3.44381L31.6778 1.53707C31.6447 1.43196 31.7466 1.33507 31.8499 1.37285Z" fill="#F9DE8F"/>
<path id="Vector_11" d="M33.6132 27.3241C33.6402 27.3266 33.6671 27.3279 33.6938 27.3279C34.1296 27.3279 34.5019 26.9959 34.5433 26.5533C34.8026 23.7834 34.8192 20.9739 34.5921 18.203C34.3869 15.6997 33.9797 13.1919 33.3818 10.7499C33.2697 10.2918 32.8074 10.0113 32.3492 10.1233C31.891 10.2355 31.6105 10.6979 31.7225 11.156C32.2991 13.5109 32.6918 15.9287 32.8896 18.3424C33.1084 21.0141 33.0926 23.723 32.8424 26.394C32.7985 26.8638 33.1436 27.2801 33.6132 27.3241Z" fill="black"/>
<path id="Vector_12" d="M21.609 16.3584C23.1191 16.7574 25.9692 17.8533 28.0904 20.711C29.6901 22.8659 30.194 25.106 30.3349 26.606C30.3765 27.0484 30.7487 27.3803 31.1843 27.3803C31.211 27.3803 31.238 27.379 31.2652 27.3765C31.7349 27.3323 32.0798 26.9158 32.0357 26.4462C31.8743 24.7295 31.2969 22.1643 29.4621 19.6927C27.0303 16.4169 23.7713 15.1629 22.0451 14.7069C21.589 14.586 21.1217 14.8585 21.0012 15.3146C20.8807 15.7706 21.1528 16.2381 21.609 16.3584Z" fill="black"/>
<path id="Vector_13" d="M35.4091 26.3205C35.3532 26.7888 35.6875 27.214 36.156 27.2701C36.1905 27.2741 36.2246 27.2762 36.2584 27.2762C36.6848 27.2762 37.0534 26.9572 37.1054 26.5234C37.2604 25.2259 37.8396 22.7323 39.9773 20.6108C42.4454 18.1611 45.4367 17.7798 46.6083 17.7297C47.0797 17.7093 47.4454 17.311 47.4251 16.8398C47.4048 16.3683 47.0078 15.9999 46.5352 16.023C45.165 16.0818 41.6658 16.5283 38.7741 19.3984C36.269 21.8843 35.5905 24.8024 35.4091 26.3205Z" fill="black"/>
<path id="Vector_14" d="M25.8423 12.9376C25.8677 12.9383 25.8928 12.9385 25.9181 12.9385C26.699 12.9385 27.4378 12.6435 28.0053 12.1029C28.5911 11.5448 28.9246 10.792 28.9443 9.98325C28.964 9.17441 28.6674 8.40619 28.1095 7.82048C26.9577 6.61117 25.0366 6.56394 23.827 7.71617C22.6177 8.86799 22.5709 10.7891 23.7227 11.9987C24.2806 12.5844 25.0334 12.9179 25.8423 12.9376ZM25.0052 8.953C25.2604 8.70986 25.5882 8.58941 25.9157 8.58941C26.2647 8.58941 26.6132 8.72652 26.8724 8.9987C27.3746 9.52602 27.3542 10.3636 26.827 10.8659C26.2997 11.3683 25.462 11.3475 24.9598 10.8205C24.4573 10.2929 24.4777 9.45523 25.0052 8.953Z" fill="black"/>
<path id="Vector_15" d="M25.9272 12.0935C27.1286 12.0935 28.1024 11.1196 28.1024 9.91833C28.1024 8.71702 27.1286 7.74316 25.9272 7.74316C24.7259 7.74316 23.7521 8.71702 23.7521 9.91833C23.7521 11.1196 24.7259 12.0935 25.9272 12.0935Z" fill="#F09EA0"/>
<path id="Vector_16" d="M36.3174 12.3691C36.2977 13.178 36.5941 13.9461 37.1521 14.532C37.7466 15.156 38.5457 15.4704 39.3463 15.4704C40.0972 15.4704 40.8493 15.1936 41.4347 14.6362C42.6442 13.4843 42.691 11.5632 41.539 10.3537C40.3872 9.14416 38.4662 9.09734 37.2565 10.2494C36.6707 10.8074 36.3371 11.5602 36.3174 12.3691ZM38.4348 11.4864C38.69 11.2433 39.0178 11.1228 39.3453 11.1228C39.6943 11.1228 40.0428 11.2599 40.302 11.5321C40.8042 12.0594 40.7837 12.897 40.2564 13.3993C39.7292 13.9016 38.8916 13.8811 38.3892 13.3539C37.8868 12.8264 37.9073 11.9887 38.4348 11.4864Z" fill="black"/>
<path id="Vector_17" d="M39.3552 14.6272C40.5565 14.6272 41.5303 13.6533 41.5303 12.452C41.5303 11.2507 40.5565 10.2769 39.3552 10.2769C38.1538 10.2769 37.18 11.2507 37.18 12.452C37.18 13.6533 38.1538 14.6272 39.3552 14.6272Z" fill="#88E2E2"/>
</g>
</svg>
