<svg width="77" height="77" viewBox="0 0 77 77" fill="none" xmlns="http://www.w3.org/2000/svg">
    <path d="M38.2729 76.0695C59.4105 76.0695 76.5459 59.0407 76.5459 38.0347C76.5459 17.0287 59.4105 0 38.2729 0C17.1354 0 0 17.0287 0 38.0347C0 59.0407 17.1354 76.0695 38.2729 76.0695Z" fill="#009980"/>
    <path d="M20.1479 26.8066L25.8757 31.0322V40.7359H34.622V31.0322L40.3497 26.8066V51.2241L34.622 56.2074V45.697H25.8757V52.0532L20.1479 56.203V26.8066Z" fill="white"/>
    <path d="M49.4503 26.8066H60.0535V31.5805H49.7912V37.4196H58.5554L55.2318 42.1935H49.7912V51.3311H44.0635V32.1599C44.068 29.2002 46.4766 26.8066 49.4503 26.8066Z" fill="white"/>
    </svg>
    