<svg width="158" height="24" viewBox="0 0 158 24" fill="none" xmlns="http://www.w3.org/2000/svg">
    <path d="M144.874 15.0134L138.436 21.4116L141.008 23.9677L147.446 17.5695L144.874 15.0134Z" fill="#00332B"/>
    <path d="M154.495 5.29453L148.056 11.6927L150.629 14.2488L157.067 7.85064L154.495 5.29453Z" fill="#009980"/>
    <path d="M148.062 11.6924L145.488 14.2509L140.464 9.25863L145.488 9.13382L148.062 11.6924Z" fill="#009980"/>
    <path d="M148.058 11.6946L145.486 14.2507L148.058 16.8068L150.63 14.2507L148.058 11.6946Z" fill="#009980"/>
    <path d="M151.244 15.0178L148.672 17.5739L155.11 23.9721L157.682 21.416L151.244 15.0178Z" fill="#00332B"/>
    <path d="M6.47975 23.6515H0.720642V0.874298H6.47975V9.64194H15.3965V0.874298H21.1556V23.6515H15.3965V14.028H6.47975V23.6515Z" fill="#00332B"/>
    <path d="M27.7759 9.79798C29.3278 8.37608 31.391 7.66736 33.9656 7.66736C36.5401 7.66736 38.6034 8.37608 40.1553 9.79798C41.7072 11.2199 42.4831 13.2079 42.4831 15.7664C42.4831 18.2447 41.7027 20.2059 40.1373 21.659C38.5764 23.1121 36.5177 23.8342 33.9656 23.8342C31.4135 23.8342 29.3547 23.1077 27.7893 21.659C26.2285 20.2059 25.4435 18.2447 25.4435 15.7664C25.448 13.2079 26.224 11.2199 27.7759 9.79798ZM36.2172 12.9048C35.6341 12.196 34.8851 11.8395 33.9656 11.8395C33.0461 11.8395 32.297 12.196 31.714 12.9048C31.1309 13.6135 30.8393 14.5718 30.8393 15.7664C30.8393 16.9431 31.1309 17.8881 31.714 18.5968C32.297 19.3055 33.0461 19.6621 33.9656 19.6621C34.8851 19.6621 35.6341 19.3055 36.2172 18.5968C36.8003 17.8881 37.0918 16.9431 37.0918 15.7664C37.0918 14.5674 36.8003 13.6135 36.2172 12.9048Z" fill="#00332B"/>
    <path d="M51.8618 9.70435L51.9829 9.73555C53.2702 8.35377 54.7907 7.66287 56.5489 7.66287C58.8364 7.66287 60.4691 8.57664 61.4514 10.4042C63.0661 8.57664 64.8512 7.66287 66.8158 7.66287C70.7359 7.66287 72.7004 10.159 72.7004 15.1557V23.6515H67.3091V14.8526C67.3091 13.0251 66.5332 12.1113 64.9813 12.1113C64.0214 12.1113 63.1737 12.7309 62.4381 13.9701V23.6515H57.0378V14.8526C57.0378 13.0251 56.2619 12.1113 54.71 12.1113C53.7501 12.1113 52.9024 12.7309 52.1668 13.9701V23.6515H46.7755V7.84563H51.2473L51.8618 9.70435Z" fill="#00332B"/>
    <path d="M78.639 5.26036C78.0469 4.67199 77.7509 3.96327 77.7509 3.12974C77.7509 2.29621 78.0469 1.58304 78.639 0.981293C79.2311 0.384005 79.9442 0.0809021 80.783 0.0809021C81.5993 0.0809021 82.308 0.379548 82.9135 0.981293C83.5145 1.57858 83.815 2.29621 83.815 3.12974C83.815 3.96327 83.519 4.67199 82.9269 5.26036C82.3349 5.84874 81.6172 6.14293 80.783 6.14293C79.9487 6.14293 79.2311 5.84874 78.639 5.26036ZM83.4831 23.6515H78.0918V7.84564H83.4831V23.6515Z" fill="#00332B"/>
    <path d="M96.9031 19.9385C98.8049 19.9385 100.487 19.573 101.958 18.842L103.519 22.283C101.743 23.3172 99.5449 23.8342 96.93 23.8342C94.2344 23.8342 92.0904 23.1166 90.4936 21.6858C88.9014 20.2549 88.103 18.2803 88.103 15.7619C88.103 13.2435 88.843 11.2644 90.3232 9.8247C91.8033 8.38497 93.7993 7.66287 96.3155 7.66287C98.9529 7.66287 100.926 8.36268 102.245 9.7623C103.564 11.1619 104.223 13.1633 104.223 15.7619L104.008 17.3131H93.593C93.7141 18.3294 94.0415 19.0202 94.5752 19.3858C95.1045 19.7557 95.8804 19.9385 96.9031 19.9385ZM96.2303 11.26C94.7995 11.26 93.9428 12.2228 93.6557 14.1528H99.0201C99.0201 13.239 98.7555 12.5303 98.2218 12.0222C97.688 11.514 97.0242 11.26 96.2303 11.26Z" fill="#00332B"/>
    <path d="M124.6 5.3807H114.275V10.5557H123.312V14.9418H114.275V23.6515H108.516V0.874298H124.604V5.3807H124.6Z" fill="#00332B"/>
    <path d="M129.78 5.26036C129.188 4.67199 128.892 3.96327 128.892 3.12974C128.892 2.29621 129.188 1.58304 129.78 0.981293C130.372 0.384005 131.085 0.0809021 131.924 0.0809021C132.74 0.0809021 133.449 0.379548 134.055 0.981293C134.656 1.57858 134.956 2.29621 134.956 3.12974C134.956 3.96327 134.66 4.67199 134.068 5.26036C133.476 5.84874 132.758 6.14293 131.924 6.14293C131.085 6.14293 130.372 5.84874 129.78 5.26036ZM134.62 23.6515H129.228V7.84564H134.62V23.6515Z" fill="#00332B"/>
    </svg>
    