<svg width="68" height="52" viewBox="0 0 68 52" fill="none" xmlns="http://www.w3.org/2000/svg">
<path d="M0.0448608 19.2832H67.9547V24.8553C67.9547 26.8713 66.3205 28.5055 64.3045 28.5055H3.69505C1.6791 28.5055 0.0448608 26.8713 0.0448608 24.8553V19.2832Z" fill="#8C8C8C"/>
<path d="M0.0448608 19.2832H67.9547V1.82526C67.9547 0.817289 67.1376 0.000164032 66.1296 0.000164032H1.86995C0.861977 0.000164032 0.0448608 0.817286 0.0448608 1.82526V19.2832Z" fill="#B0B0B0"/>
<path d="M7.59076 25.2997C7.59076 24.2917 8.40788 23.4746 9.41585 23.4746H59.4228C60.4308 23.4746 61.2479 24.2917 61.2479 25.2997V28.505H7.59076V25.2997Z" fill="#656565"/>
<circle cx="6.24147" cy="4.90492" r="1.03285" fill="#1D202A"/>
<circle cx="10.8901" cy="4.90492" r="1.03285" fill="#1D202A"/>
<path d="M52.1241 13.1053L52.829 12.3661H54.5195L55.1834 13.1053H52.1241ZM51.9187 9.7448L52.6579 10.4566V12.1334L51.9187 12.8041V9.7448ZM52.7127 9.99119C52.553 9.86343 52.391 9.73796 52.2267 9.61476L52.7127 9.25203H54.5811L55.0602 9.61476L54.5811 9.99119H52.7127ZM52.1172 6.15165H55.1765L54.499 6.89081H52.8222L52.1172 6.15165ZM55.3819 6.44595V9.50526L54.6427 8.84138V7.15089L55.3819 6.44595ZM57.6185 13.1053L58.3098 12.3661H60.0071L60.671 13.1053H57.6185ZM60.8832 12.8041L60.1509 12.0992V10.4155L60.8832 9.7448V12.8041ZM58.1934 9.99119C58.0383 9.86343 57.8786 9.73796 57.7144 9.61476L58.1934 9.25203H60.0619L60.541 9.61476L60.0619 9.99119H58.1934ZM57.598 6.15165H60.6642L59.9934 6.89081H58.3029L57.598 6.15165ZM60.8626 6.44595V9.50526L60.1303 8.84138V7.15089L60.8626 6.44595Z" fill="#1D202A"/>
<path d="M17.1429 32.0176C16.3135 37.2555 15.2944 39.4554 12.4951 42.0878M25.5348 32.0176C25.1507 38.9377 24.5213 42.4775 22.3071 47.8976M33.5393 32.0176V51.5126M49.9358 32.0176C50.7652 37.2555 51.7843 39.4554 54.5836 42.0878M41.5439 32.0176C41.9279 38.9377 42.5574 42.4775 44.7715 47.8976" stroke="#9B9B9B" stroke-width="0.740741" stroke-linecap="round"/>
</svg>
