<svg width="13" height="20" viewBox="0 0 13 20" fill="none" xmlns="http://www.w3.org/2000/svg">
<path d="M6.49996 2C3.46217 2 1 4.08916 1 6.66666C1 7.59116 1.69745 9.42215 2.9285 12.0227C3.08455 12.3523 3.24775 12.6909 3.41731 13.0371C3.93596 14.096 4.49113 15.1804 5.04631 16.2322C5.24059 16.6002 5.42106 16.938 5.58308 17.2381C5.68049 17.4185 5.75025 17.5466 5.78781 17.6149C6.0696 18.128 6.92918 18.1285 7.21174 17.6157C7.24931 17.5475 7.31907 17.4198 7.41652 17.2399C7.57857 16.9407 7.75904 16.6038 7.95336 16.2367C8.50857 15.1876 9.06386 14.1053 9.58254 13.0479C9.75549 12.6953 9.92178 12.3506 10.0806 12.0151C11.3056 9.42778 12 7.59937 12 6.66662C11.9999 4.08916 9.53775 2 6.49996 2Z" stroke="#727272" stroke-width="1.7"/>
<path d="M6.6336 5.5C5.53695 5.5 4.64844 6.39509 4.64844 7.49986C4.64844 8.60463 5.53695 9.49973 6.6336 9.49973C7.73024 9.49973 8.61875 8.60463 8.61875 7.49986C8.61875 6.39509 7.73024 5.5 6.6336 5.5Z" stroke="#727272" stroke-width="1.5"/>
</svg>