<svg width="320" height="122" viewBox="0 0 320 122" fill="none" xmlns="http://www.w3.org/2000/svg">
    <path d="M101.23 64.2513H152.303V51.3856L101.23 51.3856V64.2513Z" fill="#5CB7A8"/>
    <path d="M100.788 118.173H152.662V58.6087L100.788 58.6087V118.173Z" fill="#85E0D1"/>
    <g opacity="0.73">
    <path d="M102.37 60.4634H151.08V116.319H102.37V60.4634ZM150.57 60.9733H102.88V115.809H150.57V60.9733Z" fill="#5CB7A8"/>
    </g>
    <path opacity="0.57" d="M126.74 105.797C136.119 105.797 143.722 98.1935 143.722 88.8145C143.722 79.4355 136.119 71.8323 126.74 71.8323C117.361 71.8323 109.757 79.4355 109.757 88.8145C109.757 98.1935 117.361 105.797 126.74 105.797Z" fill="#181532"/>
    <path d="M126.74 103.521C134.862 103.521 141.446 96.9364 141.446 88.8144C141.446 80.6924 134.862 74.1082 126.74 74.1082C118.618 74.1082 112.033 80.6924 112.033 88.8144C112.033 96.9364 118.618 103.521 126.74 103.521Z" fill="#85E0D1"/>
    <path opacity="0.58" d="M120.174 80.2706C115.928 83.3164 113.059 88.0059 113.277 93.3663C113.301 93.9358 113.357 94.5104 113.435 95.086C110.865 89.6317 111.832 82.9243 116.34 78.4153C121.422 73.3333 129.297 72.7521 135.022 76.6645C129.851 76.0441 124.406 77.235 120.174 80.2706Z" fill="white"/>
    <path opacity="0.57" d="M116.244 97.8238C125.463 102.481 135.202 96.3565 138.913 87.6245C139.553 86.119 140.004 84.5986 140.284 83.0844C142.545 88.4357 141.499 94.8525 137.139 99.2131C131.396 104.956 122.084 104.956 116.341 99.2131C115.547 98.4193 114.867 97.5546 114.292 96.643C114.906 97.0774 115.554 97.4756 116.244 97.8238Z" fill="#5CB7A8"/>
    <path d="M124.048 93.5488C124.125 93.5488 124.202 93.5141 124.252 93.4479L130.632 85.0039C130.717 84.8913 130.694 84.7317 130.582 84.6465C130.47 84.5624 130.309 84.5843 130.225 84.6965L123.845 93.1399C123.76 93.2526 123.782 93.4122 123.895 93.4973C123.941 93.5315 123.995 93.5488 124.048 93.5488Z" fill="white"/>
    <path d="M123.861 90.3587C123.935 90.3587 124.008 90.3266 124.059 90.2649L127.437 86.1368C127.526 86.0277 127.51 85.8676 127.4 85.7784C127.292 85.6886 127.132 85.7044 127.041 85.8141L123.664 89.9422C123.575 90.0513 123.591 90.2114 123.701 90.3006C123.747 90.3399 123.804 90.3587 123.861 90.3587Z" fill="white"/>
    <path d="M127.801 93.1731C127.884 93.1731 127.964 93.1333 128.014 93.0594L130.641 89.1194C130.719 89.0021 130.687 88.8441 130.57 88.7661C130.453 88.6881 130.295 88.7192 130.217 88.8369L127.59 92.7775C127.512 92.8942 127.543 93.0528 127.66 93.1308C127.704 93.1593 127.753 93.1731 127.801 93.1731Z" fill="white"/>
    <path d="M109.413 63.3649C109.413 63.7274 109.707 64.0216 110.07 64.0216C110.432 64.0216 110.726 63.7274 110.726 63.3649C110.726 63.0024 110.432 62.7083 110.07 62.7083C109.707 62.7083 109.413 63.0024 109.413 63.3649Z" fill="#5CB7A8"/>
    <path d="M106.786 63.3649C106.786 63.7274 107.08 64.0216 107.442 64.0216C107.805 64.0216 108.099 63.7274 108.099 63.3649C108.099 63.0024 107.805 62.7083 107.442 62.7083C107.08 62.7083 106.786 63.0024 106.786 63.3649Z" fill="#5CB7A8"/>
    <path d="M104.159 63.3649C104.159 63.7274 104.453 64.0216 104.816 64.0216C105.179 64.0216 105.472 63.7274 105.472 63.3649C105.472 63.0024 105.178 62.7083 104.816 62.7083C104.453 62.7083 104.159 63.0024 104.159 63.3649Z" fill="#5CB7A8"/>
    <g opacity="0.73">
    <path d="M103.608 54.7986C103.608 53.575 104.604 52.5793 105.828 52.5793C107.051 52.5793 108.047 53.575 108.047 54.7986C108.047 56.0222 107.051 57.0179 105.828 57.0179C104.604 57.0174 103.608 56.0222 103.608 54.7986ZM104.118 54.7986C104.118 55.7413 104.885 56.5081 105.828 56.5081C106.77 56.5081 107.537 55.7413 107.537 54.7986C107.537 53.8559 106.77 53.0891 105.828 53.0891C104.886 53.0891 104.118 53.8559 104.118 54.7986Z" fill="#181532"/>
    </g>
    <g opacity="0.73">
    <path d="M142.687 52.9928H150.02V57.2244H142.687V52.9928ZM149.51 53.5026H143.197V56.7146H149.51V53.5026Z" fill="#181532"/>
    </g>
    <path d="M161.561 76.4835C161.388 75.4409 161.168 74.4019 160.942 73.3628C160.581 69.458 162.243 66.0773 163.976 62.5711C167.547 61.6432 167.525 61.8568 169.775 62.3187C172.992 66.71 174.308 72.3421 175.345 77.6251C176.216 82.0647 176.942 86.2388 176.934 90.4123L161.451 87.7066C162.298 84.0664 162.207 80.3767 161.561 76.4835Z" fill="white"/>
    <path d="M177.777 92.1993C177.777 92.1993 177.549 101.314 166.341 114.597C166.341 114.597 161.769 116.581 160.12 112.362C160.12 112.362 163.249 97.1244 166.226 91.5029C169.203 85.8814 176.598 87.8907 177.777 92.1993Z" fill="#41A393"/>
    <path d="M154.352 91.479C154.352 91.479 157.709 96.2623 155.886 115.286L152.907 115.985C152.907 115.985 146.376 97.7133 148.073 92.9524C149.77 88.191 152.118 88.3868 154.352 91.479Z" fill="#5CB7A8"/>
    <path d="M162.776 109.544C162.776 109.544 167.874 106.688 186.616 110.426L187.01 113.461C187.01 113.461 168.172 118.11 163.607 115.94C159.041 113.769 159.474 111.454 162.776 109.544Z" fill="#41A393"/>
    <path d="M176.43 96.5487C176.43 96.5487 168.11 100.277 151.29 95.8971C151.29 95.8971 147.527 92.6286 150.622 89.3207C150.622 89.3207 165.718 85.5689 172.074 85.8284C178.43 86.0874 179.809 93.6263 176.43 96.5487Z" fill="#5CB7A8"/>
    <path d="M151.464 113.164L151.144 112.257C151.144 112.257 149.704 111.925 149.858 112.728C150.012 113.53 150.163 114.896 150.163 114.896C150.163 114.896 143.096 116.844 143.086 118.287C143.075 119.729 156.064 118.705 156.064 118.705C156.064 118.705 157.214 114.949 156.093 114.941C154.971 114.932 151.94 114.713 151.464 113.164Z" fill="#181532"/>
    <path d="M145.807 118.931C149.73 119.105 155.803 118.586 156.138 118.557L156.094 118.049C155.988 118.058 145.42 118.961 143.182 118.051L142.99 118.523C143.552 118.752 144.573 118.876 145.807 118.931Z" fill="white"/>
    <path d="M149.133 116.856C149.185 116.859 149.239 116.845 149.285 116.814C149.403 116.736 149.435 116.578 149.357 116.46L148.662 115.409C148.585 115.291 148.427 115.259 148.309 115.337C148.191 115.415 148.159 115.573 148.237 115.69L148.932 116.742C148.979 116.813 149.054 116.852 149.133 116.856Z" fill="white"/>
    <path d="M147.632 117.253C147.674 117.255 147.717 117.246 147.757 117.226C147.883 117.163 147.934 117.01 147.872 116.884L147.446 116.031C147.383 115.905 147.23 115.855 147.104 115.916C146.978 115.98 146.927 116.132 146.99 116.258L147.416 117.112C147.458 117.198 147.542 117.249 147.632 117.253Z" fill="white"/>
    <path d="M186.838 115.226L186.405 116.085C186.405 116.085 187.163 117.353 187.635 116.686C188.107 116.019 188.989 114.966 188.989 114.966C188.989 114.966 195.287 118.717 196.335 117.725C197.383 116.735 187.652 108.071 187.652 108.071C187.652 108.071 184.145 109.841 184.916 110.656C185.686 111.471 187.627 113.811 186.838 115.226Z" fill="#181532"/>
    <path d="M194.915 115.315C192.326 112.364 187.746 108.341 187.494 108.119L187.157 108.503C187.237 108.573 195.206 115.574 196.098 117.819L196.572 117.631C196.348 117.067 195.73 116.244 194.915 115.315Z" fill="white"/>
    <path d="M191.116 114.352C191.082 114.313 191.035 114.284 190.98 114.271C190.843 114.24 190.706 114.326 190.675 114.464L190.398 115.693C190.367 115.83 190.452 115.967 190.591 115.998C190.728 116.029 190.864 115.943 190.895 115.806L191.173 114.577C191.192 114.494 191.168 114.411 191.116 114.352Z" fill="white"/>
    <path d="M192.441 115.161C192.414 115.129 192.378 115.104 192.336 115.089C192.203 115.042 192.058 115.11 192.01 115.243L191.688 116.142C191.641 116.274 191.71 116.419 191.842 116.468C191.975 116.515 192.12 116.446 192.168 116.313L192.49 115.415C192.522 115.325 192.501 115.228 192.441 115.161Z" fill="white"/>
    <path d="M155.875 97.161C155.965 97.161 156.044 97.0988 156.062 97.0081C156.084 96.9056 156.018 96.8052 155.915 96.7827C155.878 96.7741 155.11 96.5829 154.876 95.294C154.857 95.191 154.762 95.1227 154.654 95.14C154.55 95.1589 154.481 95.2583 154.5 95.3623C154.784 96.9224 155.794 97.1478 155.837 97.1569C155.85 97.1595 155.863 97.161 155.875 97.161Z" fill="#181532"/>
    <path d="M168.596 109.802C168.653 109.802 168.71 109.776 168.748 109.726C169.171 109.17 170.528 108.874 171.015 108.807C171.12 108.793 171.193 108.696 171.179 108.592C171.165 108.487 171.072 108.413 170.963 108.428C170.885 108.439 169.048 108.699 168.443 109.495C168.38 109.58 168.396 109.699 168.48 109.763C168.515 109.79 168.556 109.802 168.596 109.802Z" fill="#181532"/>
    <path d="M158.075 46.7505C158.339 42.658 161.871 39.5546 165.964 39.8187C170.056 40.0828 173.16 43.615 172.895 47.7074C172.895 47.7074 173.04 59.4816 165.323 59.0839C165.323 59.0839 158.055 59.7778 158.187 48.5548C158.081 47.9715 158.035 47.3684 158.075 46.7505Z" fill="#FFC7A6"/>
    <path d="M159.07 51.0239C159.062 51.3787 159.218 51.6704 159.418 51.675C159.617 51.6796 159.786 51.3951 159.793 51.0402C159.802 50.6849 159.646 50.3937 159.446 50.3892C159.246 50.3846 159.078 50.6685 159.07 51.0239Z" fill="#181532"/>
    <path d="M158.387 51.3531C158.387 51.3531 157.936 53.4272 157.647 53.8126C157.357 54.1986 158.322 54.1185 159.045 53.9579C159.769 53.7973 158.628 51.4337 158.387 51.3531Z" fill="#FFC7A6"/>
    <path d="M160.081 56.4608C160.141 56.5056 160.22 56.524 160.298 56.5041C161.432 56.2119 161.648 55.3233 161.657 55.2856C161.688 55.1489 161.603 55.0113 161.465 54.9802C161.328 54.9491 161.192 55.0337 161.16 55.1698C161.152 55.2009 160.99 55.799 160.17 56.0106C160.034 56.0457 159.952 56.1849 159.987 56.3211C160.003 56.3792 160.037 56.4276 160.081 56.4608Z" fill="#8D4328"/>
    <path d="M160.875 48.9437C160.876 48.8688 160.843 48.7949 160.781 48.7439C159.869 48.0087 159.027 48.3656 158.992 48.3809C158.864 48.4375 158.804 48.5879 158.861 48.7169C158.918 48.8448 159.067 48.9035 159.195 48.8484C159.225 48.8362 159.802 48.6093 160.46 49.1405C160.57 49.2287 160.731 49.2114 160.819 49.1023C160.857 49.0554 160.875 48.9993 160.875 48.9437Z" fill="#8D4328"/>
    <path d="M170.28 56.7728L169.776 62.3193C169.776 62.3193 164.986 63.5802 163.977 62.5717L163.725 55.0083C163.725 55.0083 169.776 52.9914 170.28 56.7728Z" fill="#FFC7A6"/>
    <path opacity="0.26" d="M164.942 62.9271C164.519 62.8771 164.175 62.7685 163.977 62.5712L163.88 59.6616C164.862 59.474 165.715 58.9284 166.475 58.1999C165.922 59.7605 165.431 61.3425 164.942 62.9271Z" fill="#C9614A"/>
    <path d="M177.842 90.9951L176.269 83.5805C176.269 83.5805 165.934 81.3337 165.484 74.8179C165.035 68.3022 166.158 62.9097 166.158 62.9097L163.977 62.5717C163.977 62.5717 163.911 69.8751 161.215 69.6502C161.215 69.6502 160.114 83.5203 161.451 87.7071C161.451 87.7071 177.842 93.0171 177.842 90.9951Z" fill="#5CB7A8"/>
    <path d="M177.842 90.0962L175.37 89.8714V94.8148L176.43 96.5487" stroke="#181532" stroke-miterlimit="10"/>
    <path d="M176.943 86.9506C176.943 86.9506 163.462 89.1975 161.215 86.7258" stroke="#181532" stroke-miterlimit="10"/>
    <path d="M172.074 85.8284L172 89.6471" stroke="#181532" stroke-miterlimit="10"/>
    <path d="M165.709 86.2766V89.8714" stroke="#181532" stroke-miterlimit="10"/>
    <path d="M160.942 73.3628L163.462 73.2446L163.237 79.7608L161.215 80.4348" stroke="#181532" stroke-miterlimit="10"/>
    <path d="M172.093 64.3077C172.093 64.3077 178.139 68.5893 169.568 81.9154C169.568 81.9154 166.298 84.8398 163.693 80.2498C163.693 80.2498 169.679 59.4214 172.093 64.3077Z" fill="#FFC7A6"/>
    <path d="M174.624 74.6522L165.448 72.5961C165.448 72.5961 167.198 64.2505 172.544 63.3889C172.544 63.3889 178.262 65.6184 174.624 74.6522Z" fill="white"/>
    <g opacity="0.56">
    <path d="M173.275 73.4572C173.363 73.4572 173.442 73.3966 173.462 73.3068C173.484 73.2038 173.419 73.1019 173.316 73.0795L165.736 71.4169C165.634 71.396 165.531 71.4597 165.509 71.5627C165.486 71.6662 165.551 71.7676 165.654 71.7906L173.234 73.4532C173.247 73.4557 173.262 73.4572 173.275 73.4572Z" fill="#181532"/>
    </g>
    <path d="M146.145 64.5687V64.5606L146.115 64.3933L146.148 64.3872L146.164 63.6021L146.584 63.5266L146.86 64.2598L148.672 74.3719L147.927 74.5049L146.147 64.5723L146.145 64.5687Z" fill="white"/>
    <path d="M146.639 73.1431C146.603 72.9382 146.74 72.7403 146.945 72.7036L147.489 72.6062C147.62 72.514 147.77 72.4462 147.937 72.4161C148.104 72.386 148.269 72.3977 148.423 72.4385L148.967 72.3411C149.172 72.3044 149.37 72.4421 149.406 72.647C149.439 72.8285 149.331 72.9973 149.165 73.061C149.204 73.1467 149.237 73.2364 149.255 73.3333L150.266 78.9746C150.376 79.5895 149.963 80.1824 149.349 80.2925C148.734 80.4027 148.141 79.9897 148.031 79.3754L147.02 73.734C147.002 73.6371 147.002 73.5413 147.009 73.447C146.832 73.4454 146.671 73.3241 146.639 73.1431Z" fill="#E4587F"/>
    <path d="M151.878 77.2529C151.878 77.2529 152.189 75.7728 151.333 75.5393C150.476 75.3058 147.905 74.4488 147.905 74.4488L146.503 78.6554C146.503 78.6554 150.009 80.2915 150.865 80.447C151.722 80.6025 152.735 77.9539 151.878 77.2529Z" fill="#FFC7A6"/>
    <path d="M167.403 83.3445C167.403 83.3445 163.074 85.7978 151.031 79.3922L151.759 77.0087C151.759 77.0087 165.212 76.5963 166.906 77.3937C168.6 78.1916 171.56 81.6274 167.403 83.3445Z" fill="#FFC7A6"/>
    <path d="M151.878 77.253C151.878 77.253 152.423 74.7604 151.255 74.5263C150.086 74.2928 147.594 74.6044 147.827 75.3054C148.061 76.0064 150.008 75.6949 150.008 75.6949C150.008 75.6949 151.333 77.175 151.878 77.253Z" fill="#FFC7A6"/>
    <g opacity="0.64">
    <path d="M166.052 79.8169C166.063 79.8169 166.075 79.8164 166.086 79.8148C166.225 79.796 166.323 79.668 166.305 79.5278C166.278 79.3259 166.022 77.5379 165.347 77.0551C165.182 76.9378 164.996 76.894 164.812 76.9322C164.674 76.9598 164.585 77.0938 164.612 77.232C164.64 77.3707 164.776 77.4589 164.912 77.4324C164.944 77.4252 164.986 77.4242 165.05 77.4701C165.425 77.7378 165.708 78.916 165.799 79.5956C165.817 79.7241 165.926 79.8169 166.052 79.8169Z" fill="#E4587F"/>
    </g>
    <path d="M168.735 51.3288C168.888 51.2074 169.037 51.0856 169.194 50.9974C169.347 50.8954 169.519 50.8786 169.518 50.9413C169.652 51.1325 169.551 51.4771 169.396 51.7953C169.247 52.117 169.048 52.4275 168.832 52.7181C168.721 52.8613 168.606 53.0025 168.473 53.1132C168.348 53.2299 168.18 53.2932 168.086 53.0775C168.08 53.1693 168.114 53.3018 168.248 53.3436C168.373 53.3819 168.486 53.339 168.584 53.3028C168.778 53.2152 168.942 53.0913 169.089 52.9536C169.385 52.6793 169.62 52.3525 169.8 51.9849C169.882 51.7973 169.958 51.6025 169.983 51.3767C169.993 51.2645 169.994 51.1442 169.956 51.0157C169.918 50.9005 169.87 50.7899 169.755 50.6864C169.639 50.5696 169.428 50.5716 169.326 50.6293C169.21 50.6808 169.129 50.7526 169.057 50.8271C168.918 50.9805 168.811 51.1467 168.735 51.3288Z" fill="#E4587F"/>
    <path d="M173.939 48.5725C173.939 48.5725 174.247 56.1686 176.044 56.6178C177.842 57.0669 181.437 63.3583 172.899 66.2792C172.899 66.2792 165.484 66.504 166.607 61.7855C167.731 57.0669 168.854 54.3709 168.854 54.3709C168.854 54.3709 172.674 50.1021 169.753 49.4275C166.832 48.7535 167.057 52.7981 166.832 54.3709C166.607 55.9438 165.259 55.7189 165.484 53.2472C165.709 50.7755 160.99 46.9559 160.092 46.5067C159.193 46.0575 171.385 43.673 173.939 48.5725Z" fill="#FDCB6A"/>
    <path opacity="0.28" d="M169.174 63.5608C168.322 61.9645 167.787 59.9654 167.632 57.9572C167.314 59.0197 166.961 60.3024 166.608 61.7855C165.747 65.4013 169.897 66.1135 171.885 66.2491C170.812 65.7347 169.86 64.844 169.174 63.5608Z" fill="#41A393"/>
    <path d="M165.888 37.7161C165.888 37.7161 173.431 38.0654 173.654 46.0107C173.686 46.0163 173.706 46.0198 173.706 46.0198C173.706 46.0198 174.183 46.6658 173.939 48.5721L154.886 46.3604C154.886 46.3604 155.836 44.6754 157.963 44.1462C158.667 41.8871 160.62 38.1327 165.888 37.7161Z" fill="#E4587F"/>
    <path opacity="0.26" d="M167.735 44.866C169.939 43.8774 170.81 41.6637 170.602 39.4877C172.176 40.6818 173.561 42.6757 173.654 46.0111C173.686 46.0167 173.706 46.0203 173.706 46.0203C173.706 46.0203 174.183 46.6662 173.939 48.5725L154.886 46.3608C154.886 46.3608 155.447 45.3718 156.666 44.6712C160.373 45.2438 164.458 46.3353 167.735 44.866Z" fill="#C9614A"/>
    <path opacity="0.35" d="M157.864 44.2588C157.855 44.3425 157.887 44.4215 157.945 44.4745C157.982 44.5087 158.03 44.5311 158.084 44.5377L169.222 45.8567C169.238 45.8653 169.251 45.8766 169.269 45.8817C169.316 45.8954 169.362 45.8908 169.405 45.8786L173.533 46.3675C173.671 46.3838 173.796 46.2854 173.812 46.1478C173.828 46.0101 173.729 45.8862 173.592 45.8689L169.661 45.4034C170.898 40.4274 166.088 37.7594 166.038 37.7324C165.948 37.6835 165.837 37.6952 165.757 37.7615C165.568 37.9211 161.204 41.6378 161.847 44.4781L158.144 44.0396C158.006 44.0228 157.881 44.1212 157.864 44.2588ZM169.152 45.3428L162.368 44.5393C162.367 44.5209 162.369 44.5025 162.364 44.4842C161.694 42.1915 165.214 38.9132 165.949 38.2606C166.741 38.7388 170.238 41.1346 169.152 45.3428Z" fill="#181532"/>
    <path d="M54.2301 75.645C53.8417 75.645 53.5113 75.8866 53.3767 76.2277C53.2421 75.8871 52.9117 75.645 52.5232 75.645C52.1347 75.645 51.8043 75.8866 51.6697 76.2277C51.5352 75.8871 51.2048 75.645 50.8163 75.645C50.4278 75.645 50.0974 75.8866 49.9628 76.2277C49.8282 75.8871 49.4978 75.645 49.1093 75.645C48.7208 75.645 48.3905 75.8866 48.2559 76.2277C48.1213 75.8871 47.7909 75.645 47.4024 75.645C47.0139 75.645 46.6835 75.8866 46.5489 76.2277C46.4143 75.8871 46.084 75.645 45.6955 75.645C45.1877 75.645 44.7762 76.0564 44.7762 76.5642C44.7762 77.072 45.1877 77.4834 45.6955 77.4834C46.084 77.4834 46.4143 77.2418 46.5489 76.9007C46.6835 77.2413 47.0139 77.4834 47.4024 77.4834C47.7909 77.4834 48.1213 77.2418 48.2559 76.9007C48.3905 77.2413 48.7208 77.4834 49.1093 77.4834C49.4978 77.4834 49.8282 77.2418 49.9628 76.9007C50.0974 77.2413 50.4278 77.4834 50.8163 77.4834C51.2048 77.4834 51.5352 77.2418 51.6697 76.9007C51.8043 77.2413 52.1347 77.4834 52.5232 77.4834C52.9117 77.4834 53.2421 77.2418 53.3767 76.9007C53.5113 77.2413 53.8417 77.4834 54.2301 77.4834C54.7379 77.4834 55.1494 77.072 55.1494 76.5642C55.1494 76.0569 54.7374 75.645 54.2301 75.645Z" fill="white"/>
    <path d="M84.3289 70.6552C83.8961 70.6552 83.528 70.8969 83.3781 71.2379C83.2282 70.8974 82.8601 70.6552 82.4272 70.6552C81.9944 70.6552 81.6263 70.8969 81.4764 71.2379C81.3265 70.8974 80.9584 70.6552 80.5255 70.6552C80.0927 70.6552 79.7246 70.8969 79.5747 71.2379C79.4248 70.8974 79.0567 70.6552 78.6238 70.6552C78.191 70.6552 77.8229 70.8969 77.673 71.2379C77.5231 70.8974 77.155 70.6552 76.7221 70.6552C76.2893 70.6552 75.9212 70.8969 75.7713 71.2379C75.6214 70.8974 75.2533 70.6552 74.8205 70.6552C74.7955 70.6552 74.772 70.6603 74.7475 70.6618C74.7231 70.6603 74.6996 70.6552 74.6746 70.6552C74.2418 70.6552 73.8737 70.8969 73.7238 71.2379C73.5739 70.8974 73.2058 70.6552 72.7729 70.6552C72.3401 70.6552 71.972 70.8969 71.8221 71.2379C71.6722 70.8974 71.3041 70.6552 70.8713 70.6552C70.4384 70.6552 70.0703 70.8969 69.9204 71.2379C69.7705 70.8974 69.4024 70.6552 68.9696 70.6552C68.5367 70.6552 68.1686 70.8969 68.0187 71.2379C67.8688 70.8974 67.5007 70.6552 67.0679 70.6552C66.635 70.6552 66.2669 70.8969 66.117 71.2379C65.9671 70.8974 65.599 70.6552 65.1662 70.6552C65.1412 70.6552 65.1177 70.6603 65.0933 70.6618C65.0688 70.6603 65.0454 70.6552 65.0204 70.6552C64.5875 70.6552 64.2194 70.8969 64.0695 71.2379C63.9196 70.8974 63.5515 70.6552 63.1187 70.6552C62.6858 70.6552 62.3177 70.8969 62.1678 71.2379C62.0179 70.8974 61.6498 70.6552 61.217 70.6552C60.7841 70.6552 60.416 70.8969 60.2661 71.2379C60.1162 70.8974 59.7481 70.6552 59.3153 70.6552C58.8824 70.6552 58.5143 70.8969 58.3644 71.2379C58.2146 70.8974 57.8465 70.6552 57.4136 70.6552C56.9808 70.6552 56.6127 70.8969 56.4628 71.2379C56.3129 70.8974 55.9448 70.6552 55.5119 70.6552C54.9465 70.6552 54.4882 71.0666 54.4882 71.5744C54.4882 72.0822 54.9465 72.4937 55.5119 72.4937C55.9448 72.4937 56.3129 72.252 56.4628 71.9109C56.6127 72.2515 56.9808 72.4937 57.4136 72.4937C57.8465 72.4937 58.2146 72.252 58.3644 71.9109C58.5143 72.2515 58.8824 72.4937 59.3153 72.4937C59.7481 72.4937 60.1162 72.252 60.2661 71.9109C60.416 72.2515 60.7841 72.4937 61.217 72.4937C61.6498 72.4937 62.0179 72.252 62.1678 71.9109C62.3177 72.2515 62.6858 72.4937 63.1187 72.4937C63.5515 72.4937 63.9196 72.252 64.0695 71.9109C64.2194 72.2515 64.5875 72.4937 65.0204 72.4937C65.0454 72.4937 65.0688 72.4886 65.0933 72.487C65.1177 72.4886 65.1412 72.4937 65.1662 72.4937C65.599 72.4937 65.9671 72.252 66.117 71.9109C66.2669 72.2515 66.635 72.4937 67.0679 72.4937C67.5007 72.4937 67.8688 72.252 68.0187 71.9109C68.1686 72.2515 68.5367 72.4937 68.9696 72.4937C69.4024 72.4937 69.7705 72.252 69.9204 71.9109C70.0703 72.2515 70.4384 72.4937 70.8713 72.4937C71.3041 72.4937 71.6722 72.252 71.8221 71.9109C71.972 72.2515 72.3401 72.4937 72.7729 72.4937C73.2058 72.4937 73.5739 72.252 73.7238 71.9109C73.8737 72.2515 74.2418 72.4937 74.6746 72.4937C74.6996 72.4937 74.7231 72.4886 74.7475 72.487C74.772 72.4886 74.7955 72.4937 74.8205 72.4937C75.2533 72.4937 75.6214 72.252 75.7713 71.9109C75.9212 72.2515 76.2893 72.4937 76.7221 72.4937C77.155 72.4937 77.5231 72.252 77.673 71.9109C77.8229 72.2515 78.191 72.4937 78.6238 72.4937C79.0567 72.4937 79.4248 72.252 79.5747 71.9109C79.7246 72.2515 80.0927 72.4937 80.5255 72.4937C80.9584 72.4937 81.3265 72.252 81.4764 71.9109C81.6263 72.2515 81.9944 72.4937 82.4272 72.4937C82.8601 72.4937 83.2282 72.252 83.3781 71.9109C83.528 72.2515 83.8961 72.4937 84.3289 72.4937C84.8943 72.4937 85.3527 72.0822 85.3527 71.5744C85.3527 71.0666 84.8943 70.6552 84.3289 70.6552Z" fill="white"/>
    <path d="M54.606 71.7473V76.7116H0.762146V117.572H85.1554V79.767V76.7116V71.7473H54.606Z" fill="#85E0D1"/>
    <g opacity="0.34">
    <path d="M76.8093 76.4567V71.9686H76.2995V76.4567H65.5159V71.9686H65.0061V76.4567H54.6059V76.9665H60.0158V81.8176H60.5256V76.9665H71.3092V81.8176H71.819V76.9665H85.2211V76.4567H76.8093Z" fill="#181532"/>
    <path d="M0.651611 82.4819H8.40725V86.4372H0.651611V86.947H14.0542V90.9023H0.651611V91.4122H8.40725V95.367H0.651611V95.8768H3.67953V99.8082H4.18937V95.8768H14.0537V99.8082H14.5635V95.8768H25.3471V99.8082H25.8569V95.8768H37.0346V99.8082H37.5444V95.8768H48.328V99.8082H48.8378V95.8768H60.0155V99.8082H60.5253V95.8768H71.3089V99.8082H71.8187V95.8768H85.2208V95.367H76.5459V91.4122H85.2208V90.9023H71.8187V86.947H85.2208V86.4372H76.5459V82.4819H85.2208V81.972H0.651611V82.4819ZM8.91709 86.4372V82.4819H18.7819V86.4372H14.564V86.4132H14.0542V86.4372H8.91709ZM60.5258 86.4372V86.4132H60.016V86.4372H53.5661V82.4819H64.7437V86.4372H60.5258ZM30.0748 91.4122V95.367H19.2913V91.4122H30.0748ZM37.0351 86.947V90.9023H25.8574V86.947H37.0351ZM48.3285 86.947V90.9023H37.5449V86.947H48.3285ZM30.5846 91.4122H41.7623V95.367H30.5846V91.4122ZM42.2722 91.4122H53.0557V95.367H42.2722V91.4122ZM53.5661 91.4122H64.7437V95.367H53.5661V91.4122ZM48.8383 90.9023V86.947H60.016V90.9023H48.8383ZM53.0562 86.4372H48.8383V86.4132H48.3285V86.4372H42.2722V82.4819H53.0557L53.0562 86.4372ZM41.7623 86.4372H37.5449V86.4132H37.0351V86.4372H30.5852V82.4819H41.7628L41.7623 86.4372ZM30.0748 86.4372H25.8574V86.4132H25.3476V86.4372H19.2913V82.4819H30.0748V86.4372ZM14.5635 86.947H25.3471V90.9023H14.5635V86.947ZM8.91709 91.4122H18.7819V95.367H8.91709V91.4122ZM76.0371 95.367H65.2536V91.4122H76.0371V95.367ZM71.3094 90.9023H60.5258V86.947H71.3094V90.9023ZM76.0371 86.4372H71.8192V86.4132H71.3094V86.4372H65.2531V82.4819H76.0366V86.4372H76.0371Z" fill="#181532"/>
    <path d="M0.651611 100.341H8.40725V104.297H0.651611V104.807H3.67953V108.761H0.651611V109.271H18.7819V113.227H0.651611V113.736H3.67953V117.686H4.18937V113.736H14.0537V117.686H14.5635V113.736H25.3471V117.686H25.8569V113.736H37.0346V117.686H37.5444V113.736H48.328V117.686H48.8378V113.736H60.0155V117.686H60.5253V113.736H71.3089V117.686H71.8187V113.736H85.2208V113.227H76.5459V109.271H85.2208V108.761H71.8187V104.807H85.2208V104.297H76.5459V100.341H85.2208V99.8316H0.651611V100.341ZM8.91709 100.341H18.7819V104.297H8.91709V100.341ZM53.5661 104.297V100.341H64.7437V104.297H53.5661ZM25.3476 104.807V108.761H14.5635V104.807H25.3476ZM25.8574 104.807H37.0351V108.761H25.8574V104.807ZM48.3285 104.807V108.761H37.5449V104.807H48.3285ZM41.7623 109.271V113.227H30.5846V109.271H41.7623ZM42.2722 109.271H53.0557V113.227H42.2722V109.271ZM53.5661 109.271H64.7437V113.227H53.5661V109.271ZM48.8383 108.761V104.807H60.016V108.761H48.8383ZM53.0562 104.297H42.2722V100.341H53.0557L53.0562 104.297ZM41.7623 104.297H30.5846V100.341H41.7623V104.297ZM30.0748 104.297H19.2913V100.341H30.0748V104.297ZM4.18937 104.807H14.0537V108.761H4.18937V104.807ZM19.2913 109.271H30.0748V113.227H19.2913V109.271ZM76.0371 113.227H65.2536V109.271H76.0371V113.227ZM71.3094 108.761H60.5258V104.807H71.3094V108.761ZM76.0371 104.297H65.2536V100.341H76.0371V104.297Z" fill="#181532"/>
    <path d="M37.545 76.6957H37.0352V81.817H37.545V76.6957Z" fill="#181532"/>
    <path d="M48.8381 76.6957H48.3282V81.817H48.8381V76.6957Z" fill="#181532"/>
    <path d="M14.5635 76.6957H14.0537V81.817H14.5635V76.6957Z" fill="#181532"/>
    <path d="M25.8574 76.6957H25.3476V81.817H25.8574V76.6957Z" fill="#181532"/>
    <path d="M4.18934 76.6957H3.6795V81.817H4.18934V76.6957Z" fill="#181532"/>
    </g>
    <path d="M43.2426 40.6259C43.2426 40.6259 38.341 43.895 46.3679 57.5555C46.3679 57.5555 49.3101 60.7303 51.27 56.7321C51.27 56.7321 45.0239 36.3244 43.2426 40.6259Z" fill="#C9614A"/>
    <path d="M43.6423 39.6562C43.6423 39.6562 47.8444 40.3414 49.0165 47.3297L43.7315 53.4177C43.7315 53.4177 36.7952 41.8271 43.6423 39.6562Z" fill="white"/>
    <g opacity="0.58">
    <path d="M43.5354 52.8609C43.5889 52.8599 43.6419 52.8365 43.6791 52.7921L48.9605 46.4543C49.0283 46.3733 49.0171 46.2524 48.9361 46.1851C48.8555 46.1173 48.7347 46.1285 48.6669 46.2096L43.3855 52.5474C43.3176 52.6285 43.3289 52.7493 43.4099 52.8166C43.4466 52.8472 43.491 52.8615 43.5354 52.8609Z" fill="#181532"/>
    </g>
    <path d="M25.8778 40.4994C25.8778 40.4994 30.8737 43.6222 23.2547 57.5142C23.2547 57.5142 20.4072 60.7746 18.3301 56.8361C18.3301 56.8361 23.97 36.252 25.8778 40.4994Z" fill="#C9614A"/>
    <path d="M16.3632 93.6577L22.4706 83.8958L22.286 83.856C22.3982 83.7969 22.4685 83.7265 22.4869 83.6424C22.6521 82.8772 18.6417 81.3614 13.5291 80.2566C8.41641 79.1523 4.13785 78.877 3.97267 79.6427C3.95431 79.7264 3.98949 79.8197 4.0675 79.9201L3.88293 79.8803L6.51114 92.0262L6.88944 92.1078C7.60424 92.6405 9.2403 93.2559 11.2032 93.6801C13.1666 94.1043 14.9107 94.219 15.7815 94.0288L16.0905 94.0956L16.2557 93.832C16.3112 93.7841 16.3515 93.7321 16.3648 93.6724C16.3643 93.6673 16.3622 93.6623 16.3632 93.6577Z" fill="#019078"/>
    <path opacity="0.35" d="M18.6064 90.0719C16.7414 90.3992 14.7459 90.2998 13.0298 89.9668C10.7177 89.5187 8.35054 88.5587 6.67675 86.8589C5.90791 86.0783 5.33333 85.1708 4.82196 84.222L6.51054 92.0255L6.88884 92.1071C7.60363 92.6399 9.2397 93.2553 11.2026 93.6795C13.166 94.1037 14.9101 94.2184 15.7809 94.0282L16.0899 94.095L16.2551 93.8314C16.3106 93.7835 16.3509 93.7315 16.3642 93.6718C16.3652 93.6672 16.3631 93.6621 16.3642 93.6575L18.6064 90.0719Z" fill="#019078"/>
    <path d="M21.4874 83.7978C21.3839 84.277 17.6228 83.8707 13.0868 82.8908C8.55079 81.9109 4.95746 80.7281 5.06096 80.2493C5.16445 79.7701 8.92552 80.1764 13.4615 81.1563C17.9976 82.1362 21.5909 83.3186 21.4874 83.7978Z" fill="white"/>
    <path d="M21.8684 86.1207L21.2699 85.9259C22.4109 82.4137 22.3002 79.5275 20.9415 77.3484C18.9797 74.2022 15.0402 73.6062 14.9984 73.6011C12.1081 73.0158 9.77406 73.4196 8.04316 74.7992C4.92806 77.2821 4.77256 82.1485 4.77103 82.1975L4.14087 82.1822C4.14597 81.9711 4.30198 76.9783 7.64753 74.3093C9.53086 72.8058 12.0398 72.3592 15.1054 72.9807C15.2594 73.0031 19.359 73.6225 21.4753 77.015C22.9375 79.3592 23.0701 82.4233 21.8684 86.1207Z" fill="#019078"/>
    <path d="M5.56319 82.9067L3.93375 82.5549C3.70075 82.5044 3.55138 82.273 3.60185 82.04C3.65232 81.807 3.88379 81.6576 4.11678 81.7081L5.74622 82.0598C5.97922 82.1103 6.1286 82.3418 6.07812 82.5748C6.02816 82.8078 5.79619 82.9572 5.56319 82.9067Z" fill="#019078"/>
    <path d="M22.0527 86.4688L20.4233 86.1165C20.1903 86.0661 20.0409 85.8346 20.0909 85.6016C20.1413 85.3686 20.3728 85.2192 20.6058 85.2697L22.2352 85.6215C22.4682 85.672 22.6176 85.9034 22.5677 86.1364C22.5177 86.3699 22.2857 86.5193 22.0527 86.4688Z" fill="#019078"/>
    <path d="M13.958 82.8689L13.0286 87.1714C12.947 87.5482 13.1887 87.9229 13.5655 88.004C13.9422 88.0855 14.3164 87.8439 14.398 87.4671L14.5173 86.9155C14.6132 87.0276 14.7432 87.1118 14.8977 87.1454C15.0521 87.1785 15.2051 87.1556 15.3392 87.0929L15.1607 87.9188C15.0792 88.2956 15.3208 88.6698 15.6976 88.7514C16.0744 88.833 16.4486 88.5913 16.5302 88.2145L16.809 86.9236C16.885 86.9787 16.9727 87.02 17.0701 87.0414C17.4468 87.123 17.8216 86.8813 17.9026 86.5045L18.4772 83.8452L13.958 82.8689Z" fill="white"/>
    <path d="M26.8465 62.6508L24.9295 39.6893C24.9295 39.6893 32.0259 38.1251 43.1847 39.5705L45.1221 40.1696L43.25 63.2382C43.25 63.2382 32.5765 67.0563 26.8465 62.6508Z" fill="white"/>
    <path d="M22.571 57.4734C22.571 57.4734 23.7064 61.9493 16.2398 73.6541L13.449 72.5891C13.449 72.5891 16.7293 59.2869 17.6964 57.6345C18.6641 55.9821 21.9938 53.2102 22.571 57.4734Z" fill="#C9614A"/>
    <path d="M46.8813 56.469C46.8813 56.469 46.1058 51.9167 54.4804 40.8436L57.1775 42.1273C57.1775 42.1273 52.8484 55.1261 51.7528 56.6959C50.6566 58.2662 47.1168 60.7644 46.8813 56.469Z" fill="#C9614A"/>
    <path d="M14.7351 70.8465C14.7351 70.8465 17.6692 70.2765 17.8012 71.9304C17.9328 73.5843 20.5972 74.8217 19.5352 74.7834C18.4732 74.7452 16.7841 73.7332 16.7841 73.7332C16.7841 73.7332 17.4209 75.849 16.5068 75.8796C15.5926 75.9102 12.2399 73.4426 12.2399 73.4426C12.2399 73.4426 13.7674 70.2821 14.7351 70.8465Z" fill="#C9614A"/>
    <path opacity="0.21" d="M19.3725 57.0757C18.8969 57.8298 18.9621 58.7256 19.5178 59.0758C20.0736 59.4261 20.9097 59.0988 21.3849 58.3442C21.8605 57.5902 21.7953 56.6944 21.2396 56.3441C20.6838 55.9939 19.8482 56.3212 19.3725 57.0757Z" fill="#019078"/>
    <path d="M36.9868 92.6471C36.9868 92.6471 32.621 77.3683 32.5629 70.8021C32.5048 64.2354 39.7358 62.2659 42.7291 65.5334C42.7291 65.5334 46.742 73.8336 43.3205 91.48C43.3205 91.48 46.4815 96.1461 43.891 114.145L40.886 114.699C40.886 114.699 35.0983 97.1056 36.9868 92.6471Z" fill="#5CB7A8"/>
    <path d="M45.0432 112.408L45.4358 111.53C45.4358 111.53 46.898 111.317 46.6787 112.105C46.46 112.892 46.199 114.241 46.199 114.241C46.199 114.241 53.0843 116.756 52.9778 118.195C52.8712 119.633 40.0085 117.557 40.0085 117.557C40.0085 117.557 39.1668 113.721 40.2854 113.803C41.404 113.886 44.4441 113.913 45.0432 112.408Z" fill="#181532"/>
    <path d="M50.213 118.615C46.2893 118.471 40.2783 117.46 39.9469 117.404L40.032 116.901C40.1371 116.919 50.5974 118.677 52.9013 117.951L53.0548 118.437C52.4756 118.62 51.4473 118.661 50.213 118.615Z" fill="white"/>
    <path d="M47.0668 116.278C47.0148 116.275 46.9633 116.258 46.9189 116.223C46.8078 116.137 46.7889 115.977 46.8756 115.866L47.6536 114.874C47.7403 114.764 47.9003 114.744 48.0115 114.831C48.1226 114.918 48.1415 115.078 48.0548 115.189L47.2768 116.18C47.2243 116.247 47.1458 116.28 47.0668 116.278Z" fill="white"/>
    <path d="M48.5311 116.794C48.4893 116.793 48.447 116.781 48.4088 116.758C48.2879 116.685 48.2497 116.529 48.3226 116.408L48.8161 115.592C48.889 115.472 49.0455 115.434 49.1659 115.506C49.2867 115.579 49.3249 115.735 49.252 115.856L48.7585 116.672C48.709 116.754 48.6208 116.798 48.5311 116.794Z" fill="white"/>
    <path d="M31.0149 30.8421L31.9601 39.8719C31.9601 39.8719 35.5978 41.7572 38.638 39.4533L38.2158 32.5644C38.2158 32.5644 31.3743 29.4192 31.0149 30.8421Z" fill="#C9614A"/>
    <path opacity="0.21" d="M34.054 30.9512C34.1963 34.2381 34.779 37.4455 35.8033 40.558C36.7179 40.4596 37.6948 40.1481 38.6165 39.4471L38.1837 32.5587C38.1837 32.5587 36.0143 31.5655 34.054 30.9512Z" fill="#019078"/>
    <path d="M45.4667 25.1875C45.6304 21.0899 42.4413 17.6348 38.3438 17.4711C34.2462 17.3075 30.7911 20.4965 30.6274 24.594C30.6274 24.594 29.2559 36.2892 36.9723 36.6981C36.9723 36.6981 44.1289 38.1455 45.1679 26.9704C45.3336 26.4014 45.4417 25.8064 45.4667 25.1875Z" fill="#C9614A"/>
    <path d="M39.1356 27.7265C39.08 28.0773 39.1947 28.3873 39.392 28.4184C39.5893 28.4495 39.7943 28.1905 39.8499 27.8397C39.9054 27.4889 39.7907 27.179 39.5934 27.1479C39.3961 27.1168 39.1912 27.3758 39.1356 27.7265Z" fill="#181532"/>
    <path d="M43.5157 28.5478C43.4662 28.8996 43.5866 29.2071 43.7849 29.2351C43.9827 29.2626 44.1831 29.0001 44.2325 28.6483C44.282 28.2965 44.1616 27.9891 43.9633 27.961C43.7655 27.9335 43.5651 28.1961 43.5157 28.5478Z" fill="#181532"/>
    <path d="M40.2659 25.1819C40.2348 25.1136 40.1747 25.0595 40.0967 25.0397C38.9623 24.7496 38.3449 25.4241 38.3189 25.4531C38.2256 25.5582 38.2342 25.7193 38.3398 25.8131C38.4443 25.9064 38.6044 25.8977 38.6982 25.7942C38.7201 25.7708 39.1509 25.3247 39.9702 25.5342C40.1069 25.5689 40.2455 25.4868 40.2807 25.3501C40.2955 25.2915 40.2889 25.2329 40.2659 25.1819Z" fill="#181532"/>
    <path d="M44.9743 26.3611C44.9829 26.2867 44.9666 26.2102 44.9253 26.1547C44.3202 25.3471 43.6436 25.63 43.615 25.6428C43.5116 25.6882 43.4499 25.8324 43.4779 25.9655C43.5059 26.0975 43.612 26.1684 43.7155 26.1246C43.7394 26.1149 44.2008 25.9385 44.6383 26.5222C44.7112 26.6191 44.8341 26.6155 44.9136 26.5146C44.9478 26.4708 44.9676 26.4162 44.9743 26.3611Z" fill="#181532"/>
    <path d="M42.2764 32.727L39.6691 32.2009C39.6691 32.2009 41.0202 35.0432 42.2764 32.727Z" fill="#181532"/>
    <path d="M41.2195 31.019C41.6467 30.9007 42.1193 30.8038 42.413 30.6024C42.4829 30.5469 42.4859 30.5117 42.4824 30.4862C42.4818 30.4041 42.4722 30.3062 42.4569 30.2032C42.4258 29.9957 42.3916 29.7821 42.3457 29.5675C42.2703 29.1361 42.1861 28.7007 42.1352 28.2562C42.1061 28.0349 42.0893 27.8096 42.0786 27.5837C42.0837 27.3599 42.0551 27.1167 42.1586 26.902C42.2183 27.3374 42.4145 27.7463 42.5247 28.1756C42.6542 28.6008 42.7602 29.0332 42.8469 29.4757C42.8836 29.698 42.9188 29.9233 42.9361 30.1573C42.9407 30.2756 42.9422 30.3995 42.9249 30.5397C42.9004 30.7437 42.7424 30.8854 42.6205 30.9405C42.3681 31.0664 42.1341 31.0761 41.9027 31.0878C41.6707 31.0873 41.4433 31.071 41.2195 31.019Z" fill="#181532"/>
    <path d="M32.9166 28.0456C32.8253 27.8723 32.7387 27.701 32.6311 27.5567C32.5322 27.4017 32.3823 27.3166 32.3573 27.3742C32.1575 27.495 32.1105 27.8509 32.1233 28.2047C32.1289 28.5585 32.1855 28.9236 32.265 29.2769C32.3084 29.4523 32.3568 29.6287 32.4333 29.7837C32.5006 29.9412 32.6285 30.0666 32.8019 29.9076C32.7703 29.9937 32.6856 30.1013 32.5465 30.0855C32.4164 30.0697 32.3308 29.9851 32.2559 29.9121C32.1136 29.7531 32.0137 29.5736 31.9352 29.3885C31.7756 29.0179 31.6925 28.6238 31.6772 28.2154C31.6782 28.0105 31.6874 27.8014 31.7562 27.5853C31.7924 27.4787 31.8398 27.3681 31.927 27.2661C32.0086 27.1764 32.0973 27.0943 32.2446 27.0464C32.3981 26.9867 32.5893 27.0734 32.6596 27.1677C32.7453 27.262 32.7897 27.3604 32.8253 27.4573C32.8901 27.6531 32.9202 27.8483 32.9166 28.0456Z" fill="#181532"/>
    <path d="M23.2505 114.125C23.2505 114.125 17.1876 120.273 20.0982 121.004C23.0089 121.735 28.8888 121.284 28.8888 121.284L26.4248 114.227L23.2505 114.125Z" fill="#181532"/>
    <path d="M19.4232 120.538C19.5414 120.755 19.7561 120.918 20.0987 121.004C23.0093 121.734 28.8893 121.283 28.8893 121.283L28.8266 121.103L19.4232 120.538Z" fill="white"/>
    <path d="M25.0762 116.986C25.1119 116.948 25.1358 116.899 25.1424 116.843C25.1598 116.704 25.0604 116.577 24.9207 116.559L23.67 116.405C23.5303 116.388 23.4034 116.487 23.3861 116.627C23.3687 116.767 23.4681 116.894 23.6078 116.911L24.8585 117.065C24.9426 117.076 25.0221 117.044 25.0762 116.986Z" fill="white"/>
    <path d="M24.9875 118.465C25.0232 118.427 25.0472 118.378 25.0538 118.322C25.0712 118.182 24.9717 118.055 24.832 118.038L23.5814 117.884C23.4417 117.867 23.3148 117.966 23.2974 118.106C23.2801 118.245 23.3795 118.372 23.5192 118.39L24.7698 118.544C24.854 118.554 24.9335 118.522 24.9875 118.465Z" fill="white"/>
    <path d="M29.9641 93.99C29.9641 93.99 34.3783 78.7107 34.4573 72.144C34.5358 65.5773 27.3114 63.6089 24.308 66.8769C24.308 66.8769 20.2685 75.1781 23.6345 92.8235C23.6345 92.8235 19.8867 96.9053 22.42 114.904L26.8296 115.284C26.8296 115.284 31.8383 98.4486 29.9641 93.99Z" fill="#5CB7A8"/>
    <path d="M43.3202 62.4321L43.7745 68.7439L34.9972 71.6775L33.28 71.6622L23.5579 69.2364C23.4157 67.4326 25.3704 62.3995 25.3704 62.3995L43.3202 62.4321Z" fill="#5CB7A8"/>
    <path d="M30.4666 23.5224C30.4666 23.5224 29.3251 29.903 30.8974 32.5154L30.9881 34.2127L31.8406 34.0827C31.8406 34.0827 29.9878 26.5478 32.0231 26.4723C34.0584 26.3974 33.9177 29.4381 33.9177 29.4381C33.9177 29.4381 34.7309 30.1528 34.7936 28.8013C34.8558 27.4497 36.5953 22.7898 36.5953 22.7898C36.5953 22.7898 30.929 20.8351 30.4666 23.5224Z" fill="#181532"/>
    <path d="M39.1196 13.9374C39.1196 13.9374 31.6005 13.2419 30.2826 21.0807C30.2505 21.0822 30.2301 21.0827 30.2301 21.0827C30.2301 21.0827 29.6688 21.6568 29.6469 23.5784L48.8228 24.0184C48.8228 24.0184 48.1147 22.2181 46.0804 21.4009C45.696 19.0653 44.2792 15.0768 39.1196 13.9374Z" fill="#FDCB6A"/>
    <path opacity="0.26" d="M36.3038 20.7636C34.2568 19.4799 33.7001 17.1678 34.2058 15.0407C32.4821 16.0063 30.8358 17.7897 30.2826 21.0802C30.2505 21.0818 30.2301 21.0823 30.2301 21.0823C30.2301 21.0823 29.6688 21.6564 29.6469 23.5779L48.8228 24.0179C48.8228 24.0179 48.4037 22.961 47.2933 22.0989C43.5419 22.1545 39.346 22.6714 36.3038 20.7636Z" fill="#C9614A"/>
    <path opacity="0.35" d="M45.9172 21.2689L42.1888 21.1919C43.2182 18.4678 39.4087 14.1842 39.243 14.0001C39.1741 13.9236 39.065 13.8966 38.9687 13.9328C38.9157 13.9527 33.7841 15.9309 34.322 21.0303L30.3636 20.9487C30.2255 20.9466 30.1108 21.0557 30.1077 21.1944C30.1052 21.3331 30.2153 21.4478 30.354 21.4509L34.5096 21.5365C34.5509 21.5544 34.5958 21.5656 34.6442 21.5584C34.6626 21.5559 34.6779 21.5467 34.6942 21.5401L45.9076 21.7711C45.9621 21.7721 46.0126 21.7558 46.0539 21.7272C46.1186 21.6829 46.162 21.6094 46.1635 21.5248C46.1655 21.3866 46.0559 21.2719 45.9172 21.2689ZM38.9845 14.4681C39.6218 15.2161 42.6563 18.9486 41.6764 21.1271C41.6683 21.145 41.6678 21.1628 41.6642 21.1812L34.8344 21.0405C34.3394 16.7226 38.1336 14.8327 38.9845 14.4681Z" fill="#181532"/>
    <path d="M25.4281 39.5568C25.4281 39.5568 21.2495 40.3725 20.295 47.394L25.7671 53.3142C25.7671 53.3142 32.3399 41.5135 25.4281 39.5568Z" fill="white"/>
    <path d="M25.3566 62.3846C25.3566 62.3846 26.6582 45.1481 26.4063 39.2319C26.4063 39.2319 29.1003 38.3484 29.4455 38.8511C29.7906 39.3538 29.9186 48.4855 31.1096 48.9759C32.3005 49.4669 40.2509 49.5245 40.5818 49.0126C40.9127 48.5008 40.7802 39.0305 40.7802 39.0305C40.7802 39.0305 42.6426 39.1738 43.157 39.674C43.6714 40.1741 43.1642 61.394 43.4808 62.998C43.7979 64.6024 30.0501 72.9408 25.3566 62.3846Z" fill="#5CB7A8"/>
    <g opacity="0.53">
    <path d="M36.5965 59.6382C38.9907 59.601 40.9163 58.1719 40.8898 56.4527L40.7986 50.6059L32.1155 50.741L32.2068 56.5878C32.2333 58.307 34.2028 59.6754 36.5965 59.6382ZM32.633 51.2427L40.2964 51.1234L40.3795 56.4609C40.4019 57.8991 38.7011 59.0957 36.5878 59.1288C34.4751 59.1615 32.7381 58.0184 32.7156 56.5802L32.633 51.2427Z" fill="#181532"/>
    <path d="M35.9963 74.3827L34.5198 74.5535L34.5785 75.0603L36.4791 74.8405L36.8967 68.0245L36.3879 67.9929L35.9963 74.3827Z" fill="#181532"/>
    <path d="M30.3451 76.5445L30.01 76.9287L33.4391 79.9196L33.7742 79.5354L30.3451 76.5445Z" fill="#181532"/>
    <path d="M43.2795 91.2231L40.6953 91.7072L40.7892 92.2088L43.3735 91.7247L43.2795 91.2231Z" fill="#181532"/>
    <path d="M40.4802 103.391L39.9974 103.555C40.0647 103.753 41.6677 108.416 43.8309 108.743L43.9069 108.238C42.3656 108.006 40.9105 104.66 40.4802 103.391Z" fill="#181532"/>
    <path d="M24.6956 92.8067L24.6718 93.316L27.3801 93.4426L27.4039 92.9333L24.6956 92.8067Z" fill="#181532"/>
    <path d="M23.3642 105.747L23.0231 106.127C23.0409 106.143 24.3053 107.257 25.8552 107.233C26.5206 107.223 27.2379 107.004 27.9323 106.397L27.5973 106.012C25.6263 107.734 23.4564 105.829 23.3642 105.747Z" fill="#181532"/>
    <path d="M40.464 69.1334L40.9738 69.1253L40.9554 67.9496C42.2005 67.8696 43.1753 67.7146 43.6826 67.451L43.4475 66.9988C42.9907 67.2363 42.0985 67.3771 40.9478 67.4505L40.9396 66.9274L40.4298 66.9355L40.4385 67.4775C38.0652 67.5825 34.7925 67.4438 31.811 67.2486L31.8003 66.5623L31.2905 66.5705L31.3007 67.2149C29.7222 67.1068 28.2503 66.9865 27.0695 66.8825L27.0578 66.129L26.548 66.1371L26.5587 66.8371C25.2285 66.7168 24.371 66.6281 24.3337 66.624L24.2802 67.1313C24.4265 67.1466 25.2856 67.2358 26.5663 67.3521L26.5842 68.5043L27.094 68.4961L27.0767 67.3974C28.2625 67.5025 29.7314 67.6223 31.3078 67.7293L31.3241 68.7684L31.834 68.7602L31.8181 67.763C34.3352 67.9262 37.0659 68.048 39.3097 68.0128C39.7063 68.0067 40.0826 67.994 40.4451 67.9771L40.464 69.1334Z" fill="#181532"/>
    </g>
    <g opacity="0.58">
    <path d="M25.9459 52.7519C25.8924 52.7529 25.8384 52.731 25.8001 52.6876L20.324 46.5171C20.2536 46.438 20.2613 46.3172 20.3398 46.2474C20.4183 46.177 20.5391 46.1847 20.6095 46.2632L26.0856 52.4337C26.156 52.5128 26.1483 52.6336 26.0698 52.7034C26.0347 52.735 25.9903 52.7508 25.9459 52.7519Z" fill="#181532"/>
    </g>
    <path d="M48.3762 53.1999C48.2885 53.2015 48.2085 53.1418 48.1871 53.0531C47.819 51.5129 48.755 49.3165 48.7948 49.2237C48.8366 49.1263 48.9498 49.0825 49.0456 49.1238C49.143 49.1656 49.1874 49.2778 49.1456 49.3751C49.1364 49.3965 48.2207 51.5481 48.5593 52.9639C48.5837 53.0664 48.52 53.1698 48.4175 53.1943C48.4038 53.1979 48.39 53.1994 48.3762 53.1999Z" fill="#181532"/>
    <path d="M57.1599 42.0916C57.1599 42.0916 57.9609 41.1464 58.2505 39.4848C58.54 37.8233 54.7545 37.9609 54.7545 37.9609C54.7545 37.9609 53.6859 40.2659 54.1748 41.284C54.1748 41.284 56.3534 42.6427 57.1599 42.0916Z" fill="#C9614A"/>
    <path d="M57.0955 35.2348C57.1017 34.9728 56.9553 34.7525 56.7693 34.7454L56.2762 34.727C56.1488 34.6368 56.0076 34.5807 55.8556 34.5751C55.7042 34.5695 55.5599 34.6149 55.4284 34.6954L54.9354 34.6771C54.7498 34.6699 54.5922 34.879 54.5861 35.141C54.5805 35.373 54.6973 35.5632 54.8523 35.6106C54.8283 35.7248 54.8105 35.8426 54.8074 35.967L54.6325 43.1832C54.6137 43.9694 55.0536 44.6301 55.6109 44.651C56.1682 44.6719 56.6398 44.0458 56.6586 43.2597L56.8335 36.0434C56.8366 35.9195 56.8243 35.8002 56.806 35.6845C56.9645 35.6478 57.0899 35.4668 57.0955 35.2348Z" fill="#181532"/>
    <path d="M54.0396 25.0504L50.922 33.7701C50.5192 34.8963 51.3655 36.0781 52.5616 36.0598L59.0666 35.9583C60.2627 35.9395 61.0718 34.7322 60.6344 33.6187L57.247 25.0004C56.6678 23.528 54.5724 23.5606 54.0396 25.0504Z" fill="#85E0D1"/>
    <path d="M57.9902 37.9717L56.1129 38.0007C55.8917 38.0043 55.7076 37.8259 55.7041 37.6046L55.702 37.4628C55.6984 37.2416 55.8769 37.0575 56.0982 37.054L57.9754 37.0249C58.1966 37.0213 58.3807 37.1998 58.3843 37.421L58.3863 37.5628C58.3899 37.784 58.2114 37.9681 57.9902 37.9717Z" fill="#C9614A"/>
    <path d="M58.0066 39.0152L56.1294 39.0443C55.9082 39.0479 55.7241 38.8694 55.7205 38.6482L55.7185 38.5064C55.7149 38.2852 55.8934 38.1011 56.1146 38.0975L57.9919 38.0685C58.2131 38.0649 58.3972 38.2434 58.4008 38.4646L58.4028 38.6064C58.4064 38.8276 58.2279 39.0117 58.0066 39.0152Z" fill="#C9614A"/>
    <path d="M58.0239 40.138L56.1466 40.167C55.9254 40.1706 55.7413 39.9922 55.7377 39.7709L55.7357 39.6292C55.7321 39.4079 55.9106 39.2238 56.1318 39.2203L58.0091 39.1912C58.2303 39.1876 58.4144 39.3661 58.418 39.5874L58.42 39.7286C58.4236 39.9509 58.2451 40.1344 58.0239 40.138Z" fill="#C9614A"/>
    <path d="M54.1751 41.2846C54.1751 41.2846 53.5144 39.4008 54.1221 37.8921C54.1221 37.8921 54.3352 36.3897 54.737 36.8567C55.1392 37.3242 55.0439 41.3499 54.1751 41.2846Z" fill="#C9614A"/>
    <path d="M256.129 12.652L243.578 5.44085C242.637 4.89991 242.309 3.68752 242.85 2.74585C243.391 1.80469 244.603 1.47686 245.545 2.0178L258.096 9.22894C259.037 9.76988 259.365 10.9823 258.824 11.9239C258.282 12.8656 257.07 13.1929 256.129 12.652Z" fill="#85E0D1"/>
    <path d="M260.461 9.2601L244.345 0L243.279 1.85408L259.396 11.1142L260.461 9.2601Z" fill="#5CB7A8"/>
    <path d="M243.379 20.3134C242.869 20.0202 242.692 19.3635 242.984 18.8537L249.54 7.44407C249.834 6.93424 250.49 6.75681 251 7.04997C251.51 7.34313 251.687 7.99979 251.394 8.50963L244.839 19.9193C244.546 20.4291 243.889 20.6065 243.379 20.3134Z" fill="#85E0D1"/>
    <path d="M209.236 38.7144C209.236 38.7144 214.237 41.8295 206.64 55.7332C206.64 55.7332 203.798 58.9977 201.714 55.0628C201.714 55.0628 207.322 34.4705 209.236 38.7144Z" fill="#FFC7A6"/>
    <path d="M205.957 55.6935C205.957 55.6935 207.099 60.1678 199.651 71.8844L196.859 70.8239C196.859 70.8239 200.118 57.5166 201.083 55.8627C202.047 54.2088 205.373 51.4312 205.957 55.6935Z" fill="#FFC7A6"/>
    <path opacity="0.26" d="M202.752 55.2769C202.276 56.031 202.342 56.9268 202.897 57.277C203.453 57.6273 204.289 57.3 204.764 56.5454C205.24 55.7913 205.175 54.8956 204.619 54.5453C204.063 54.195 203.228 54.5224 202.752 55.2769Z" fill="#C9614A"/>
    <path d="M208.807 37.7579C208.807 37.7579 204.629 38.5736 203.674 45.5951L209.146 51.5153C209.146 51.5153 215.719 39.7146 208.807 37.7579Z" fill="white"/>
    <g opacity="0.58">
    <path d="M209.325 50.953C209.272 50.954 209.218 50.9321 209.179 50.8887L203.703 44.7182C203.633 44.6392 203.641 44.5183 203.719 44.4485C203.798 44.3781 203.918 44.3858 203.989 44.4643L209.465 50.6348C209.535 50.7139 209.528 50.8347 209.449 50.9045C209.414 50.9362 209.37 50.952 209.325 50.953Z" fill="#181532"/>
    </g>
    <path d="M195.488 74.2184C195.426 74.408 195.588 74.5518 195.588 74.5518C195.948 74.8547 196.877 73.0014 197.005 72.7419C197.041 72.7725 197.079 72.8026 197.119 72.8332C196.695 73.6785 195.891 75.2896 195.829 75.4807C195.746 75.7418 195.939 75.8952 195.939 75.8952C196.365 76.2103 197.551 73.6688 197.743 73.2487C197.815 73.2915 197.887 73.3338 197.96 73.3751C197.565 74.3127 196.713 76.3408 196.653 76.5677C196.574 76.8639 196.779 77.0016 196.779 77.0016C197.268 77.306 198.589 73.7917 198.589 73.7917C198.598 73.7677 198.605 73.7447 198.612 73.7218C198.695 73.7631 198.775 73.8024 198.85 73.8391C198.577 74.7226 198.018 76.5417 197.988 76.7462C197.948 77.0179 198.164 77.1347 198.164 77.1347C198.678 77.3906 199.527 74.1491 199.527 74.1491L200.57 72.49C200.717 72.5487 200.84 72.7322 200.88 73.1482C200.957 73.9553 201.113 73.9767 201.113 73.9767C201.845 74.0262 201.588 72.6879 201.579 71.479C201.572 70.5725 201.102 69.8878 200.867 69.6018C200.796 69.4988 200.737 69.4555 200.737 69.4555L200.749 69.3015C200.195 68.913 199.538 68.6433 198.858 68.7203C198.484 68.7631 198.156 68.912 197.87 69.1292L196.571 72.1826C196.289 72.6965 195.538 74.0644 195.488 74.2184Z" fill="#FFC7A6"/>
    <path d="M225.785 47.3387C225.785 47.3387 220.715 38.8882 237.624 31.5782C237.624 31.5782 241.838 30.5789 241.288 35.0726C241.288 35.0726 224.919 51.9869 225.785 47.3387Z" fill="#FFC7A6"/>
    <path d="M241.094 35.3041C241.094 35.3041 244.866 32.5469 246.422 18.7512L243.518 17.8167C243.518 17.8167 237.606 30.2103 237.317 32.1028C237.028 33.9953 237.903 38.2479 241.094 35.3041Z" fill="#FFC7A6"/>
    <path d="M243.365 17.3313C243.365 17.3313 242.602 13.8873 244.288 13.3321C245.974 12.7769 247.079 9.23101 247.104 10.5357C247.13 11.8404 246.196 14.1428 246.196 14.1428C246.196 14.1428 248.325 12.861 248.412 13.9684C248.499 15.0763 246.176 19.7556 246.176 19.7556C246.176 19.7556 242.846 18.6467 243.365 17.3313Z" fill="#FFC7A6"/>
    <path opacity="0.26" d="M241.755 33.1755C241.295 33.9393 240.466 34.2834 239.903 33.9444C239.34 33.6053 239.257 32.7111 239.717 31.9474C240.178 31.1836 241.007 30.8395 241.57 31.1785C242.132 31.5176 242.215 32.4118 241.755 33.1755Z" fill="#C9614A"/>
    <path d="M226.819 22.9451C226.555 18.8526 223.023 15.7493 218.93 16.0134C214.838 16.2775 211.734 19.8096 211.998 23.9021C211.998 23.9021 211.854 35.6762 219.57 35.2786C219.57 35.2786 226.839 35.9725 226.707 24.7494C226.813 24.1662 226.859 23.5635 226.819 22.9451Z" fill="#FFC7A6"/>
    <path d="M225.823 27.2191C225.831 27.5739 225.676 27.8656 225.476 27.8702C225.276 27.8747 225.108 27.5903 225.1 27.2354C225.092 26.8801 225.248 26.5889 225.447 26.5843C225.647 26.5798 225.815 26.8637 225.823 27.2191Z" fill="#181532"/>
    <path d="M226.507 27.5479C226.507 27.5479 226.958 29.6219 227.247 30.0074C227.537 30.3933 226.572 30.3128 225.849 30.1527C225.125 29.9921 226.266 27.6285 226.507 27.5479Z" fill="#FFC7A6"/>
    <path d="M224.813 32.6559C224.753 32.7008 224.674 32.7192 224.596 32.6993C223.462 32.4071 223.246 31.5185 223.237 31.4808C223.206 31.3436 223.291 31.2065 223.429 31.1754C223.566 31.1443 223.702 31.2289 223.734 31.365C223.742 31.3961 223.904 31.9942 224.723 32.2058C224.86 32.2409 224.942 32.3801 224.907 32.5163C224.891 32.5739 224.857 32.6223 224.813 32.6559Z" fill="#8D4328"/>
    <path d="M224.018 25.1384C224.018 25.0635 224.051 24.9896 224.113 24.9386C225.024 24.2034 225.867 24.5603 225.902 24.5756C226.03 24.6322 226.089 24.7826 226.033 24.9116C225.976 25.04 225.827 25.0987 225.699 25.0431C225.669 25.0309 225.092 24.804 224.433 25.3352C224.324 25.4234 224.163 25.4061 224.075 25.297C224.037 25.2506 224.019 25.1945 224.018 25.1384Z" fill="#8D4328"/>
    <path d="M216.159 27.524C216.006 27.4027 215.857 27.2809 215.7 27.1927C215.547 27.0907 215.375 27.0739 215.376 27.1366C215.242 27.3278 215.343 27.6724 215.498 27.9905C215.646 28.3123 215.846 28.6227 216.062 28.9134C216.172 29.0566 216.288 29.1978 216.421 29.3085C216.546 29.4252 216.714 29.4884 216.808 29.2728C216.814 29.3646 216.78 29.4971 216.646 29.5389C216.521 29.5772 216.409 29.5343 216.31 29.4981C216.116 29.4104 215.952 29.2866 215.805 29.1489C215.509 28.8746 215.274 28.5478 215.094 28.1802C215.013 27.9926 214.936 27.7978 214.911 27.5725C214.901 27.4603 214.899 27.34 214.938 27.2115C214.976 27.0963 215.024 26.9857 215.14 26.8822C215.256 26.7654 215.466 26.7674 215.568 26.8251C215.685 26.8771 215.766 26.9484 215.837 27.0229C215.976 27.1758 216.082 27.342 216.159 27.524Z" fill="#E4587F"/>
    <path d="M214.614 32.968L215.118 38.5145C215.118 38.5145 219.908 39.7748 220.916 38.7668L221.168 31.2034C221.168 31.2034 215.118 29.186 214.614 32.968Z" fill="#FFC7A6"/>
    <path opacity="0.26" d="M219.378 39.1533C220.059 39.1477 220.636 39.0468 220.916 38.7664L221.042 34.9865C219.916 34.4297 218.86 33.6629 217.936 32.759C218.452 34.8814 218.911 37.0187 219.378 39.1533Z" fill="#C9614A"/>
    <path d="M218.938 23.5452C218.938 23.5452 218.746 28.3381 219.321 29.2972C219.896 30.2556 217.787 29.6805 217.212 26.9963C217.212 26.9963 215.486 24.8871 214.336 26.0378C213.186 27.188 215.103 31.2141 217.212 30.2556C217.212 30.2556 217.404 33.8984 214.528 34.2818C214.528 34.2818 208.894 27.1349 211.998 23.9021L218.938 23.5452Z" fill="#181532"/>
    <path d="M219.005 13.9111C219.005 13.9111 211.462 14.2603 211.238 22.2056C211.207 22.2112 211.186 22.2148 211.186 22.2148C211.186 22.2148 210.71 22.8607 210.953 24.767L230.007 22.5554C230.007 22.5554 229.057 20.8703 226.929 20.3411C226.226 18.082 224.272 14.3276 219.005 13.9111Z" fill="#FDCB6A"/>
    <path opacity="0.26" d="M217.159 21.0608C214.954 20.0722 214.083 17.8585 214.291 15.6825C212.717 16.8765 211.332 18.8705 211.239 22.2059C211.207 22.2115 211.187 22.215 211.187 22.215C211.187 22.215 210.71 22.861 210.954 24.7673L230.007 22.5556C230.007 22.5556 229.446 21.5665 228.227 20.866C224.519 21.4391 220.435 22.5301 217.159 21.0608Z" fill="#C9614A"/>
    <path opacity="0.35" d="M226.75 20.2344L223.046 20.6728C223.69 17.8325 219.326 14.1158 219.136 13.9562C219.057 13.89 218.946 13.8782 218.855 13.9272C218.806 13.9542 213.996 16.6217 215.233 21.5977L211.301 22.0632C211.164 22.0805 211.065 22.2044 211.081 22.342C211.098 22.4797 211.222 22.5781 211.36 22.5618L215.488 22.0728C215.531 22.0851 215.577 22.0897 215.624 22.0759C215.642 22.0708 215.655 22.0596 215.671 22.0509L226.808 20.732C226.863 20.7254 226.91 20.7024 226.948 20.6688C227.006 20.6162 227.038 20.5372 227.028 20.4531C227.012 20.3165 226.887 20.2181 226.75 20.2344ZM218.945 14.4554C219.679 15.108 223.2 18.3862 222.53 20.679C222.524 20.6973 222.526 20.7157 222.525 20.734L215.741 21.5375C214.655 17.3298 218.152 14.9341 218.945 14.4554Z" fill="#181532"/>
    <path d="M210.226 60.8525L208.309 37.891C208.309 37.891 215.405 36.3268 226.564 37.7722L228.501 38.3713L226.629 61.4399C226.629 61.4399 215.956 65.2575 210.226 60.8525Z" fill="white"/>
    <path d="M220.366 92.6337C220.366 92.6337 216 76.4036 215.942 69.4275C215.884 62.4519 223.115 60.3595 226.109 63.8305C226.109 63.8305 230.121 72.6476 226.7 91.3933C226.7 91.3933 229.86 96.3499 227.27 115.47L224.265 116.059C224.265 116.059 218.478 97.3701 220.366 92.6337Z" fill="#5CB7A8"/>
    <path d="M228.753 112.72L229.037 111.744C229.037 111.744 230.463 111.333 230.34 112.191C230.217 113.049 230.121 114.505 230.121 114.505C230.121 114.505 237.258 116.279 237.326 117.809C237.393 119.34 224.374 118.793 224.374 118.793C224.374 118.793 223.077 114.854 224.198 114.799C225.318 114.743 228.339 114.384 228.753 112.72Z" fill="#181532"/>
    <path d="M234.631 118.606C230.718 118.955 224.629 118.656 224.294 118.64L224.317 118.098C224.424 118.104 235.019 118.622 237.22 117.563L237.431 118.056C236.878 118.322 235.862 118.496 234.631 118.606Z" fill="white"/>
    <path d="M231.227 116.542C231.175 116.547 231.122 116.535 231.074 116.504C230.953 116.427 230.915 116.26 230.988 116.133L231.641 114.988C231.714 114.86 231.871 114.819 231.991 114.897C232.111 114.974 232.15 115.14 232.077 115.268L231.423 116.413C231.38 116.49 231.305 116.535 231.227 116.542Z" fill="white"/>
    <path d="M232.743 116.901C232.701 116.904 232.657 116.897 232.617 116.878C232.488 116.816 232.431 116.656 232.489 116.52L232.88 115.596C232.938 115.46 233.089 115.4 233.217 115.46C233.346 115.522 233.403 115.682 233.345 115.819L232.954 116.742C232.914 116.835 232.832 116.893 232.743 116.901Z" fill="white"/>
    <path d="M207.067 112.149C207.067 112.149 201.585 118.296 204.217 119.027C206.849 119.758 212.166 119.307 212.166 119.307L209.938 112.25L207.067 112.149Z" fill="#181532"/>
    <path d="M203.607 118.561C203.714 118.778 203.907 118.941 204.217 119.027C206.849 119.758 212.166 119.306 212.166 119.306L212.11 119.126L203.607 118.561Z" fill="white"/>
    <path d="M213.343 92.1911C213.343 92.1911 217.757 76.9118 217.836 70.3451C217.915 63.7784 210.691 61.81 207.687 65.078C207.687 65.078 203.648 73.3792 207.014 91.0246C207.014 91.0246 203.266 95.1064 205.799 113.105L210.208 113.485C210.208 113.485 215.217 96.6497 213.343 92.1911Z" fill="#5CB7A8"/>
    <path d="M217.143 76.2873C215.875 79.8526 214.777 83.4683 213.806 87.1203C213.564 88.3087 213.307 89.4905 213.023 90.657C212.959 90.9206 212.859 91.1552 212.735 91.3647C210.994 98.6156 209.658 105.978 208.343 113.325L210.208 113.486C210.208 113.486 215.217 96.6502 213.343 92.1917C213.343 92.1917 215.882 83.3995 217.143 76.2873Z" fill="#41A393"/>
    <path d="M226.699 60.6333L227.154 66.9451L218.376 69.8787L216.66 69.8634L206.938 67.4376C206.795 65.6338 208.75 60.6006 208.75 60.6006L226.699 60.6333Z" fill="#5CB7A8"/>
    <path d="M208.75 60.6007C208.75 60.6007 210.025 43.3621 209.763 37.4464C209.763 37.4464 212.456 36.5588 212.802 37.061C213.148 37.5632 213.29 46.6944 214.482 47.1833C215.673 47.6722 223.624 47.7176 223.954 47.2047C224.284 46.6923 224.137 37.2226 224.137 37.2226C224.137 37.2226 226 37.3628 226.515 37.862C227.03 38.3611 226.556 59.582 226.875 61.1855C227.195 62.7894 213.461 71.1492 208.75 60.6007Z" fill="#5CB7A8"/>
    <path d="M211.811 37.4974C211.82 37.2986 211.848 37.1125 211.888 36.9351C210.985 37.0442 209.763 37.4464 209.763 37.4464C210.025 43.3626 208.75 60.6007 208.75 60.6007C209.915 63.2085 211.632 64.658 213.551 65.3422C210.916 56.4741 211.408 46.4874 211.811 37.4974Z" fill="#41A393"/>
    <path d="M212.319 76.3975L223.03 78.8467" stroke="#181532" stroke-miterlimit="10"/>
    <path d="M208.301 92.4659L210.979 92.8009" stroke="#181532" stroke-miterlimit="10"/>
    <path d="M222.361 92.131H225.374" stroke="#181532" stroke-miterlimit="10"/>
    <path d="M207.632 62.6726L224.704 67.3591L225.039 73.7193L230.395 73.3848L229.056 65.6852L208.75 60.6006L207.632 62.6726Z" fill="#181532"/>
    <path d="M218.377 69.8787L217.34 77.7368" stroke="#181532" stroke-miterlimit="10"/>
    <path d="M211.553 73.2008C213.067 73.6184 214.543 73.0739 214.842 71.9869L215.863 68.2901L210.373 66.7753L209.352 70.4722C209.053 71.5591 210.04 72.7833 211.553 73.2008ZM210.606 67.1868L215.452 68.5241L214.52 71.8987C214.269 72.8082 212.978 73.2477 211.642 72.8791C210.306 72.5105 209.424 71.4709 209.675 70.5614L210.606 67.1868Z" fill="#181532"/>
    <path d="M221.928 75.7449C223.467 76.0569 224.901 75.4114 225.125 74.3061L225.887 70.5476L220.305 69.4163L219.543 73.1748C219.32 74.2806 220.389 75.4334 221.928 75.7449ZM220.567 69.8109L225.493 70.8091L224.797 74.2398C224.61 75.1642 223.352 75.6923 221.994 75.417C220.636 75.1417 219.684 74.1659 219.871 73.2416L220.567 69.8109Z" fill="#181532"/>
    <g opacity="0.53">
    <path d="M217.929 50.2862H217.419V59.5285H217.929V50.2862Z" fill="#181532"/>
    </g>
    <path d="M220.841 30.0925C220.841 30.0925 220.244 34.6708 221.14 35.3672C222.035 36.0642 224.125 34.9691 224.523 33.3768C224.523 33.3768 221.936 32.4811 223.031 30.5901C223.031 30.5901 224.922 31.6847 225.619 30.8888C225.619 30.8888 223.03 27.9027 220.841 30.0925Z" fill="#181532"/>
    <path d="M226.515 37.8619L230.565 35.1913C230.565 35.1913 231.827 43.1861 231.827 46.1314L227.198 49.0768C227.198 49.0768 225.832 40.1118 226.515 37.8619Z" fill="white"/>
    <g opacity="0.46">
    <path d="M229.49 35.7918L229.11 35.8314L230.162 45.93L230.542 45.8904L229.49 35.7918Z" fill="#181532"/>
    </g>
    <path d="M222.149 62.9632C222.149 62.9632 221.728 70.1162 221.518 72.2203C221.307 74.3244 222.359 72.8515 222.99 75.3762C223.622 77.9009 222.78 80.4256 223.832 80.8462C224.884 81.2669 226.568 82.0041 226.778 80.4256C226.987 78.8472 225.726 64.6467 225.726 64.6467C225.726 64.6467 224.884 61.9109 222.149 62.9632Z" fill="#E4587F"/>
    <path d="M283.786 63.1615H253.762V105.819H283.786V63.1615Z" fill="#85E0D1"/>
    <path d="M280.628 66.1597H256.92V83.2877H280.628V66.1597Z" stroke="#5CB7A8" stroke-miterlimit="10"/>
    <path d="M265.966 66.2403C266.089 67.6842 267.298 68.818 268.774 68.818C270.249 68.818 271.458 67.6842 271.581 66.2403H265.966Z" fill="#5CB7A8"/>
    <path d="M280.628 86.2515H256.92V103.379H280.628V86.2515Z" stroke="#5CB7A8" stroke-miterlimit="10"/>
    <path d="M265.966 86.332C266.089 87.7758 267.298 88.9097 268.774 88.9097C270.249 88.9097 271.458 87.7758 271.581 86.332H265.966Z" fill="#5CB7A8"/>
    <path d="M256.695 104.778C256.695 104.778 252.787 119.695 255.229 117.976C257.671 116.256 261.335 104.778 261.335 104.778H256.695Z" fill="#85E0D1"/>
    <path d="M280.557 104.778C280.557 104.778 284.465 119.695 282.023 117.976C279.58 116.256 275.918 104.778 275.918 104.778H280.557Z" fill="#85E0D1"/>
    <path d="M318.587 114.925L318.429 116.9L314.84 117.308L314.432 114.371C314.432 114.371 318.093 113.031 318.587 114.925Z" fill="#FFC7A6"/>
    <path d="M302.172 114.417L301.053 116.052L297.735 114.621L298.841 111.87C298.841 111.87 302.684 112.528 302.172 114.417Z" fill="#FFC7A6"/>
    <path d="M303.663 70.3473C303.663 70.3473 310.192 67.4943 314.091 72.7135C314.091 72.7135 316.118 78.1178 308.888 95.129C309.352 95.9804 310.076 99.7863 302.09 114.852L297.95 113.066L302.885 90.256L303.663 70.3473Z" fill="#41A393"/>
    <path d="M280.341 41.3412C278.364 38.3189 279.211 34.2657 282.234 32.2885C285.256 30.3114 289.309 31.1587 291.286 34.181C291.286 34.181 297.612 42.3981 291.966 46.1974C291.966 46.1974 287.213 50.5284 281.374 42.5536C280.991 42.1982 280.64 41.798 280.341 41.3412Z" fill="#C9614A"/>
    <path d="M294.035 40.3466C294.035 40.3466 298.106 46.1108 299.045 47.7688C299.045 47.7688 296.783 52.8713 295.218 52.5582L289.025 43.4775C289.025 43.4775 290.278 34.0843 294.035 40.3466Z" fill="#C9614A"/>
    <path opacity="0.26" d="M292.964 43.8884C293.196 44.6338 293.418 45.3828 293.613 46.1424C294.024 47.7545 294.123 49.3095 294.06 50.8594L291.326 46.8506C292.14 46.1501 292.668 45.0896 292.964 43.8884Z" fill="#C9614A"/>
    <path d="M296.472 43.7869C296.473 43.7885 296.475 43.7895 296.477 43.7905C296.477 43.7905 303.524 43.7905 308.425 57.8808C308.425 57.8808 305.055 62.2644 299.541 62.2644C299.541 62.2644 295.733 57.3471 293.628 51.6563C294.441 48.9832 295.359 46.3468 296.472 43.7869Z" fill="white"/>
    <path d="M306.601 80.2021C306.601 80.2021 307.977 75.8022 316.502 75.8022C316.502 75.8022 318.427 69.4772 309.626 63.4274L301.651 67.2772L306.601 80.2021Z" fill="#5CB7A8"/>
    <path d="M301.652 67.2772L295.087 55.5127L297.234 53.3663C297.234 53.3663 294.608 47.6994 296.534 43.7869L298.767 44.3207C298.767 44.3207 296.467 47.0805 298.613 52.9064C300.76 58.7323 303.52 55.5127 306.892 53.5197C306.892 53.5197 308.579 56.1637 310.112 63.4274C310.112 63.4274 308.676 72.9093 301.652 67.2772Z" fill="#5CB7A8"/>
    <g opacity="0.58">
    <path d="M310.181 92.4672C310.201 92.4672 310.222 92.4646 310.242 92.459C310.361 92.4254 310.431 92.301 310.397 92.1817L306.899 79.8375C306.865 79.7182 306.74 79.6499 306.622 79.6825C306.503 79.7162 306.433 79.8411 306.467 79.9599L309.965 92.304C309.993 92.4024 310.083 92.4672 310.181 92.4672Z" fill="#181532"/>
    </g>
    <g opacity="0.58">
    <path d="M314.699 94.0991C314.716 94.0991 314.735 94.0971 314.753 94.0925L316.808 93.5786C316.929 93.5485 317.002 93.4267 316.971 93.3064C316.941 93.186 316.82 93.1136 316.699 93.1427L314.644 93.6566C314.524 93.6867 314.45 93.8085 314.481 93.9289C314.506 94.0313 314.598 94.0991 314.699 94.0991Z" fill="#181532"/>
    </g>
    <g opacity="0.58">
    <path d="M309.089 95.1617C309.199 95.1617 309.296 95.0806 309.311 94.9679C309.329 94.845 309.243 94.7319 309.12 94.715L307.022 94.4234C306.9 94.4076 306.786 94.4917 306.768 94.6151C306.751 94.738 306.837 94.8512 306.96 94.868L309.058 95.1596C309.068 95.1606 309.078 95.1617 309.089 95.1617Z" fill="#181532"/>
    </g>
    <g opacity="0.58">
    <path d="M314.431 114.042H318.553C318.677 114.042 318.777 113.942 318.777 113.818C318.777 113.694 318.677 113.593 318.553 113.593H314.431C314.307 113.593 314.207 113.694 314.207 113.818C314.207 113.942 314.307 114.042 314.431 114.042Z" fill="#181532"/>
    </g>
    <g opacity="0.58">
    <path d="M302.319 113.955C302.406 113.955 302.49 113.903 302.526 113.817C302.574 113.703 302.52 113.571 302.405 113.524L298.481 111.884C298.366 111.836 298.234 111.889 298.187 112.004C298.139 112.118 298.193 112.25 298.308 112.297L302.232 113.937C302.261 113.95 302.29 113.955 302.319 113.955Z" fill="#181532"/>
    </g>
    <g opacity="0.58">
    <path d="M301.83 57.9278C304.839 57.9278 307.776 55.3633 307.91 55.2445C308.003 55.1624 308.011 55.0207 307.929 54.9279C307.847 54.8351 307.705 54.8264 307.612 54.9085C307.578 54.9386 304.149 57.9323 301.09 57.4195C299.794 57.2018 298.733 56.3763 297.936 54.9661L297.81 54.7438L295.551 56.439C295.451 56.5135 295.431 56.6542 295.506 56.7531C295.58 56.8525 295.721 56.8724 295.82 56.798L297.674 55.4071C298.527 56.8077 299.651 57.6331 301.017 57.862C301.287 57.9074 301.559 57.9278 301.83 57.9278Z" fill="#181532"/>
    </g>
    <g opacity="0.58">
    <path d="M301.337 66.6062C301.354 66.6062 301.371 66.6047 301.388 66.6006C302.022 66.4543 302.445 66.1107 302.645 65.5799C303.422 63.5176 300.366 59.2371 300.235 59.0561L300.118 58.8939L297.631 60.2756C297.523 60.3358 297.484 60.4724 297.544 60.581C297.604 60.6891 297.741 60.7288 297.85 60.6682L299.985 59.4818C300.533 60.2802 302.839 63.7904 302.225 65.4219C302.079 65.8088 301.772 66.051 301.287 66.1627C301.166 66.1907 301.091 66.311 301.119 66.4319C301.143 66.5359 301.235 66.6062 301.337 66.6062Z" fill="#181532"/>
    </g>
    <path d="M314.461 115.09L314.144 114.305C314.144 114.305 312.864 114.07 313.031 114.77C313.198 115.47 313.384 116.666 313.384 116.666C313.384 116.666 307.243 118.656 307.29 119.926C307.337 121.195 318.725 119.785 318.725 119.785C318.725 119.785 319.59 116.436 318.603 116.472C317.616 116.509 314.94 116.435 314.461 115.09Z" fill="#181532"/>
    <path d="M309.71 120.386C313.168 120.386 318.491 119.691 318.785 119.652L318.726 119.207C318.633 119.219 309.37 120.428 307.366 119.714L307.215 120.137C307.719 120.317 308.622 120.386 309.71 120.386Z" fill="white"/>
    <path d="M312.555 118.43C312.601 118.43 312.647 118.416 312.686 118.387C312.787 118.314 312.809 118.174 312.736 118.074L312.083 117.176C312.011 117.076 311.87 117.054 311.77 117.127C311.669 117.2 311.647 117.34 311.72 117.441L312.373 118.338C312.417 118.398 312.486 118.43 312.555 118.43Z" fill="white"/>
    <path d="M311.25 118.838C311.286 118.838 311.324 118.829 311.358 118.81C311.467 118.749 311.506 118.613 311.445 118.504L311.038 117.769C310.977 117.661 310.841 117.624 310.732 117.682C310.624 117.743 310.585 117.879 310.645 117.988L311.053 118.722C311.094 118.796 311.171 118.838 311.25 118.838Z" fill="white"/>
    <path d="M297.855 112.653L297.836 111.806C297.836 111.806 296.722 111.134 296.631 111.848C296.54 112.562 296.292 113.746 296.292 113.746C296.292 113.746 289.843 113.44 289.439 114.644C289.035 115.848 300.186 118.551 300.186 118.551C300.186 118.551 302.178 115.723 301.242 115.409C300.306 115.095 297.828 114.08 297.855 112.653Z" fill="#181532"/>
    <path d="M291.54 115.929C294.775 117.151 300 118.381 300.288 118.449L300.391 118.011C300.299 117.99 291.207 115.848 289.584 114.473L289.293 114.815C289.702 115.162 290.522 115.545 291.54 115.929Z" fill="white"/>
    <path d="M294.893 115.104C294.935 115.121 294.983 115.124 295.031 115.111C295.151 115.078 295.221 114.955 295.188 114.835L294.895 113.765C294.862 113.645 294.739 113.575 294.619 113.608C294.499 113.641 294.429 113.764 294.462 113.884L294.756 114.954C294.775 115.026 294.827 115.08 294.893 115.104Z" fill="white"/>
    <path d="M293.527 115.025C293.562 115.038 293.6 115.043 293.639 115.037C293.762 115.019 293.846 114.905 293.829 114.782L293.707 113.951C293.688 113.829 293.574 113.745 293.452 113.762C293.329 113.78 293.244 113.894 293.262 114.017L293.384 114.848C293.397 114.931 293.453 114.997 293.527 115.025Z" fill="white"/>
    <g opacity="0.47">
    <path d="M289.827 42.0699C289.996 42.0699 290.128 41.9648 290.193 41.7706C290.362 41.2592 290.037 40.1534 289.404 39.9235C289.191 39.846 289.016 39.8623 288.885 39.9714C288.566 40.237 288.675 40.9574 288.689 41.0385C288.699 41.0996 288.755 41.1404 288.818 41.1307C288.879 41.1205 288.92 41.0629 288.91 41.0018C288.867 40.7433 288.861 40.2824 289.028 40.1437C289.053 40.1238 289.128 40.0616 289.327 40.1345C289.835 40.3196 290.117 41.2857 289.98 41.7002C289.926 41.8613 289.835 41.8578 289.752 41.8333C289.692 41.8155 289.63 41.8491 289.612 41.9088C289.595 41.9684 289.628 42.0306 289.688 42.0485C289.737 42.0627 289.783 42.0699 289.827 42.0699Z" fill="#8D4328"/>
    </g>
    <path d="M282.995 44.4185C282.995 44.4185 283.773 46.1178 283.773 46.5425C283.773 46.9672 284.41 46.4008 284.835 45.9052C285.26 45.4097 283.207 44.3477 282.995 44.4185Z" fill="#C9614A"/>
    <path d="M286.888 47.1208C286.954 47.1208 287.019 47.0917 287.063 47.0367C287.707 46.2317 287.39 45.4914 287.377 45.4603C287.326 45.3476 287.193 45.2961 287.08 45.3461C286.968 45.396 286.917 45.5281 286.966 45.6408C286.977 45.6668 287.178 46.174 286.713 46.7563C286.635 46.8531 286.651 46.9944 286.748 47.0719C286.789 47.1045 286.839 47.1208 286.888 47.1208Z" fill="#181532"/>
    <path d="M283.302 43.8252C283.484 44.0796 283.748 44.2024 283.891 44.1C284.034 43.9975 284.002 43.7084 283.82 43.454C283.638 43.1996 283.374 43.0767 283.231 43.1792C283.088 43.2817 283.12 43.5708 283.302 43.8252Z" fill="#181532"/>
    <path d="M282.357 43.1562C282.444 43.1562 282.527 43.1047 282.564 43.0196C282.594 42.9502 282.88 42.3695 283.777 42.6505C283.896 42.6877 284.021 42.6214 284.058 42.5031C284.095 42.3848 284.029 42.2589 283.911 42.2217C282.861 41.8918 282.3 42.4858 282.15 42.8452C282.102 42.9594 282.157 43.0909 282.271 43.1389C282.299 43.1506 282.329 43.1562 282.357 43.1562Z" fill="#181532"/>
    <path d="M289.243 38.398C289.243 38.398 286.645 39.1199 288.088 42.0076C288.088 42.0076 287.51 42.2962 286.211 40.5638C284.911 38.8313 281.591 34.9331 279.569 37.3875L278.991 37.5318C278.991 37.5318 278.847 31.7563 286.066 30.3125C286.066 30.3125 293.718 29.1572 294.584 40.2747V40.9966C294.584 40.9966 294.151 42.5848 293.14 42.1519C292.13 41.7185 290.831 38.2537 289.243 38.398Z" fill="#181532"/>
    <path d="M278.71 31.0456C278.771 29.4962 279.891 28.2196 281.369 27.9239C281.562 27.2218 282.199 26.7033 282.962 26.7033C283.26 26.7033 283.534 26.7874 283.775 26.9246C284.384 26.1736 285.313 25.6928 286.355 25.6928C287.045 25.6928 287.684 25.9029 288.215 26.2623C288.509 26.0008 288.891 25.8371 289.315 25.8371C289.966 25.8371 290.525 26.2159 290.796 26.7619C290.995 26.7247 291.199 26.7033 291.408 26.7033C292.45 26.7033 293.379 27.1841 293.988 27.9351C294.229 27.7984 294.504 27.7138 294.801 27.7138C295.718 27.7138 296.462 28.4571 296.462 29.3743C296.462 29.566 296.423 29.747 296.363 29.9183C297.051 30.4083 297.543 31.1521 297.703 32.0143C298.327 32.2529 298.771 32.8535 298.771 33.5611C298.771 34.0067 298.593 34.409 298.308 34.7072C298.6 35.1431 298.771 35.6678 298.771 36.2322C298.771 37.3665 298.083 38.3403 297.1 38.7579C296.772 40.2048 295.48 41.2857 293.935 41.2857C292.14 41.2857 290.686 39.8311 290.686 38.037C290.686 36.8185 291.358 35.758 292.35 35.2023C291.776 34.7363 291.361 34.0827 291.198 33.3342C290.013 33.2598 288.997 32.5669 288.472 31.5722C287.897 32.0479 287.16 32.3345 286.355 32.3345C285.95 32.3345 285.565 32.2585 285.206 32.1259C284.893 33.1793 284.073 34.0133 283.028 34.3447C282.958 36.1164 281.503 37.5322 279.714 37.5322C277.88 37.5322 276.394 36.0456 276.394 34.2117C276.393 32.727 277.367 31.4713 278.71 31.0456Z" fill="#181532"/>
    <path d="M289.598 38.3088C289.598 38.3088 284.327 29.8995 278.71 31.0451L278.255 31.299L288.259 38.9461C288.259 38.9461 288.833 38.3088 289.598 38.3088Z" fill="#FDCB6A"/>
    <path d="M278.254 31.2995C278.254 31.2995 278.202 24.9311 276.869 26.7976C275.536 28.6636 277.507 30.2018 278.254 31.2995Z" fill="#FDCB6A"/>
    <path d="M278.355 31.0298C278.355 31.0298 273.858 26.5198 274.214 28.786C274.569 31.0522 277.052 30.7698 278.355 31.0298Z" fill="#FDCB6A"/>
    <path d="M304.88 72.3715L310.112 63.4274C310.112 63.4274 323.249 64.9427 317.667 91.0596L317.524 91.367C317.479 91.9707 317.429 92.5916 317.372 93.2305C317.472 93.4482 317.568 93.6771 317.652 93.93C317.652 93.93 321.087 94.6081 318.588 114.925L314.518 114.863L311.346 96.3252L304.88 72.3715Z" fill="#5CB7A8"/>
    <path d="M299.534 43.063C299.534 43.063 302.201 65.1945 306.467 68.1276C306.467 68.1276 310.733 67.3276 311.533 64.3946L313.933 64.9279C313.933 64.9279 311.267 67.3277 309.667 68.6609C308.067 69.9941 315.266 100.125 315.266 100.125C315.266 100.125 304.067 100.125 299.534 97.7251C299.534 97.7251 300.601 69.9941 299.268 67.8604C297.934 65.7273 293.935 55.8614 293.935 55.8614L297.234 53.3658C297.234 53.3658 294.335 47.1774 296.534 43.7864L299.534 43.063Z" fill="#FDCB6A"/>
    <path opacity="0.15" d="M302.201 95.6618C308.62 96.2981 307.673 86.4475 307.297 82.5916C306.998 79.5158 306.464 76.3339 306.835 73.2519C307.112 70.9516 308.031 68.9443 309.664 67.3006C310.589 66.3691 311.537 65.5136 312.421 64.5919L313.933 64.9278C313.933 64.9278 311.267 67.3276 309.667 68.6609C308.067 69.9941 315.266 100.125 315.266 100.125C315.266 100.125 304.067 100.125 299.534 97.7256C299.534 97.7256 299.588 96.3292 299.656 94.1425C300.264 94.9822 301.085 95.5512 302.201 95.6618Z" fill="#181532"/>
    <path d="M299.349 45.4158C299.349 45.4158 304.653 45.3883 305.541 59.315C305.541 59.315 304.944 63.0822 301.468 61.1285C301.468 61.1285 295.854 43.1527 299.349 45.4158Z" fill="#C9614A"/>
    <path opacity="0.26" d="M299.561 54.339C298.344 49.518 297.337 44.1127 299.349 45.4159C299.349 45.4159 302.622 45.4026 304.456 52.1478C302.837 52.9085 301.202 53.6314 299.561 54.339Z" fill="#C9614A"/>
    <path d="M305.035 60.8715C305.035 60.8715 303.428 64.6596 291.911 68.7638L290.526 66.4614C290.526 66.4614 299.966 58.9031 301.531 58.2755C303.096 57.6478 306.919 57.5438 305.035 60.8715Z" fill="#C9614A"/>
    <path d="M305.175 49.7122L298.294 53.3341C298.294 53.3341 295.276 48.0221 297.811 44.4008C297.811 44.4008 301.554 42.107 305.175 49.7122Z" fill="white"/>
    <g opacity="0.47">
    <path d="M304.584 48.4398L297.823 51.9405L298.03 52.3393L304.79 48.8387L304.584 48.4398Z" fill="#181532"/>
    </g>
    <path d="M291.948 75.0466C292.494 74.8182 292.754 74.1844 292.526 73.6384L287.025 60.4826C286.797 59.9365 286.163 59.6765 285.617 59.9049C285.071 60.1333 284.811 60.7671 285.04 61.3131L290.54 74.4689C290.769 75.015 291.402 75.275 291.948 75.0466Z" fill="#181532"/>
    <path d="M280.94 59.5282C281.281 59.3854 281.677 59.5481 281.82 59.8892L281.9 60.0824C282 59.9916 282.113 59.9126 282.244 59.8575L282.989 59.546C283.032 59.5282 283.076 59.519 283.119 59.5068L283.113 59.4945L286.98 57.5857C286.98 57.5857 289.648 55.5958 291.908 59.6077C291.908 59.6077 288.429 57.5633 288.018 60.0681L288.745 61.8056L285.022 63.3627L284.17 61.6369C284.094 61.6929 284.014 61.7429 283.923 61.7806L283.178 62.0921C283.047 62.1472 282.911 62.1717 282.777 62.1788L283.273 63.3647C283.416 63.7058 283.253 64.1019 282.912 64.2447C282.57 64.3874 282.175 64.2248 282.032 63.8837L280.579 60.4087C280.436 60.0671 280.598 59.6709 280.94 59.5282Z" fill="#FDCB6A"/>
    <path d="M290.918 66.5466C290.918 66.5466 288.831 64.7897 289.051 65.3388C289.271 65.8879 289.71 66.7663 289.71 66.7663C289.71 66.7663 287.404 67.5347 287.404 68.0837C287.404 68.6328 288.392 69.9502 288.831 70.2796C289.27 70.609 292.455 68.4131 292.455 68.4131L290.918 66.5466Z" fill="#C9614A"/>
    </svg>
    