<svg width="267" height="187" viewBox="0 0 267 187" fill="none" xmlns="http://www.w3.org/2000/svg">
    <path d="M240.874 98.0134L234.436 104.412L237.008 106.968L243.446 100.57L240.874 98.0134Z" fill="#00332B"/>
    <path d="M250.495 88.2945L244.056 94.6927L246.629 97.2488L253.067 90.8506L250.495 88.2945Z" fill="#009980"/>
    <path d="M244.062 94.6924L241.488 97.2509L236.464 92.2586L241.488 92.1338L244.062 94.6924Z" fill="#009980"/>
    <path d="M244.058 94.6946L241.486 97.2507L244.058 99.8068L246.63 97.2507L244.058 94.6946Z" fill="#009980"/>
    <path d="M247.244 98.0178L244.672 100.574L251.11 106.972L253.682 104.416L247.244 98.0178Z" fill="#00332B"/>
    <path d="M102.48 106.651H96.7206V83.8743H102.48V92.6419H111.396V83.8743H117.156V106.651H111.396V97.028H102.48V106.651Z" fill="#00332B"/>
    <path d="M123.776 92.798C125.328 91.3761 127.391 90.6674 129.966 90.6674C132.54 90.6674 134.603 91.3761 136.155 92.798C137.707 94.2199 138.483 96.2079 138.483 98.7664C138.483 101.245 137.703 103.206 136.137 104.659C134.576 106.112 132.518 106.834 129.966 106.834C127.413 106.834 125.355 106.108 123.789 104.659C122.228 103.206 121.444 101.245 121.444 98.7664C121.448 96.2079 122.224 94.2199 123.776 92.798ZM132.217 95.9048C131.634 95.196 130.885 94.8395 129.966 94.8395C129.046 94.8395 128.297 95.196 127.714 95.9048C127.131 96.6135 126.839 97.5718 126.839 98.7664C126.839 99.9431 127.131 100.888 127.714 101.597C128.297 102.306 129.046 102.662 129.966 102.662C130.885 102.662 131.634 102.306 132.217 101.597C132.8 100.888 133.092 99.9431 133.092 98.7664C133.092 97.5674 132.8 96.6135 132.217 95.9048Z" fill="#00332B"/>
    <path d="M147.862 92.7043L147.983 92.7356C149.27 91.3538 150.791 90.6629 152.549 90.6629C154.836 90.6629 156.469 91.5766 157.451 93.4042C159.066 91.5766 160.851 90.6629 162.816 90.6629C166.736 90.6629 168.7 93.159 168.7 98.1557V106.651H163.309V97.8526C163.309 96.0251 162.533 95.1113 160.981 95.1113C160.021 95.1113 159.174 95.7309 158.438 96.9701V106.651H153.038V97.8526C153.038 96.0251 152.262 95.1113 150.71 95.1113C149.75 95.1113 148.902 95.7309 148.167 96.9701V106.651H142.776V90.8456H147.247L147.862 92.7043Z" fill="#00332B"/>
    <path d="M174.639 88.2604C174.047 87.672 173.751 86.9633 173.751 86.1297C173.751 85.2962 174.047 84.583 174.639 83.9813C175.231 83.384 175.944 83.0809 176.783 83.0809C177.599 83.0809 178.308 83.3795 178.913 83.9813C179.515 84.5786 179.815 85.2962 179.815 86.1297C179.815 86.9633 179.519 87.672 178.927 88.2604C178.335 88.8487 177.617 89.1429 176.783 89.1429C175.949 89.1429 175.231 88.8487 174.639 88.2604ZM179.483 106.651H174.092V90.8456H179.483V106.651Z" fill="#00332B"/>
    <path d="M192.903 102.938C194.805 102.938 196.487 102.573 197.958 101.842L199.519 105.283C197.743 106.317 195.545 106.834 192.93 106.834C190.234 106.834 188.09 106.117 186.494 104.686C184.901 103.255 184.103 101.28 184.103 98.7619C184.103 96.2435 184.843 94.2644 186.323 92.8247C187.803 91.385 189.799 90.6629 192.316 90.6629C194.953 90.6629 196.926 91.3627 198.245 92.7623C199.564 94.1619 200.223 96.1633 200.223 98.7619L200.008 100.313H189.593C189.714 101.329 190.041 102.02 190.575 102.386C191.105 102.756 191.88 102.938 192.903 102.938ZM192.23 94.26C190.799 94.26 189.943 95.2228 189.656 97.1528H195.02C195.02 96.239 194.756 95.5303 194.222 95.0222C193.688 94.514 193.024 94.26 192.23 94.26Z" fill="#00332B"/>
    <path d="M220.6 88.3807H210.275V93.5557H219.312V97.9418H210.275V106.651H204.516V83.8743H220.604V88.3807H220.6Z" fill="#00332B"/>
    <path d="M225.78 88.2604C225.188 87.672 224.892 86.9633 224.892 86.1297C224.892 85.2962 225.188 84.583 225.78 83.9813C226.372 83.384 227.085 83.0809 227.924 83.0809C228.74 83.0809 229.449 83.3795 230.055 83.9813C230.656 84.5786 230.956 85.2962 230.956 86.1297C230.956 86.9633 230.66 87.672 230.068 88.2604C229.476 88.8487 228.758 89.1429 227.924 89.1429C227.085 89.1429 226.372 88.8487 225.78 88.2604ZM230.62 106.651H225.228V90.8456H230.62V106.651Z" fill="#00332B"/>
    <path d="M51.3251 131.577C72.4627 131.577 89.598 114.548 89.598 93.5424C89.598 72.5364 72.4627 55.5076 51.3251 55.5076C30.1876 55.5076 13.0522 72.5364 13.0522 93.5424C13.0522 114.548 30.1876 131.577 51.3251 131.577Z" fill="#009980"/>
    <path d="M176.738 115.138C177.146 115.901 177.756 116.578 178.407 117.162C179.066 117.75 179.806 118.245 180.591 118.651C182.156 119.471 183.879 119.966 185.637 120.197C187.391 120.438 189.176 120.447 190.947 120.304C192.719 120.166 194.482 119.881 196.218 119.48C199.703 118.726 203.098 117.559 206.413 116.217C208.081 115.553 209.678 114.8 211.351 114.069C212.203 113.712 213.033 113.315 213.903 112.999C214.778 112.696 215.634 112.344 216.523 112.076C220.052 110.948 223.775 110.28 227.547 110.235C228.018 110.213 228.489 110.244 228.965 110.266C229.436 110.293 229.911 110.307 230.382 110.347C231.32 110.48 232.266 110.547 233.19 110.77C233.652 110.873 234.123 110.948 234.576 111.078L235.944 111.465C236.401 111.59 236.836 111.777 237.285 111.929L237.953 112.17C238.173 112.254 238.388 112.352 238.604 112.446C242.08 113.93 245.219 116.088 247.888 118.655C249.229 119.934 250.44 121.334 251.535 122.809C252.616 124.294 253.611 125.832 254.36 127.503L254.127 127.632C249.736 121.967 244.062 117.367 237.594 114.929C235.98 114.323 234.329 113.823 232.634 113.502C231.795 113.302 230.938 113.217 230.086 113.079L228.799 112.963C228.368 112.923 227.938 112.878 227.507 112.883C224.044 112.736 220.537 113.195 217.142 114.131C216.289 114.354 215.46 114.657 214.612 114.915C213.773 115.187 212.957 115.544 212.127 115.851C210.458 116.507 208.759 117.233 207.045 117.839C203.614 119.083 200.102 120.148 196.487 120.795C194.684 121.125 192.849 121.33 191.01 121.388C189.171 121.445 187.319 121.352 185.502 121.013C183.686 120.683 181.91 120.082 180.313 119.145C179.519 118.677 178.774 118.116 178.124 117.465C177.474 116.81 176.891 116.097 176.496 115.245L176.738 115.138Z" fill="#00332B"/>
    <path d="M33.2001 82.3142L38.9278 86.5398V96.2435H47.6741V86.5398L53.4018 82.3142V106.732L47.6741 111.715V101.205H38.9278V107.561L33.2001 111.711V82.3142Z" fill="white"/>
    <path d="M62.5024 82.3142H73.1056V87.0881H62.8433V92.9272H71.6076L68.284 97.7011H62.8433V106.839H57.1156V87.6675C57.1201 84.7078 59.5287 82.3142 62.5024 82.3142Z" fill="white"/>
    </svg>
    