<svg width="47" height="47" viewBox="0 0 47 47" fill="none" xmlns="http://www.w3.org/2000/svg">
<g clip-path="url(#clip0_1028_2594)">
<path d="M15.9622 11.98C16.0375 10.5589 17.1889 6.30371 23.5593 6.30371C31.1747 6.30371 30.9193 12.4234 30.9193 12.4234C31.0404 12.3183 31.1828 12.2406 31.3368 12.1955C31.4907 12.1504 31.6526 12.1391 31.8113 12.1624C31.967 12.1844 32.1158 12.241 32.2468 12.3281C32.3778 12.4152 32.4876 12.5305 32.5682 12.6655C32.6615 12.8519 32.7147 13.0557 32.7243 13.2639C32.7921 14.0788 32.6346 14.8966 32.269 15.628C32.0967 15.9977 31.8467 16.3258 31.536 16.59C31.2837 16.7947 30.9826 16.9304 30.6621 16.9839L30.5124 17.0071C30.4407 17.2755 30.3602 17.5014 30.3206 17.6216C30.0841 18.2635 28.8376 20.3727 27.2245 21.3682C27.2324 21.8561 27.2654 22.3433 27.3234 22.8279C27.619 23.4261 27.9449 24.0088 28.2998 24.5739C28.7892 25.3352 27.7795 28.8538 23.3276 28.8538C18.8757 28.8538 17.3362 25.4452 18.4138 24.5547C19.4155 23.7259 19.6175 22.779 19.6175 22.7699C19.6671 22.3074 19.6996 21.7993 19.7108 21.3884C19.0387 20.9804 18.4417 20.4599 17.9459 19.8496C17.2707 19.0216 16.7782 18.0602 16.5005 17.0286L16.2156 16.9851C15.8951 16.9316 15.594 16.7959 15.3416 16.5912C15.031 16.327 14.7809 15.9988 14.6086 15.6292C14.2432 14.8977 14.0859 14.0799 14.1539 13.2651C14.1635 13.0569 14.2167 12.853 14.3101 12.6667C14.3907 12.5317 14.5005 12.4164 14.6314 12.3293C14.7624 12.2422 14.9112 12.1856 15.0669 12.1635C15.2256 12.1401 15.3874 12.1512 15.5414 12.1961C15.6954 12.2409 15.8379 12.3185 15.9592 12.4234C15.9522 12.2757 15.9532 12.1276 15.9622 11.98Z" fill="white"/>
<path d="M21.4006 0.396732C19.7338 0.586921 18.0184 1.18676 16.6285 2.58585L17.2939 3.15382C16.1597 3.8546 15.2691 5.21233 14.8598 6.41408C14.3785 7.82801 14.2345 9.84021 14.8062 12.2174L14.8104 12.2349C14.8923 12.1999 14.9784 12.1755 15.0665 12.1624C15.2253 12.1391 15.3873 12.1503 15.5414 12.1953C15.6954 12.2404 15.838 12.3182 15.9592 12.4234L16.9152 11.854L16.9933 11.8071C19.0146 9.91566 20.1414 9.13253 21.9531 7.70937C21.9642 7.83555 22.3681 8.84529 22.4626 8.88367C22.579 8.93102 23.7468 8.20916 24.6971 7.62182L26.3012 7.81708C27.038 7.97826 27.7294 8.37854 28.3522 8.91437C29.4558 9.86401 30.3434 11.2393 30.8846 12.4627C31.0053 12.3442 31.1519 12.2554 31.3128 12.2033C31.4737 12.1512 31.6445 12.1372 31.8117 12.1624C31.8779 12.1723 31.943 12.1885 32.0061 12.2108C32.5604 10.7869 32.6416 8.72444 31.941 6.76727C31.4489 5.39133 30.2759 3.95243 29.3505 3.54772L28.2577 2.76941C27.1868 1.30084 25.4003 0.400765 23.114 0.330907C22.5421 0.311753 21.9695 0.333751 21.4006 0.396732Z" fill="#7A7473"/>
<path d="M31.1405 12.6444C31.3016 12.5116 31.5088 12.4477 31.7168 12.4669C31.9248 12.4861 32.1168 12.5867 32.2509 12.7468C32.4078 12.953 32.4178 13.2478 32.426 13.4954C32.4365 13.7662 32.4193 14.0375 32.3749 14.3049C32.2046 15.2923 31.6802 16.4956 30.5797 16.6835C30.5002 16.7061 30.4327 16.759 30.3919 16.8309C30.3511 16.9027 30.3402 16.9877 30.3615 17.0676C30.3851 17.1464 30.4383 17.213 30.5098 17.2537C30.5814 17.2943 30.6659 17.3057 30.7457 17.2856C31.8553 17.0962 32.5172 16.0603 32.8329 15.0625C33.0053 14.5192 33.0771 13.949 33.045 13.3798C33.012 12.8324 32.8546 12.3155 32.3521 12.0269C32.0922 11.8816 31.7937 11.8204 31.4976 11.8518C31.2015 11.8832 30.9225 12.0056 30.6988 12.2022C30.6409 12.261 30.6085 12.3403 30.6085 12.4229C30.6085 12.5055 30.6409 12.5848 30.6988 12.6437C30.7582 12.7007 30.8373 12.7325 30.9196 12.7325C31.0019 12.7325 31.081 12.7007 31.1403 12.6437L31.1405 12.6444Z" fill="#211715"/>
<path d="M30.3389 16.1544C30.3211 16.4738 30.2623 16.7896 30.164 17.094C30.1287 17.2135 30.0898 17.3316 30.0501 17.4496C30.0385 17.4842 30.0275 17.519 30.0148 17.5536C30.0112 17.5637 30.0068 17.5734 30.0033 17.5834C29.9785 17.6538 30.0137 17.5613 30.0042 17.5823C29.8602 17.8942 29.6955 18.1962 29.5111 18.4861C28.9832 19.3624 28.3081 20.1411 27.5155 20.788C27.0852 21.1412 26.5823 21.3953 26.0427 21.5322C25.6512 21.622 25.8169 22.2242 26.2087 22.1343C27.3198 21.8795 28.2495 21.078 28.9822 20.2402C29.605 19.553 30.1243 18.7787 30.5236 17.9417C30.783 17.3796 30.9322 16.773 30.9633 16.1548C30.9763 15.7528 30.3519 15.7533 30.3389 16.1548V16.1544Z" fill="#211715"/>
<path d="M16.1793 12.2021C15.9847 12.0298 15.747 11.9137 15.4916 11.8661C15.2361 11.8185 14.9725 11.8412 14.7289 11.9318C14.1919 12.1441 13.9224 12.5939 13.8538 13.1518C13.7231 14.2644 14.007 15.3863 14.6514 16.3028C15.0157 16.7951 15.5173 17.1797 16.1326 17.2848C16.2123 17.3044 16.2966 17.2927 16.368 17.2522C16.4394 17.2117 16.4926 17.1453 16.5166 17.0668C16.538 16.9869 16.5271 16.9019 16.4863 16.8301C16.4455 16.7582 16.3781 16.7053 16.2986 16.6827C15.1982 16.4948 14.6738 15.2908 14.5034 14.3041C14.4589 14.0367 14.4418 13.7654 14.4522 13.4945C14.4603 13.2474 14.4706 12.9519 14.6273 12.746C14.7616 12.5859 14.9537 12.4854 15.1618 12.4663C15.3698 12.4473 15.577 12.5113 15.738 12.6444C15.7976 12.701 15.8766 12.7326 15.9588 12.7326C16.041 12.7326 16.12 12.701 16.1796 12.6444C16.2374 12.5855 16.2699 12.5062 16.2699 12.4237C16.2699 12.3411 16.2374 12.2618 16.1796 12.2029L16.1793 12.2021Z" fill="#211715"/>
<path d="M15.9592 16.041C16.1343 17.147 16.5153 18.2104 17.0823 19.1761C17.7285 20.2392 18.6671 21.1998 19.7744 21.7818C20.3623 22.0913 21.0043 22.2848 21.6653 22.352C21.7479 22.3514 21.827 22.3183 21.8854 22.2599C21.9438 22.2014 21.9769 22.1224 21.9775 22.0397C21.9757 21.9575 21.9422 21.8791 21.884 21.821C21.8259 21.7628 21.7475 21.7293 21.6653 21.7275C19.417 21.4953 17.6667 19.481 16.9617 17.4551C16.7854 16.9404 16.6515 16.4122 16.5613 15.8757C16.5387 15.7962 16.4857 15.7288 16.4139 15.688C16.3421 15.6472 16.2571 15.6363 16.1772 15.6576C16.0986 15.6812 16.032 15.7342 15.9914 15.8056C15.9508 15.877 15.9393 15.9613 15.9592 16.041Z" fill="#211715"/>
<path d="M29.1933 3.81738C29.6252 4.03251 30.0087 4.33352 30.3203 4.70198C30.7187 5.14147 31.059 5.63047 31.3325 6.15688C31.9309 7.29983 32.1681 8.64988 32.1277 9.93203C32.1108 10.5845 32.0015 11.2312 31.8032 11.853C31.6788 12.2361 32.2815 12.4003 32.4053 12.019C32.8134 10.7613 32.8416 9.3923 32.615 8.09701C32.3895 6.75314 31.8076 5.49438 30.93 4.45195C30.5388 3.98948 30.0682 3.52897 29.5085 3.27764C29.4365 3.2383 29.3521 3.22798 29.2727 3.2488C29.1933 3.26963 29.1248 3.32001 29.0813 3.38965C29.0402 3.46131 29.0289 3.54627 29.0498 3.62619C29.0708 3.70611 29.1223 3.77459 29.1933 3.81686V3.81738Z" fill="#211715"/>
<path d="M17.8324 2.54698C16.4986 3.04652 15.5088 4.24983 14.9017 5.50154C14.3071 6.72879 14.0966 8.10187 14.1249 9.45751C14.1504 10.416 14.278 11.3691 14.5053 12.3006C14.5983 12.6909 15.2005 12.5259 15.1074 12.1346C14.491 9.54584 14.5322 6.5775 16.318 4.44002C16.7712 3.89742 17.3283 3.40036 17.9991 3.14916C18.0777 3.12522 18.1441 3.07203 18.1847 3.00056C18.2253 2.92909 18.2369 2.84478 18.2171 2.76501C18.1945 2.68539 18.1415 2.61786 18.0695 2.57705C17.9975 2.53624 17.9123 2.52544 17.8324 2.54698Z" fill="#211715"/>
<path d="M28.5283 2.61188C27.5144 1.23451 25.973 0.401819 24.2978 0.132797C22.5868 -0.141949 20.7074 0.00270876 19.0866 0.631424C18.0827 1.01654 17.1703 1.60704 16.4077 2.36511C16.123 2.64948 16.5645 3.09113 16.8492 2.80662C18.058 1.59915 19.6578 0.917357 21.3434 0.715721C22.9383 0.524882 24.6532 0.615813 26.1068 1.35614C26.8478 1.72634 27.4923 2.26417 27.9891 2.92696C28.0325 2.99664 28.101 3.04707 28.1804 3.06789C28.2598 3.08872 28.3442 3.07837 28.4163 3.03896C28.4873 2.99677 28.5389 2.92831 28.5598 2.84839C28.5808 2.76847 28.5695 2.68351 28.5283 2.61188Z" fill="#211715"/>
<path d="M25.0209 7.05563C24.3811 7.44823 23.7469 7.85033 23.0982 8.22798C22.9713 8.30187 22.8437 8.37485 22.7144 8.44432C22.6616 8.47268 22.6085 8.50064 22.5547 8.52718C22.5339 8.53733 22.5129 8.54696 22.4921 8.5571C22.4349 8.58507 22.4827 8.56113 22.4875 8.55957C22.4728 8.56241 22.4585 8.5675 22.4453 8.57466C22.4258 8.59899 22.3917 8.55307 22.449 8.57805C22.5239 8.59491 22.597 8.61918 22.6671 8.65051C22.6783 8.65883 22.7038 8.71425 22.6775 8.66039C22.6254 8.55476 22.5685 8.45225 22.5205 8.3448C22.4623 8.21471 22.4164 8.1014 22.3588 7.94894C22.3344 7.88468 22.3106 7.82015 22.2892 7.75485C22.2762 7.71582 22.2474 7.57169 22.2652 7.70958C22.2631 7.64878 22.2435 7.58989 22.2088 7.53991C22.1741 7.48993 22.1258 7.45097 22.0696 7.42767C22.0134 7.40437 21.9517 7.39771 21.8918 7.40848C21.8319 7.41925 21.7764 7.447 21.7319 7.48843C20.4644 8.4836 19.1732 9.44716 17.9593 10.5092C17.5301 10.8848 17.108 11.2683 16.693 11.6596C16.3993 11.9351 16.8415 12.376 17.1346 12.1011C18.3765 10.9362 19.6832 9.85889 21.0298 8.81819C21.4114 8.52332 21.7924 8.22724 22.173 7.92995L21.6396 7.7088C21.6962 7.98999 21.7902 8.26231 21.9192 8.51847C22.011 8.7348 22.124 9.11687 22.3835 9.18569C22.6209 9.24904 22.9008 9.05313 23.0977 8.94502C23.4376 8.75835 23.7693 8.55619 24.1002 8.3543C24.5129 8.10257 24.9229 7.84695 25.3348 7.59406C25.6768 7.38423 25.3634 6.84384 25.0197 7.05485L25.0209 7.05563Z" fill="#211715"/>
<path d="M26.218 8.11837C27.2695 8.35657 28.1391 9.05176 28.8458 9.83905C29.5467 10.6348 30.1243 11.5311 30.5595 12.498C30.6017 12.5691 30.6702 12.6206 30.7501 12.6416C30.8301 12.6625 30.915 12.6512 30.9867 12.6101C31.0568 12.567 31.1075 12.4985 31.1284 12.419C31.1492 12.3394 31.1386 12.2549 31.0987 12.183C30.6304 11.1522 30.0071 10.1991 29.2505 9.35681C28.483 8.51241 27.5155 7.7726 26.3838 7.5162C25.9925 7.42761 25.8254 8.02939 26.2178 8.11837H26.218Z" fill="#211715"/>
<path d="M19.9258 22.8089C19.9732 22.3363 20.0096 21.8632 20.0234 21.3884C20.0227 21.3058 19.9896 21.2268 19.9312 21.1684C19.8728 21.11 19.7938 21.0769 19.7112 21.0762C19.6289 21.0778 19.5504 21.1112 19.4922 21.1694C19.434 21.2276 19.4006 21.3061 19.399 21.3884C19.3852 21.8632 19.3487 22.3363 19.3014 22.8089C19.3017 22.8917 19.3346 22.9709 19.3931 23.0294C19.4516 23.0879 19.5309 23.1209 19.6136 23.1212C19.6957 23.119 19.7739 23.0854 19.832 23.0273C19.8901 22.9692 19.9236 22.8911 19.9258 22.8089Z" fill="#211715"/>
<path d="M26.9126 21.4011C26.9216 21.8781 26.9547 22.3543 27.0116 22.828C27.0136 22.9102 27.0471 22.9885 27.1052 23.0466C27.1634 23.1047 27.2416 23.1382 27.3238 23.1402C27.4764 23.1335 27.6566 23.0018 27.636 22.828C27.5791 22.3543 27.5461 21.8781 27.537 21.4011C27.537 21.3183 27.5041 21.2389 27.4456 21.1803C27.387 21.1218 27.3076 21.0889 27.2248 21.0889C27.142 21.0889 27.0626 21.1218 27.004 21.1803C26.9455 21.2389 26.9126 21.3183 26.9126 21.4011Z" fill="#211715"/>
<path d="M7.01807 42.3571C7.37875 40.14 7.76701 37.8137 8.23194 35.3284C8.44398 34.307 8.74085 33.0419 9.0221 32.2889C9.22113 31.7562 9.64405 30.5524 9.93831 30.0659C10.5591 29.0393 11.3927 28.0686 12.3961 27.4113C14.2531 26.1947 16.0886 25.5496 18.1471 24.7315L18.1454 24.7054C18.1349 24.5331 18.8791 23.1616 19.1204 22.5384C19.1366 22.4968 19.1579 22.4502 19.2007 22.4376C19.2473 22.4238 19.2935 22.4577 19.3308 22.4897C19.7436 22.8441 22.0093 24.6898 22.2523 24.9873C22.3359 25.2689 22.4803 25.6408 22.7232 26.404C22.9193 26.8687 23.271 27.7344 23.4595 28.1404C23.7304 27.5726 24.0839 26.734 24.3635 26.059C24.4989 25.6468 24.6078 25.1852 24.6669 24.9867C24.9099 24.6889 27.1756 22.8432 27.5884 22.489C27.6253 22.4573 27.6714 22.424 27.7185 22.437C27.7611 22.45 27.7825 22.4962 27.7986 22.5378C28.0709 23.2403 28.9833 24.8965 28.7296 24.7078C30.811 25.5371 32.6639 26.1829 34.5381 27.4108C35.5416 28.0681 36.375 29.0388 36.9958 30.0653C37.2902 30.5519 37.713 31.7557 37.912 32.2884C38.1934 33.0414 38.4903 34.3065 38.7022 35.3279C39.1369 37.6513 39.5255 39.8089 39.8848 41.8714C32.5024 47.5005 18.5024 49.5005 7.01807 42.3571Z" fill="#1BD0AF"/>
<path d="M33.7856 33.7421C33.5228 35.6653 33.3791 37.603 33.3554 39.544C33.3363 40.9415 33.3424 42.3391 33.3496 43.7367C33.3545 44.7097 33.3486 44.0274 33.3496 45.0005C33.3496 45.4022 33.974 45.4029 33.974 45.0005C33.974 43.423 33.9692 43.5009 33.9667 41.9234C33.9644 40.3304 33.9667 38.735 34.0657 37.1445C34.1332 36.0623 34.2405 34.9834 34.3877 33.9079C34.4069 33.8282 34.395 33.7442 34.3545 33.6729C34.3141 33.6015 34.248 33.5483 34.1697 33.5239C34.0898 33.5025 34.0048 33.5134 33.9329 33.5542C33.8611 33.595 33.8081 33.6626 33.7856 33.7421Z" fill="#211715"/>
<path d="M12.681 33.908C13.1338 37.1862 13.1112 40.4851 13.0945 43.7861C13.0898 44.7426 13.1031 44.0438 13.1021 45.0005C13.1021 45.4022 13.7265 45.4029 13.7265 45.0005C13.7265 43.4081 13.7244 43.471 13.7265 41.8788C13.7286 40.2787 13.7253 38.6774 13.6235 37.0805C13.5522 35.9637 13.4363 34.8506 13.2832 33.742C13.2607 33.6625 13.2078 33.595 13.1359 33.5541C13.064 33.5133 12.979 33.5025 12.8992 33.524C12.8205 33.5478 12.754 33.601 12.7134 33.6725C12.6728 33.7439 12.6612 33.8282 12.681 33.908Z" fill="#211715"/>
<path d="M23.7287 27.9825C23.6011 27.7062 23.4841 27.4251 23.3669 27.1442C23.241 26.8425 23.0946 26.5411 22.9947 26.2298C22.8891 25.9008 22.7771 25.574 22.6652 25.2473C22.6002 25.0581 22.5611 24.8544 22.4189 24.7078C22.1478 24.428 21.8367 24.1815 21.5401 23.9299C21.1308 23.5827 20.718 23.2397 20.3051 22.897C20.1386 22.7588 19.9722 22.6206 19.8057 22.4824C19.6663 22.3662 19.5058 22.1849 19.3297 22.1363C19.0602 22.0622 18.8975 22.2623 18.8094 22.4815C18.7808 22.5522 18.7996 22.5084 18.7676 22.5816C18.7388 22.648 18.7091 22.714 18.6787 22.7798C18.5526 23.0539 18.4185 23.3247 18.2872 23.5961C18.1737 23.8294 18.0587 24.0626 17.9564 24.3013C17.8867 24.4641 17.8003 24.6365 17.8523 24.8173C17.9102 24.9754 17.985 25.1268 18.0754 25.2687C18.2096 25.51 18.3508 25.7475 18.495 25.9829C18.8592 26.612 19.269 27.2137 19.7209 27.7831C19.7899 27.8691 19.8862 27.9289 19.9939 27.9525C20.1016 27.9762 20.2141 27.9623 20.3128 27.9132C20.521 27.8038 20.6086 27.5229 20.7105 27.3246C20.9213 26.9133 21.1348 26.5034 21.3508 26.0948C21.5389 25.7399 20.9996 25.4241 20.8117 25.7796C20.637 26.1091 20.4642 26.4398 20.2936 26.7715C20.2186 26.9169 20.144 27.0625 20.0696 27.2081L20.0029 27.3382C19.928 27.4846 19.9456 27.3684 20.1367 27.3477C20.2089 27.3399 20.1866 27.3974 20.1627 27.3422C20.1493 27.3206 20.1337 27.3004 20.1161 27.282C19.7624 26.819 19.4437 26.328 19.1363 25.8336C18.9053 25.462 18.6705 25.0867 18.4762 24.6943C18.4652 24.672 18.4559 24.6481 18.4437 24.6265C18.4226 24.5889 18.4644 24.7057 18.4506 24.6395C18.4429 24.6024 18.4582 24.7175 18.458 24.7054C18.458 24.6689 18.423 24.7825 18.4519 24.7489C18.4633 24.724 18.4713 24.6978 18.4758 24.6708C18.4889 24.6353 18.5028 24.6005 18.5171 24.5657C18.4911 24.6283 18.5402 24.5146 18.548 24.4972C18.5985 24.3852 18.6512 24.2742 18.7042 24.1634C18.832 23.8967 18.9634 23.6317 19.0908 23.3649C19.1522 23.2361 19.2131 23.1071 19.2712 22.9768C19.3162 22.8529 19.3707 22.7327 19.4342 22.6171L19.3222 22.7292L19.3584 22.7066L19.2008 22.7493H19.247L19.0893 22.7066C19.12 22.7175 19.1475 22.7358 19.1692 22.76C19.1997 22.786 19.2304 22.812 19.2603 22.8371C19.3451 22.9082 19.4301 22.9789 19.5152 23.0494C19.74 23.236 19.9647 23.4224 20.1894 23.6088C20.6668 24.0058 21.1451 24.4023 21.6115 24.8125C21.761 24.9332 21.9011 25.0651 22.0306 25.2071L21.9504 25.0693C22.2872 26.1729 22.7011 27.2515 23.1891 28.297C23.2314 28.368 23.2998 28.4195 23.3797 28.4405C23.4597 28.4614 23.5446 28.4501 23.6163 28.4091C23.6863 28.3659 23.7371 28.2975 23.7579 28.2179C23.7788 28.1383 23.7682 28.0538 23.7283 27.9818L23.7287 27.9825Z" fill="#211715"/>
<path d="M28.6485 25.0105C30.3361 25.6822 32.0508 26.3031 33.6275 27.2172C34.386 27.6363 35.075 28.1704 35.6699 28.8006C36.2023 29.3636 36.6408 30.0086 36.9685 30.7108C37.56 32.0886 38.0097 33.5229 38.3107 34.9916C38.5201 35.9565 38.6831 36.9326 38.8602 37.9038C39.0329 38.8512 39.2031 39.7991 39.3706 40.7476C39.7199 42.725 39.2282 39.6847 39.5554 41.6661C39.578 41.7456 39.6309 41.813 39.7028 41.8538C39.7747 41.8946 39.8597 41.9055 39.9395 41.8841C40.0184 41.8606 40.0852 41.8075 40.126 41.736C40.1667 41.6644 40.1783 41.5799 40.1582 41.5C39.5394 37.7571 39.73 39.0349 39.015 35.3092C38.8506 34.4331 38.6396 33.5665 38.3827 32.713C38.1843 32.0644 37.9351 31.4241 37.6786 30.7966C37.5627 30.4907 37.4246 30.1938 37.2653 29.9082C37.0273 29.512 36.7614 29.1334 36.4694 28.7751C35.9126 28.0829 35.2455 27.4872 34.4948 27.0122C32.7256 25.8904 30.752 25.1791 28.8151 24.4082C28.7353 24.3868 28.6503 24.3977 28.5784 24.4385C28.5066 24.4793 28.4536 24.5467 28.4311 24.6262C28.4111 24.706 28.4226 24.7904 28.4632 24.862C28.5038 24.9335 28.5697 24.9868 28.6485 25.0105Z" fill="#211715"/>
<path d="M18.1225 24.0107C16.4037 24.6949 14.6533 25.3262 13.0445 26.2515C12.2364 26.6939 11.5005 27.2569 10.8622 27.9212C10.3026 28.5005 9.83626 29.1632 9.47988 29.8855C8.85095 31.2909 8.37466 32.7597 8.05919 34.2668C7.84272 35.2471 7.67712 36.2391 7.50319 37.2277C7.33459 38.1859 7.1709 39.1449 7.01211 40.1047C6.67479 42.138 7.04712 39.9658 6.71098 42C6.69142 42.0798 6.70311 42.164 6.74364 42.2354C6.78418 42.3068 6.8505 42.36 6.929 42.3841C7.00885 42.4055 7.09388 42.3945 7.16574 42.3537C7.23761 42.3129 7.29055 42.2455 7.31315 42.166C7.92457 38.462 7.80304 38.9598 8.48926 35.2688C8.65148 34.3959 8.85272 33.5243 9.10067 32.6716C9.28709 32.03 9.52996 31.4016 9.77505 30.7803C9.88608 30.4805 10.0164 30.1883 10.1653 29.9054C10.3643 29.5548 10.5905 29.2203 10.8418 28.905C11.375 28.2154 12.0233 27.623 12.7581 27.1539C14.4834 26.0603 16.4005 25.3643 18.2885 24.6129C18.367 24.5888 18.4333 24.5356 18.4739 24.4642C18.5144 24.3928 18.5261 24.3085 18.5065 24.2288C18.484 24.1493 18.4311 24.0818 18.3593 24.041C18.2874 24.0002 18.2023 23.9893 18.1225 24.0107Z" fill="#211715"/>
<path d="M23.7287 28.298C23.9867 27.7549 24.2207 27.2004 24.4537 26.6459C24.5734 26.3752 24.6771 26.0977 24.7642 25.8149C24.8355 25.5677 24.8953 25.3169 24.9674 25.0697L24.8871 25.2075C24.9946 25.0886 25.1108 24.9778 25.2347 24.8761C25.4451 24.6892 25.6593 24.5067 25.8741 24.325C26.3547 23.9179 26.84 23.5165 27.3246 23.1142C27.4219 23.0335 27.5191 22.9526 27.6163 22.8716C27.6542 22.8399 27.6922 22.8081 27.7301 22.7763C27.7589 22.7477 27.7923 22.7242 27.8289 22.7068L27.6714 22.7495H27.7176L27.5601 22.7068L27.5962 22.7293L27.4842 22.6173C27.5991 22.8286 27.6991 23.0477 27.7834 23.2729C27.8961 23.5113 28.0125 23.7478 28.1276 23.9849C28.1834 24.1 28.2391 24.2152 28.2935 24.3309C28.3149 24.3767 28.3362 24.4227 28.3572 24.4687C28.3679 24.492 28.3783 24.5155 28.3888 24.539C28.395 24.552 28.4279 24.6309 28.4011 24.5659C28.4241 24.6212 28.4391 24.6811 28.463 24.735C28.476 24.7644 28.4581 24.8076 28.4601 24.6968C28.4601 24.7265 28.4527 24.7252 28.4695 24.6317C28.4592 24.6889 28.4686 24.6352 28.4773 24.6187C28.0214 25.488 27.5025 26.3228 26.9247 27.1164C26.8844 27.1717 26.8435 27.2266 26.8022 27.2809C26.7959 27.2891 26.7738 27.3148 26.7673 27.3261C26.7556 27.341 26.7438 27.3559 26.732 27.3707C26.8045 27.3202 26.8793 27.3359 26.9562 27.4177C26.9692 27.3732 26.848 27.206 26.8226 27.1565C26.7768 27.067 26.731 26.9777 26.6851 26.8885C26.4943 26.5173 26.3014 26.1473 26.1063 25.7786C25.9181 25.4234 25.379 25.7385 25.5671 26.0938C25.7579 26.4546 25.9468 26.8167 26.1338 27.1799C26.2965 27.4966 26.4542 28.0466 26.913 27.9539C27.2114 27.8937 27.3986 27.5246 27.5634 27.2929C27.7512 27.0295 27.9307 26.7603 28.1055 26.4882C28.3935 26.04 28.6766 25.5851 28.9262 25.1142C29.0103 24.9905 29.0643 24.849 29.0842 24.7008C29.0851 24.5187 28.975 24.3278 28.902 24.1674C28.6754 23.6661 28.4179 23.1794 28.1923 22.6775C28.1733 22.6351 28.1331 22.5433 28.1272 22.5279C28.1189 22.5079 28.08 22.4016 28.0574 22.3588C28.0305 22.3031 27.9913 22.2541 27.9428 22.2157C27.8944 22.1773 27.8378 22.1503 27.7774 22.1368C27.717 22.1233 27.6543 22.1237 27.5941 22.1379C27.5339 22.1521 27.4776 22.1797 27.4296 22.2187C27.3046 22.3066 27.1909 22.4157 27.0735 22.5134C26.334 23.1287 25.5865 23.7362 24.864 24.3709C24.7366 24.4828 24.6058 24.5937 24.4888 24.7168C24.4092 24.8051 24.3542 24.9127 24.3293 25.029C24.2783 25.2174 24.2301 25.4063 24.1767 25.5942C24.0457 26.0139 23.888 26.4247 23.7045 26.8242C23.5386 27.2127 23.3699 27.6002 23.1887 27.982C23.1491 28.054 23.1387 28.1384 23.1595 28.2179C23.1804 28.2974 23.2309 28.3659 23.3007 28.4092C23.3724 28.4502 23.4573 28.4615 23.5372 28.4405C23.6171 28.4196 23.6856 28.3681 23.7279 28.2972L23.7287 28.298Z" fill="#211715"/>
<path d="M23.1468 28.14C23.1468 30.8909 23.1565 33.6419 23.1759 36.3929C23.19 38.9453 23.2053 41.4977 23.2218 44.0501C23.2267 44.9186 23.2324 45.7872 23.2324 46.6556C23.2324 47.0573 23.8568 47.058 23.8568 46.6556C23.8568 44.7685 23.8395 42.8813 23.8278 40.9942C23.8105 38.1999 23.7951 35.4056 23.7819 32.6113C23.7757 31.1208 23.7722 29.6303 23.7712 28.14C23.7712 27.7382 23.1468 27.7375 23.1468 28.14Z" fill="#211715"/>
<path d="M22.1514 18.3889C22.5863 18.6135 23.0707 18.7253 23.5601 18.7141C24.0587 18.711 24.5691 18.6155 24.9693 18.3037C25.0275 18.2449 25.0601 18.1656 25.0601 18.0829C25.0601 18.0003 25.0275 17.9209 24.9693 17.8622C24.9098 17.8055 24.8308 17.7739 24.7486 17.7739C24.6664 17.7739 24.5874 17.8055 24.5278 17.8622C24.6189 17.7914 24.5347 17.8549 24.5114 17.8698C24.4825 17.8883 24.4528 17.9055 24.4224 17.9219C24.4038 17.9316 24.3028 17.976 24.375 17.947C24.3345 17.9632 24.2937 17.9783 24.2522 17.9916C24.0134 18.0661 23.7637 18.0994 23.5138 18.0902C23.2754 18.0952 23.0376 18.0632 22.809 17.9954C22.7641 17.9824 22.7201 17.9658 22.6759 17.9506C22.6613 17.9455 22.6473 17.9392 22.6328 17.9338C22.7109 17.9625 22.6449 17.9392 22.6297 17.9321C22.5746 17.9061 22.5203 17.879 22.4666 17.8507C22.3947 17.8107 22.3101 17.7999 22.2304 17.8208C22.1508 17.8417 22.0824 17.8925 22.0394 17.9627C21.9985 18.0344 21.9873 18.1193 22.0082 18.1991C22.0292 18.2789 22.0806 18.3474 22.1514 18.3898V18.3889Z" fill="#211715"/>
<path d="M23.4295 15.0338C23.4959 15.2732 23.549 15.5161 23.5886 15.7613L23.5774 15.6783C23.5821 15.7116 23.5831 15.7453 23.5801 15.7788L23.5913 15.6958C23.589 15.7111 23.5853 15.7262 23.5803 15.7409L23.6117 15.6662C23.6073 15.6764 23.602 15.6862 23.5957 15.6954L23.6445 15.6322C23.6375 15.6408 23.6296 15.6486 23.6208 15.6556L23.6839 15.6068C23.6655 15.6183 23.6463 15.6285 23.6264 15.6372L23.701 15.6058C23.6699 15.6191 23.6372 15.6286 23.6038 15.6341L23.6868 15.6229C23.6566 15.6265 23.626 15.6265 23.5957 15.6229L23.6787 15.6341C23.6443 15.6293 23.6106 15.6211 23.5762 15.6163C23.4948 15.5973 23.4093 15.6085 23.3356 15.6478C23.3002 15.6685 23.2692 15.6959 23.2444 15.7286C23.2196 15.7613 23.2015 15.7985 23.1911 15.8382C23.1807 15.8778 23.1782 15.9192 23.1837 15.9598C23.1893 16.0004 23.2029 16.0396 23.2236 16.075C23.2434 16.1102 23.2702 16.141 23.3022 16.1656C23.3343 16.1902 23.3711 16.2081 23.4102 16.2181C23.4831 16.2278 23.5533 16.2466 23.6277 16.2498C23.7367 16.2506 23.8443 16.2253 23.9415 16.1762C24.002 16.1493 24.0556 16.1092 24.0984 16.0587C24.1412 16.0083 24.1721 15.9488 24.1887 15.8848C24.2105 15.7789 24.2093 15.6695 24.1852 15.5641C24.1461 15.33 24.0914 15.0974 24.0311 14.8675C24.0091 14.7877 23.9563 14.7198 23.8843 14.6789C23.8122 14.638 23.7269 14.6274 23.6471 14.6494C23.5672 14.6714 23.4994 14.7243 23.4585 14.7963C23.4176 14.8683 23.407 14.9536 23.429 15.0335L23.4295 15.0338Z" fill="#211715"/>
<path d="M19.5236 12.9897C19.4021 13.3845 19.4813 14.2926 20.2294 14.37C21.218 14.3641 21.2701 13.266 20.9377 12.7498C20.6658 12.327 19.8646 12.1513 19.5236 12.9897Z" fill="#211715"/>
<path d="M27.4406 12.9897C27.5623 13.3845 27.483 14.2928 26.735 14.3701C25.7464 14.3641 25.6943 13.266 26.0266 12.7497C26.2991 12.327 27.1002 12.1513 27.4406 12.9897Z" fill="#211715"/>
<path d="M28.9453 16.0137C29.5889 14.7804 30.1211 13.4446 31.0788 12.409C31.3512 12.1142 30.9107 11.6715 30.6373 11.9673C29.6397 13.0471 29.0772 14.413 28.4066 15.6985C28.221 16.0544 28.7597 16.3704 28.9459 16.0137H28.9453Z" fill="#211715"/>
<path d="M18.6579 15.6983C17.926 14.3974 17.3416 12.9906 16.2697 11.9158C15.9856 11.6309 15.544 12.0719 15.8282 12.3574C16.8594 13.3914 17.4144 14.7614 18.1188 16.0135C18.3159 16.3637 18.8555 16.0493 18.6579 15.6983Z" fill="#211715"/>
<path d="M23.4562 14.2764C22.9785 14.2801 20.0032 15.1029 18.8915 15.4405C18.6703 15.5076 18.4272 15.5605 18.2771 15.7289C18.1125 15.9137 18.1159 16.1771 18.089 16.4184C18.0269 16.9723 18.0643 19.2846 18.0827 19.9018C18.0894 20.1229 18.3169 20.5678 18.4778 20.7272C19.2123 21.4521 21.8116 22.5354 23.4602 22.7271C25.1098 22.5344 27.4872 21.4629 28.4414 20.7272C28.6227 20.5872 28.83 20.1233 28.8365 19.9018C28.8549 19.2846 28.8923 16.9723 28.8303 16.4184C28.8033 16.1777 28.8068 15.9143 28.6421 15.7289C28.492 15.5598 28.2489 15.5078 28.0278 15.4405C26.9126 15.1022 23.9268 14.2764 23.4562 14.2764Z" fill="white"/>
<path d="M23.4561 13.9641C23.1038 13.9921 22.7553 14.0569 22.4165 14.1575C21.8718 14.2867 21.3302 14.4296 20.7904 14.5761C20.2639 14.7188 19.7388 14.8662 19.2151 15.0184C18.9691 15.0902 18.7135 15.1518 18.4751 15.2453C18.2901 15.3105 18.1282 15.4285 18.0096 15.5847C17.891 15.7409 17.8207 15.9285 17.8076 16.1242C17.7588 16.5744 17.7374 17.0271 17.7436 17.4799C17.7405 18.0418 17.7461 18.6035 17.7553 19.1652C17.7587 19.3779 17.763 19.5906 17.7683 19.8034C17.7805 20.0743 17.8577 20.3381 17.9935 20.5728C18.2397 21.0303 18.6849 21.3099 19.1262 21.5585C20.2775 22.2046 21.5217 22.6692 22.8148 22.9358C22.9563 22.9646 23.0987 22.9896 23.2416 23.0099C23.4253 23.0337 23.6115 23.0278 23.7933 22.9924C24.1099 22.9396 24.4233 22.8689 24.7319 22.7806C25.4223 22.5822 26.097 22.3327 26.7505 22.0342C27.3118 21.7911 27.8512 21.5003 28.3629 21.1652C28.607 21.0193 28.8077 20.8109 28.9444 20.5616C29.0728 20.3209 29.1437 20.0538 29.1515 19.7811C29.1775 18.7705 29.2007 17.7546 29.1627 16.7442C29.1549 16.5227 29.136 16.3018 29.106 16.0823C29.0853 15.8858 29.007 15.6999 28.881 15.5478C28.755 15.3957 28.5868 15.2842 28.3977 15.2273C27.9267 15.0552 27.4279 14.9365 26.9455 14.8009C25.9308 14.5159 24.9088 14.2145 23.8723 14.0195C23.7354 13.9889 23.5961 13.9701 23.456 13.9634C23.0542 13.9587 23.0539 14.5831 23.456 14.5878C23.4913 14.5878 23.635 14.6103 23.5243 14.5908C23.6005 14.6038 23.6769 14.6157 23.7529 14.6298C23.9454 14.6674 24.1368 14.7113 24.3276 14.7564C24.8398 14.8778 25.3489 15.0114 25.857 15.1485C26.3652 15.2856 26.8729 15.4269 27.3791 15.5732C27.5759 15.6302 27.7721 15.6889 27.9684 15.7473C28.113 15.7728 28.2514 15.8258 28.3761 15.9034C28.4647 16.0043 28.5105 16.1358 28.5037 16.27C28.5938 17.2047 28.5557 18.1556 28.5409 19.0929C28.5375 19.3026 28.5335 19.5123 28.5288 19.722C28.5246 19.9816 28.4398 20.2335 28.2862 20.4428C28.295 20.4323 28.3017 20.4218 28.2661 20.4627C28.2032 20.5355 28.2889 20.4482 28.2473 20.4829C28.1554 20.5551 28.0594 20.6219 27.9598 20.683C27.7358 20.8287 27.5034 20.9616 27.2676 21.0872C26.1397 21.6875 24.8937 22.1848 23.6275 22.3888C23.3813 22.4105 23.1332 22.3853 22.8964 22.3147C22.5994 22.2513 22.3055 22.1733 22.0146 22.0857C21.4061 21.9036 20.8106 21.6802 20.2324 21.4172C19.7536 21.2121 19.2979 20.9567 18.873 20.6553C18.8277 20.6213 18.9263 20.699 18.8554 20.6423C18.8376 20.6279 18.8199 20.6134 18.8025 20.5985C18.7732 20.5737 18.7441 20.5483 18.7166 20.5215C18.633 20.4318 18.564 20.3293 18.5124 20.218C18.425 20.0637 18.3828 19.8879 18.3908 19.7107C18.3676 18.7371 18.3469 17.7594 18.3798 16.7862C18.3863 16.5977 18.3979 16.4089 18.4208 16.2215C18.42 16.1065 18.4617 15.9954 18.5379 15.9093C18.6705 15.8235 18.8194 15.7659 18.9753 15.7401C19.4117 15.6095 19.8494 15.4831 20.2884 15.3608C21.2444 15.0939 22.2064 14.8144 23.1818 14.6265C23.2501 14.6135 23.3189 14.6029 23.3874 14.5907C23.4318 14.5828 23.3069 14.5968 23.3979 14.5907C23.4176 14.5893 23.4369 14.5877 23.4569 14.5873C23.8575 14.5808 23.8589 13.9564 23.4561 13.9641Z" fill="#211715"/>
</g>
<defs>
<clipPath id="clip0_1028_2594">
<rect width="47" height="47" fill="white"/>
</clipPath>
</defs>
</svg>