<svg width="77" height="77" viewBox="0 0 77 77" fill="none" xmlns="http://www.w3.org/2000/svg">
    <path d="M38.2729 76.0695C59.4105 76.0695 76.5459 59.0407 76.5459 38.0347C76.5459 17.0287 59.4105 0 38.2729 0C17.1354 0 0 17.0287 0 38.0347C0 59.0407 17.1354 76.0695 38.2729 76.0695Z" fill="#009980"/>
    <path d="M55.3514 27.8653L52.1928 24.6599C51.7595 24.2199 51.2326 24 50.6134 24C49.994 24 49.4674 24.2199 49.0338 24.6599L33.7964 40.146L26.9679 33.1913C26.5343 32.7513 26.0077 32.5314 25.3886 32.5314C24.7691 32.5314 24.2425 32.7513 23.8089 33.1913L20.6503 36.3967C20.2167 36.8367 20 37.3711 20 37.9997C20 38.6281 20.2167 39.1627 20.6503 39.6024L29.0581 48.1347L32.2168 51.3401C32.6501 51.7801 33.1766 52 33.7961 52C34.4153 52 34.9421 51.7798 35.3754 51.3401L38.5341 48.1347L55.3497 31.0702C55.7831 30.6301 56 30.0958 56 29.4672C56 28.8388 55.7831 28.3042 55.3497 27.8644" fill="white"/>
    </svg>
    