<svg width="12" height="16" viewBox="0 0 12 16" fill="none" xmlns="http://www.w3.org/2000/svg">
<path d="M6 14.7081C4.20817 13.1452 2.8768 11.7062 1.98757 10.3919C1.03399 8.98252 0.6 7.73965 0.6 6.65C0.6 4.91624 1.15116 3.59203 2.21615 2.60981C3.31571 1.59571 4.56875 1.1 6 1.1C7.43125 1.1 8.68429 1.59571 9.78385 2.60981C10.8488 3.59203 11.4 4.91624 11.4 6.65C11.4 7.73965 10.966 8.98252 10.0124 10.3919C9.1232 11.7062 7.79183 13.1452 6 14.7081Z" stroke="#1A1A1A" stroke-width="1.2"/>
<path d="M8.19998 6.61852C8.19998 7.69673 7.31206 8.58431 6.19998 8.58431C5.08789 8.58431 4.19998 7.69673 4.19998 6.61852C4.19998 5.54032 5.08789 4.65273 6.19998 4.65273C7.31206 4.65273 8.19998 5.54032 8.19998 6.61852Z" stroke="#1A1A1A" stroke-width="1.2"/>
</svg>
