<svg width="65" height="71" viewBox="0 0 65 71" fill="none" xmlns="http://www.w3.org/2000/svg">
<path d="M11.954 34.3792V28.021C11.954 22.3734 14.1974 16.957 18.1906 12.9636C22.1839 8.97008 27.5999 6.72656 33.2471 6.72656C38.8944 6.72656 44.3104 8.97008 48.3036 12.9636C52.2969 16.957 54.5402 22.3734 54.5402 28.021V34.3792" stroke="#4D4D4D" stroke-width="2.5" stroke-linecap="round"/>
<path d="M11.4204 34.3789H16.4368V49.3263H11.4204C10.5711 49.3263 9.7567 48.9732 9.15622 48.3447C8.55573 47.7161 8.21838 46.8637 8.21838 45.9748V37.7303C8.21838 36.8415 8.55573 35.989 9.15622 35.3605C9.7567 34.732 10.5711 34.3789 11.4204 34.3789Z" stroke="#4D4D4D" stroke-width="2.5" stroke-linecap="round"/>
<path d="M55.0739 49.3262H50.0575V34.3788H55.0739C55.9231 34.3788 56.7376 34.7319 57.338 35.3604C57.9385 35.9889 58.2759 36.8414 58.2759 37.7302V45.9747C58.2759 46.8636 57.9385 47.716 57.338 48.3446C56.7376 48.9731 55.9231 49.3262 55.0739 49.3262Z" stroke="#4D4D4D" stroke-width="2.5" stroke-linecap="round"/>
<path d="M54.5402 49.3262V54.7238C54.5402 55.8691 54.0827 56.9674 53.2683 57.7772C52.4539 58.587 51.3494 59.042 50.1976 59.042H38.1035" stroke="#4D4D4D" stroke-width="2.5" stroke-linecap="round"/>
<path d="M35.8897 56.7998H31.3516C30.1291 56.7998 29.1379 57.7238 29.1379 58.8635V59.9676C29.1379 61.1074 30.1291 62.0314 31.3516 62.0314H35.8897C37.1123 62.0314 38.1035 61.1074 38.1035 59.9676V58.8635C38.1035 57.7238 37.1123 56.7998 35.8897 56.7998Z" stroke="#4D4D4D" stroke-width="2.5" stroke-linecap="round"/>
</svg>
