<svg width="33" height="33" viewBox="0 0 33 33" fill="none" xmlns="http://www.w3.org/2000/svg">
<g id="Group 1139">
<path id="Vector" d="M16.5 32.9997C25.6127 32.9997 33 25.6584 33 16.6024C33 7.5464 25.6127 0.205078 16.5 0.205078C7.3873 0.205078 0 7.5464 0 16.6024C0 25.6584 7.3873 32.9997 16.5 32.9997Z" fill="#009980"/>
<g id="Group">
<path id="Vector_2" d="M8.6875 11.7617L11.1568 13.5834V17.7668H14.9275V13.5834L17.3967 11.7617V22.2884L14.9275 24.4368V19.9056H11.1568V22.6459L8.6875 24.4349V11.7617Z" fill="white"/>
<path id="Vector_3" d="M21.3204 11.7617H25.8916V13.8198H21.4673V16.3371H25.2457L23.8129 18.3952H21.4673V22.3346H18.998V14.0696C19 12.7936 20.0384 11.7617 21.3204 11.7617Z" fill="white"/>
</g>
</g>
</svg>
