<svg width="27" height="28" viewBox="0 0 27 28" fill="none" xmlns="http://www.w3.org/2000/svg">
<path d="M18.668 21.1191V13.6309L22.9922 10.3086V19.5371C22.9922 20.5918 22.4648 21.1191 21.4102 21.1191" fill="#4285F4"/>
<path d="M18.8789 13.5781L13.5 17.6387L8.12109 13.5781V8.41016L13.5 12.4707L18.8789 8.41016" fill="#EA4335"/>
<path d="M8.33203 21.1191V13.6309L4.00781 10.3086V19.5371C4.00781 20.5918 4.53516 21.1191 5.58984 21.1191" fill="#34A853"/>
<path d="M22.9922 10.4142L18.668 13.7365V8.56853L20.25 7.35564C21.6738 6.24822 22.9922 7.35564 22.9922 8.72673" fill="#C5221F"/>
<path d="M4.00781 10.4142L8.33203 13.7365V8.56853L6.75 7.35564C5.32617 6.24822 4.00781 7.35564 4.00781 8.72673" fill="#FBBC04"/>
</svg>
