<svg width="21" height="19" viewBox="0 0 21 19" fill="none" xmlns="http://www.w3.org/2000/svg">
<path fill-rule="evenodd" clip-rule="evenodd" d="M5.18715 1.40551C4.81116 0.58995 4.41529 0.573623 4.05758 0.559354C3.76499 0.547109 3.43003 0.547861 3.09561 0.547861C2.76092 0.547861 2.21705 0.670569 1.75712 1.16062C1.29692 1.65067 0 2.83534 0 5.24475C0 7.65441 1.79896 9.98271 2.04971 10.3097C2.30072 10.6363 5.52238 15.7387 10.6246 17.7017C14.8649 19.3331 15.7278 19.0086 16.6482 18.927C17.5686 18.8453 19.618 17.7425 20.0364 16.5989C20.4548 15.4556 20.4548 14.4755 20.3292 14.2706C20.2037 14.0665 19.869 13.9441 19.367 13.6992C18.865 13.4543 16.3972 12.2694 15.937 12.1061C15.4768 11.9428 15.1421 11.8612 14.8074 12.3515C14.4727 12.8413 13.5112 13.9441 13.2184 14.2706C12.9255 14.5979 12.6327 14.6387 12.1307 14.3938C11.6286 14.1482 10.0119 13.6316 8.094 11.9632C6.60175 10.6653 5.59427 9.06223 5.30141 8.57195C5.00856 8.08216 5.27002 7.81686 5.52184 7.57272C5.74722 7.35332 6.02388 7.00103 6.27489 6.71506C6.52537 6.42909 6.60905 6.22501 6.77639 5.89848C6.94374 5.57144 6.86006 5.2855 6.73455 5.0406C6.60905 4.79571 5.63349 2.37386 5.18715 1.40551Z" fill="#16739D"/>
</svg>
