<svg width="20" height="20" viewBox="0 0 20 20" fill="none" xmlns="http://www.w3.org/2000/svg">
<path d="M13.1961 4.5625C13.1961 6.53001 11.6611 8.125 9.76749 8.125C7.87391 8.125 6.33886 6.53001 6.33886 4.5625C6.33886 2.59499 7.87391 1 9.76749 1C11.6611 1 13.1961 2.59499 13.1961 4.5625Z" fill="#009980"/>
<path d="M5.42864 12.5H14.571C16.4647 12.5 17.9998 14.0952 17.9996 16.0628L17.9997 19H2L2 16.0621C2.00021 14.0947 3.5352 12.5 5.42864 12.5Z" fill="#009980"/>
<path d="M13.1961 4.5625C13.1961 6.53001 11.6611 8.125 9.76749 8.125C7.87391 8.125 6.33886 6.53001 6.33886 4.5625C6.33886 2.59499 7.87391 1 9.76749 1C11.6611 1 13.1961 2.59499 13.1961 4.5625Z" stroke="#009980" stroke-width="1.5" stroke-linecap="round" stroke-linejoin="round"/>
<path d="M5.42864 12.5H14.571C16.4647 12.5 17.9998 14.0952 17.9996 16.0628L17.9997 19H2L2 16.0621C2.00021 14.0947 3.5352 12.5 5.42864 12.5Z" stroke="#009980" stroke-width="1.5" stroke-linecap="round" stroke-linejoin="round"/>
</svg>