<svg width="18" height="20" viewBox="0 0 18 20" fill="none" xmlns="http://www.w3.org/2000/svg">
<path d="M4.42864 12.5H13.571C15.4647 12.5 16.9998 14.0952 16.9996 16.0628L16.9997 19H1L1 16.0621C1.00021 14.0947 2.5352 12.5 4.42864 12.5Z" fill="#FCFCFC"/>
<path d="M12.1961 4.5625C12.1961 6.53001 10.6611 8.125 8.76749 8.125C6.87391 8.125 5.33886 6.53001 5.33886 4.5625C5.33886 2.59499 6.87391 1 8.76749 1C10.6611 1 12.1961 2.59499 12.1961 4.5625Z" fill="#FCFCFC"/>
<path d="M4.42864 12.5H13.571C15.4647 12.5 16.9998 14.0952 16.9996 16.0628L16.9997 19H1L1 16.0621C1.00021 14.0947 2.5352 12.5 4.42864 12.5Z" stroke="#333333" stroke-width="1.5" stroke-linecap="round" stroke-linejoin="round"/>
<path d="M12.1961 4.5625C12.1961 6.53001 10.6611 8.125 8.76749 8.125C6.87391 8.125 5.33886 6.53001 5.33886 4.5625C5.33886 2.59499 6.87391 1 8.76749 1C10.6611 1 12.1961 2.59499 12.1961 4.5625Z" stroke="#333333" stroke-width="1.5" stroke-linecap="round" stroke-linejoin="round"/>
</svg>
