<svg width="18" height="18" viewBox="0 0 18 18" fill="none" xmlns="http://www.w3.org/2000/svg">
<path d="M10.875 4.875C11.4279 4.98287 11.9767 5.22669 12.375 5.625C12.7733 6.02331 13.0171 6.57213 13.125 7.125M11.25 2.25C12.3987 2.37761 13.4323 2.9333 14.25 3.75C15.0677 4.5667 15.621 5.60151 15.75 6.75M15.7496 12.3575V14.3898C15.7528 15.1667 15.0542 15.8155 14.2699 15.7447C7.50006 15.75 2.25006 10.4512 2.25536 3.72689C2.18472 2.94671 2.83024 2.25079 3.60614 2.25007H5.6425C5.97192 2.24683 6.29127 2.36325 6.54105 2.57763C7.25116 3.18712 7.70791 5.25583 7.53217 6.07821C7.39497 6.72027 6.74774 7.16947 6.30771 7.60863C7.274 9.30464 8.68105 10.7089 10.3804 11.6733C10.8204 11.2341 11.2705 10.5882 11.9139 10.4512C12.7392 10.2756 14.8212 10.733 15.4282 11.448C15.6435 11.7016 15.7579 12.0253 15.7496 12.3575Z" stroke="#1A1A1A" stroke-linecap="round" stroke-linejoin="round"/>
</svg>
